<svg width="27" height="30" viewBox="0 0 27 30" fill="none" xmlns="http://www.w3.org/2000/svg">
<path opacity="0.5" d="M1 12.7833C1 8.3067 1 6.06839 1.52852 5.31537C2.05704 4.56235 4.16165 3.84194 8.37088 2.40111L9.17281 2.1266C11.367 1.37553 12.4641 1 13.6 1C14.7359 1 15.833 1.37553 18.0272 2.1266L18.8291 2.40111C23.0383 3.84194 25.143 4.56235 25.6715 5.31537C26.2 6.06839 26.2 8.3067 26.2 12.7833C26.2 13.4595 26.2 14.1928 26.2 14.9879C26.2 22.8812 20.2655 26.7117 16.542 28.3382C15.532 28.7794 15.027 29 13.6 29C12.173 29 11.668 28.7794 10.658 28.3382C6.93455 26.7117 1 22.8812 1 14.9879C1 14.1928 1 13.4595 1 12.7833Z" stroke="#1C274C" stroke-width="1.5"/>
<path d="M13.5999 9.39941V14.9994" stroke="#1C274C" stroke-width="1.5" stroke-linecap="round"/>
<circle cx="13.5997" cy="19.2003" r="1.4" fill="#1C274C"/>
</svg>
