<svg width="59" height="60" viewBox="0 0 59 60" fill="none" xmlns="http://www.w3.org/2000/svg">
<rect width="58.88" height="60" rx="29.44" fill="#F2F2F2"/>
<path d="M10.0203 49.1701C10.0203 49.1701 10.2064 49.1217 10.5218 49.0124C13.4028 47.8137 15.233 46.0801 15.9647 45.2907C17.2313 43.8983 18.2269 42.1501 18.2145 40.1695C18.2145 39.6607 18.154 39.1266 18.0116 38.5529C17.4748 36.3452 16.0893 33.5545 14.7771 30.4276C13.4757 27.2941 12.2422 23.763 12.237 19.8528C12.227 17.0646 12.9022 14.1123 14.5451 11.1611C12.5515 12.8486 7.5683 18.0477 9.39569 26.6818C11.3121 35.7376 15.3307 41.88 10.0203 49.1701Z" fill="#E54C3A"/>
<path d="M44.6458 29.8535C46.2015 28.9215 47.3181 27.6898 47.9907 26.1623C48.6623 24.6358 49 23.172 49 21.7719C49 20.1174 48.7795 18.5805 48.3371 17.1591C47.8946 15.7382 47.1701 14.4971 46.1598 13.4365C45.1511 12.3766 43.8582 11.5387 42.2795 10.9229C40.7017 10.3083 38.7779 10 36.5067 10H20.1692C20.1596 10.1217 20.149 10.3083 20.149 10.555C20.167 11.7727 20.3853 14.2396 22.1384 17.0001H22.1608L22.1571 16.9913H37.2515C37.3482 16.9913 37.434 16.9973 37.526 17.0001H37.5786C37.6122 17.0001 37.6445 17.0042 37.6781 17.0051C37.735 17.0079 37.7931 17.0098 37.8478 17.0133C37.9589 17.0195 38.0683 17.0299 38.1762 17.0446C39.1482 17.1537 39.6915 17.399 39.6915 17.399C39.6915 17.399 42.9925 18.399 45.1694 22.8609C45.1694 22.8609 44.1393 23.2883 42.759 24.4063C40.9962 25.9663 39.5313 27.5173 38.5158 29.3753C37.8699 30.5421 37.3702 31.899 36.804 33.354H37.5783C38.7984 33.354 39.8504 33.8212 40.7331 34.7538C41.6168 35.687 42.0593 36.7692 42.0593 37.9994C42.0593 39.4836 41.638 40.6821 40.7972 41.5937C39.9548 42.5068 38.8612 42.9618 37.5154 42.9618H31.1967C30.0378 44.2942 28.748 45.5231 27.3154 46.594C25.5934 47.881 23.8981 48.9437 22.0822 49.9619H36.507C38.7785 49.9619 40.712 49.6229 42.3112 48.9437C43.9107 48.2648 45.2046 47.3742 46.1925 46.2714C47.18 45.1682 47.8949 43.9069 48.3371 42.4852C48.7795 41.064 49 39.6112 49 38.127C49 36.5575 48.6533 35.0197 47.9593 33.5136C47.2649 32.0075 46.1598 30.7873 44.6458 29.8535Z" fill="#26A75C"/>
<path d="M32.3169 19.9496C29.582 20.1005 26.8626 19.9862 26.863 19.9875C25.9102 19.9437 25.1029 19.8784 25.1029 19.8784C29.4564 26.0548 28.1374 31.545 28.1374 31.545C27.7627 29.3968 27.2947 25.7853 22.9836 22.3753C15.723 16.5045 16.8213 10.0383 16.8213 10.0383C8.19787 21.1538 16.9248 30.5348 18.7916 38.0527C20.659 45.5725 12.0508 50.0002 12.0508 50.0002C14.1288 49.7618 17.1922 48.9204 19.3744 47.7374C21.2852 46.6998 23.0004 45.6492 24.7605 44.3551C27.518 42.3267 29.7554 39.6416 31.4439 36.6877C31.9348 35.8285 32.3824 34.9464 32.7846 34.0424C33.663 32.0729 34.291 30.0041 35.3434 28.1112C36.5402 25.9584 38.2122 24.2519 40.062 22.6414C40.0858 22.6211 40.5774 22.1902 40.5982 22.213C38.5472 19.9496 35.0524 19.799 32.3169 19.9496ZM36.9614 21.9527C36.7446 21.9527 36.5684 21.7784 36.5684 21.5628C36.5684 21.3472 36.7443 21.1729 36.9614 21.1729C37.1785 21.1729 37.3541 21.3472 37.3541 21.5628C37.3537 21.7784 37.1782 21.9527 36.9614 21.9527Z" fill="#FAD117"/>
</svg>
