<svg width="14" height="14" viewBox="0 0 14 14" fill="none" xmlns="http://www.w3.org/2000/svg">
<g id="Group 1000002609">
<circle id="Vector" cx="7" cy="7" r="6" stroke="#1C274C" stroke-width="0.8"/>
<path id="Vector_2" opacity="0.5" d="M3.4 2.62633C3.86815 3.05264 4.83253 4.21791 4.94489 5.46843C5.04991 6.63734 5.82143 7.58715 7 7.60001C7.45293 7.60496 7.91101 7.27775 7.90984 6.82479C7.90948 6.68473 7.88636 6.54152 7.85018 6.40977C7.79987 6.22651 7.7954 6.01568 7.9 5.80001C8.26593 5.04554 8.98564 4.84287 9.55592 4.43313C9.80884 4.2514 10.0396 4.05969 10.1413 3.90528C10.4222 3.47896 10.7031 2.62633 10.5626 2.20001" stroke="#1C274C" stroke-width="0.8"/>
<path id="Vector_3" opacity="0.5" d="M13 7.59998C12.8024 8.1586 12.6625 9.62498 10.4309 9.64825C10.4309 9.64825 8.45474 9.64825 7.86188 10.7655C7.38759 11.6593 7.66426 12.6276 7.86188 13" stroke="#1C274C" stroke-width="0.8"/>
</g>
</svg>
