<svg width="28" height="30" viewBox="0 0 28 30" fill="none" xmlns="http://www.w3.org/2000/svg">
<path d="M13.0261 15C16.8921 15 20.0261 11.866 20.0261 8C20.0261 4.13401 16.8921 1 13.0261 1C9.16007 1 6.02606 4.13401 6.02606 8C6.02606 11.866 9.16007 15 13.0261 15Z" stroke="#292D32" stroke-width="1.5" stroke-linecap="round" stroke-linejoin="round"/>
<path opacity="0.4" d="M1 29C1 23.582 6.39 19.2 13.026 19.2C14.37 19.2 15.672 19.382 16.89 19.718" stroke="#292D32" stroke-width="1.5" stroke-linecap="round" stroke-linejoin="round"/>
<path d="M27.026 23.4C27.026 23.848 26.9701 24.282 26.8581 24.702C26.7321 25.262 26.5081 25.808 26.2141 26.284C25.2481 27.908 23.47 29 21.426 29C19.984 29 18.682 28.4539 17.702 27.5579C17.282 27.1939 16.918 26.76 16.638 26.284C16.12 25.444 15.826 24.45 15.826 23.4C15.826 21.888 16.4281 20.502 17.4081 19.494C18.4301 18.444 19.858 17.8 21.426 17.8C23.078 17.8 24.5761 18.514 25.5841 19.662C26.4801 20.656 27.026 21.972 27.026 23.4Z" stroke="#292D32" stroke-width="1.5" stroke-miterlimit="10" stroke-linecap="round" stroke-linejoin="round"/>
<path d="M23.5119 23.3719H19.3399" stroke="#292D32" stroke-width="1.5" stroke-miterlimit="10" stroke-linecap="round" stroke-linejoin="round"/>
<path d="M21.4262 21.3276V25.5136" stroke="#292D32" stroke-width="1.5" stroke-miterlimit="10" stroke-linecap="round" stroke-linejoin="round"/>
</svg>
