<svg width="35" height="35" viewBox="0 0 35 35" fill="none" xmlns="http://www.w3.org/2000/svg">
<path opacity="0.5" d="M0 5C0 2.23858 2.23858 0 5 0H30C32.7614 0 35 2.23858 35 5V30C35 32.7614 32.7614 35 30 35H5C2.23858 35 0 32.7614 0 30V5Z" fill="#212020"/>
<path d="M23.1628 10.8044C26.3876 13.435 28 14.7504 28 17C28 19.2496 26.3876 20.565 23.1628 23.1956C22.2726 23.9218 21.3897 24.6055 20.5783 25.1752C19.8665 25.6751 19.0604 26.1921 18.2258 26.6996C15.0086 28.656 13.4 29.6342 11.9572 28.5512C10.5145 27.4682 10.3834 25.2009 10.1211 20.6665C10.047 19.3841 10 18.127 10 17C10 15.873 10.047 14.6159 10.1211 13.3335C10.3834 8.79907 10.5145 6.53183 11.9572 5.4488C13.4 4.36577 15.0086 5.34397 18.2258 7.30037C19.0604 7.8079 19.8665 8.32493 20.5783 8.82476C21.3897 9.39449 22.2726 10.0782 23.1628 10.8044Z" stroke="#1BC469" stroke-width="1.5"/>
</svg>
