<svg width="16" height="16" viewBox="0 0 16 16" fill="none" xmlns="http://www.w3.org/2000/svg">
<path opacity="0.5" d="M8.76066 14.619L9.17683 14.8961L8.76066 14.619ZM9.14013 14.0491L8.72395 13.772L9.14013 14.0491ZM6.85984 14.0491L6.44367 14.3263L6.85984 14.0491ZM7.23931 14.619L6.82314 14.8961L7.23931 14.619ZM1.26642 11.2128L1.71963 11.0016H1.71963L1.26642 11.2128ZM5.0527 13.128L5.04505 13.628L5.0527 13.128ZM3.16061 12.8965L2.98785 13.3657H2.98785L3.16061 12.8965ZM14.7336 11.2128L15.1868 11.424L14.7336 11.2128ZM10.9473 13.128L10.9396 12.6281L10.9473 13.128ZM12.8394 12.8965L13.0122 13.3657L12.8394 12.8965ZM2.67125 3.01394L2.43208 2.57486V2.57486L2.67125 3.01394ZM1.51576 4.04105L1.1041 3.75726H1.1041L1.51576 4.04105ZM6.18195 13.2639L6.41158 12.8197L6.41158 12.8197L6.18195 13.2639ZM5.90138 3.05615C6.17752 3.05539 6.40076 2.83091 6.4 2.55477C6.39924 2.27863 6.17476 2.05539 5.89862 2.05615L5.90138 3.05615ZM15.4895 9.72603C15.4977 9.45001 15.2806 9.21959 15.0046 9.21138C14.7285 9.20316 14.4981 9.42026 14.4899 9.69628L15.4895 9.72603ZM9.17683 14.8961L9.5563 14.3263L8.72395 13.772L8.34448 14.3419L9.17683 14.8961ZM6.44367 14.3263L6.82314 14.8961L7.65549 14.3419L7.27602 13.772L6.44367 14.3263ZM8.34448 14.3419C8.28558 14.4304 8.16273 14.5 7.99999 14.5C7.83724 14.5 7.71439 14.4304 7.65549 14.3419L6.82314 14.8961C7.10245 15.3156 7.57117 15.5 7.99999 15.5C8.42881 15.5 8.89752 15.3156 9.17683 14.8961L8.34448 14.3419ZM1.5 8.46663V7.84441H0.5V8.46663H1.5ZM0.5 8.46663C0.5 9.18375 0.499658 9.74974 0.534769 10.2072C0.570326 10.6704 0.644299 11.0615 0.813212 11.424L1.71963 11.0016C1.62212 10.7923 1.56288 10.5351 1.53184 10.1306C1.50034 9.72034 1.5 9.19913 1.5 8.46663H0.5ZM5.06036 12.6281C4.18077 12.6146 3.70733 12.565 3.33337 12.4273L2.98785 13.3657C3.53831 13.5684 4.16713 13.6145 5.04505 13.628L5.06036 12.6281ZM0.813212 11.424C1.2293 12.3169 2.01819 13.0087 2.98785 13.3657L3.33337 12.4273C2.58783 12.1528 2.014 11.6333 1.71963 11.0016L0.813212 11.424ZM10.9549 13.628C11.8328 13.6145 12.4617 13.5684 13.0122 13.3657L12.6666 12.4273C12.2927 12.565 11.8192 12.6146 10.9396 12.6281L10.9549 13.628ZM14.2804 11.0016C13.986 11.6333 13.4122 12.1528 12.6666 12.4273L13.0122 13.3657C13.9818 13.0087 14.7707 12.3169 15.1868 11.424L14.2804 11.0016ZM1.5 7.84441C1.5 6.81513 1.50067 6.08264 1.56163 5.51266C1.6215 4.95297 1.73522 4.60364 1.92742 4.32485L1.1041 3.75726C0.780539 4.22661 0.636379 4.76054 0.567306 5.4063C0.499334 6.04176 0.5 6.83687 0.5 7.84441H1.5ZM2.43208 2.57486C1.89613 2.8668 1.43966 3.27053 1.1041 3.75726L1.92742 4.32485C2.16905 3.97434 2.50449 3.67415 2.91043 3.45303L2.43208 2.57486ZM7.27602 13.772C7.01055 13.3733 6.7891 13.0149 6.41158 12.8197L5.95233 13.7081C6.04759 13.7573 6.12047 13.8409 6.44367 14.3263L7.27602 13.772ZM5.04505 13.628C5.35094 13.6326 5.54998 13.6361 5.70292 13.6511C5.84864 13.6655 5.91236 13.6874 5.95233 13.7081L6.41158 12.8197C6.21516 12.7182 6.01187 12.6767 5.80088 12.656C5.59711 12.6359 5.34971 12.6325 5.06036 12.6281L5.04505 13.628ZM9.5563 14.3263C9.8795 13.8409 9.95238 13.7573 10.0476 13.7081L9.58839 12.8197C9.21088 13.0149 8.98943 13.3733 8.72395 13.772L9.5563 14.3263ZM10.9396 12.6281C10.6503 12.6325 10.4029 12.6359 10.1991 12.656C9.9881 12.6767 9.78482 12.7182 9.58839 12.8197L10.0476 13.7081C10.0876 13.6874 10.1513 13.6655 10.2971 13.6511C10.45 13.6361 10.649 13.6326 10.9549 13.628L10.9396 12.6281ZM5.89862 2.05615C4.15548 2.06096 3.31105 2.09607 2.43208 2.57486L2.91043 3.45303C3.53069 3.11516 4.11261 3.06108 5.90138 3.05615L5.89862 2.05615ZM14.4899 9.69628C14.47 10.364 14.4109 10.7215 14.2804 11.0016L15.1868 11.424C15.4089 10.9474 15.469 10.4143 15.4895 9.72603L14.4899 9.69628Z" fill="#1C274C" fill-opacity="0.7"/>
<path d="M8 2.55556L7.66782 2.18186C7.56107 2.27674 7.5 2.41275 7.5 2.55556C7.5 2.69838 7.56107 2.83438 7.66782 2.92927L8 2.55556ZM14.5 7.84442C14.5 8.12056 14.7239 8.34442 15 8.34442C15.2761 8.34442 15.5 8.12056 15.5 7.84442H14.5ZM13.3287 3.01395L13.0896 3.45304L13.3287 3.01395ZM14.4842 4.04106L14.8959 3.75727V3.75727L14.4842 4.04106ZM10.0822 1.3737C10.2886 1.19024 10.3072 0.874208 10.1237 0.667817C9.94024 0.461426 9.62421 0.442837 9.41782 0.626296L10.0822 1.3737ZM9.41782 4.48483C9.62421 4.66829 9.94024 4.6497 10.1237 4.44331C10.3072 4.23692 10.2886 3.92089 10.0822 3.73743L9.41782 4.48483ZM8 3.05556C9.15027 3.05556 10.2554 3.05574 11.1776 3.11191C11.6381 3.13996 12.0418 3.18139 12.3752 3.24109C12.7157 3.30207 12.949 3.37646 13.0896 3.45304L13.5679 2.57487C13.2877 2.42221 12.9309 2.32469 12.5514 2.25675C12.1648 2.18752 11.7186 2.14301 11.2384 2.11376C10.2795 2.05536 9.14113 2.05556 8 2.05556V3.05556ZM15.5 7.84442C15.5 6.83688 15.5007 6.04177 15.4327 5.40631C15.3636 4.76055 15.2195 4.22661 14.8959 3.75727L14.0726 4.32486C14.2648 4.60365 14.3785 4.95298 14.4384 5.51266C14.4993 6.08264 14.5 6.81514 14.5 7.84442H15.5ZM13.0896 3.45304C13.4955 3.67416 13.8309 3.97435 14.0726 4.32486L14.8959 3.75727C14.5603 3.27054 14.1039 2.86681 13.5679 2.57487L13.0896 3.45304ZM8.33218 2.92927L10.0822 1.3737L9.41782 0.626296L7.66782 2.18186L8.33218 2.92927ZM7.66782 2.92927L9.41782 4.48483L10.0822 3.73743L8.33218 2.18186L7.66782 2.92927Z" fill="#1C274C" fill-opacity="0.7"/>
<rect x="4" y="9" width="2" height="2" rx="1" transform="rotate(-90 4 9)" fill="black" fill-opacity="0.3"/>
<rect x="7.5" y="9" width="2" height="2" rx="1" transform="rotate(-90 7.5 9)" fill="black" fill-opacity="0.3"/>
<rect x="11" y="9" width="2" height="2" rx="1" transform="rotate(-90 11 9)" fill="black" fill-opacity="0.3"/>
</svg>
