<svg width="32" height="32" viewBox="0 0 32 32" fill="none" xmlns="http://www.w3.org/2000/svg">
<rect x="1" y="1" width="30" height="30" rx="15" fill="white"/>
<rect x="1" y="1" width="30" height="30" rx="15" stroke="#ECECEC"/>
<path d="M22.8913 13.2794L23.4793 16.6792C23.6261 17.5283 22.9731 18.305 22.1123 18.305H17.7947C17.3668 18.305 17.041 18.6891 17.1102 19.1118L17.6624 22.4823C17.7522 23.0299 17.7265 23.5902 17.5872 24.1272C17.4718 24.5721 17.1286 24.9294 16.6771 25.0744L16.5563 25.1132C16.2835 25.2008 15.9857 25.1804 15.7285 25.0565C15.4454 24.9201 15.2382 24.6712 15.1615 24.3752L14.765 22.847C14.6389 22.3608 14.4552 21.8914 14.2183 21.448C13.8722 20.8 13.337 20.2814 12.7807 19.8021L11.5818 18.7689C11.2437 18.4776 11.0662 18.0414 11.1047 17.5965L11.7815 9.76927C11.8435 9.05132 12.4438 8.50016 13.1636 8.50016H17.0375C19.9385 8.50016 22.4144 10.5215 22.8913 13.2794Z" fill="#FF3A1E"/>
<path d="M23.4793 16.6792L22.9866 16.7644L23.4793 16.6792ZM22.8913 13.2794L22.3987 13.3646L22.8913 13.2794ZM11.7815 9.76927L11.2833 9.72619L11.7815 9.76927ZM11.1047 17.5965L11.6028 17.6396L11.1047 17.5965ZM17.6624 22.4823L18.1559 22.4015V22.4015L17.6624 22.4823ZM17.1102 19.1118L17.6036 19.031L17.1102 19.1118ZM11.5818 18.7689L11.2554 19.1477H11.2554L11.5818 18.7689ZM12.7807 19.8021L13.1071 19.4233H13.1071L12.7807 19.8021ZM14.765 22.847L14.2811 22.9726L14.765 22.847ZM15.1615 24.3752L15.6454 24.2497V24.2497L15.1615 24.3752ZM16.5563 25.1132L16.4034 24.6371L16.4034 24.6371L16.5563 25.1132ZM16.6771 25.0744L16.8301 25.5504L16.8301 25.5504L16.6771 25.0744ZM14.2183 21.448L14.6593 21.2124L14.2183 21.448ZM17.5872 24.1272L17.1032 24.0017V24.0017L17.5872 24.1272ZM15.7285 25.0565L15.5114 25.5069V25.5069L15.7285 25.0565ZM22.9866 16.7644L22.3987 13.3646L23.384 13.1942L23.972 16.594L22.9866 16.7644ZM17.0375 9.00016H13.1636V8.00016H17.0375V9.00016ZM12.2796 9.81234L11.6028 17.6396L10.6065 17.5534L11.2833 9.72619L12.2796 9.81234ZM22.3987 13.3646C21.9654 10.8593 19.7086 9.00016 17.0375 9.00016V8.00016C20.1685 8.00016 22.8634 10.1837 23.384 13.1942L22.3987 13.3646ZM17.169 22.5631L16.6168 19.1927L17.6036 19.031L18.1559 22.4015L17.169 22.5631ZM11.9082 18.3901L13.1071 19.4233L12.4543 20.1808L11.2554 19.1477L11.9082 18.3901ZM15.249 22.7215L15.6454 24.2497L14.6775 24.5008L14.2811 22.9726L15.249 22.7215ZM16.4034 24.6371L16.5242 24.5983L16.8301 25.5504L16.7092 25.5892L16.4034 24.6371ZM14.6593 21.2124C14.9147 21.6904 15.1129 22.1967 15.249 22.7215L14.2811 22.9726C14.1649 22.5249 13.9957 22.0925 13.7773 21.6836L14.6593 21.2124ZM16.5242 24.5983C16.8188 24.5037 17.0325 24.2745 17.1032 24.0017L18.0712 24.2528C17.9112 24.8697 17.4383 25.355 16.8301 25.5504L16.5242 24.5983ZM15.6454 24.2497C15.6841 24.3989 15.7906 24.5314 15.9455 24.6061L15.5114 25.5069C15.1002 25.3087 14.7923 24.9435 14.6775 24.5008L15.6454 24.2497ZM15.9455 24.6061C16.0868 24.6741 16.2521 24.6857 16.4034 24.6371L16.7092 25.5892C16.3149 25.7159 15.8846 25.6867 15.5114 25.5069L15.9455 24.6061ZM17.7947 17.805H22.1123V18.805H17.7947V17.805ZM18.1559 22.4015C18.2568 23.0177 18.228 23.6483 18.0712 24.2528L17.1032 24.0017C17.2251 23.532 17.2475 23.042 17.169 22.5631L18.1559 22.4015ZM13.1636 9.00016C12.7037 9.00016 12.3194 9.35241 12.2796 9.81234L11.2833 9.72619C11.3677 8.75023 12.1839 8.00016 13.1636 8.00016V9.00016ZM13.1071 19.4233C13.6716 19.9097 14.2672 20.4783 14.6593 21.2124L13.7773 21.6836C13.4771 21.1217 13.0024 20.6531 12.4543 20.1808L13.1071 19.4233ZM23.972 16.594C24.1716 17.7481 23.284 18.805 22.1123 18.805V17.805C22.6622 17.805 23.0807 17.3085 22.9866 16.7644L23.972 16.594ZM16.6168 19.1927C16.4978 18.4662 17.0577 17.805 17.7947 17.805V18.805C17.6759 18.805 17.5841 18.9119 17.6036 19.031L16.6168 19.1927ZM11.6028 17.6396C11.5782 17.9245 11.6919 18.2038 11.9082 18.3901L11.2554 19.1477C10.7956 18.7514 10.5542 18.1582 10.6065 17.5534L11.6028 17.6396Z" fill="#FF3A1E"/>
<path d="M9.30966 8.94105L8.81152 8.89797L9.30966 8.94105ZM8.5 18.3048L8.99814 18.3479C8.97507 18.6146 8.74595 18.8159 8.47844 18.8043C8.21093 18.7928 8 18.5726 8 18.3048H8.5ZM9.80781 8.98412L8.99814 18.3479L8.00186 18.2617L8.81152 8.89797L9.80781 8.98412ZM9 8.90603V18.3048H8V8.90603H9ZM8.81152 8.89797C8.80683 8.95224 8.84965 8.99998 8.90559 8.99998V7.99998C9.43713 7.99998 9.85352 8.45549 9.80781 8.98412L8.81152 8.89797ZM8.90559 8.99998C8.95827 8.99998 9 8.95738 9 8.90603H8C8 8.40617 8.40491 7.99998 8.90559 7.99998V8.99998Z" fill="#FF3A1E"/>
</svg>
