<svg width="25" height="25" viewBox="0 0 25 25" fill="none" xmlns="http://www.w3.org/2000/svg">
<g id="Group 1000002657">
<rect id="Rectangle_60" width="25" height="25" rx="12.5" fill="#F2F2F2"/>
<g id="Group 1000002363">
<path id="Vector" d="M12.7105 22.6227C17.3392 22.6227 21.0915 18.8704 21.0915 14.2417C21.0915 9.61302 17.3392 5.86072 12.7105 5.86072C8.08178 5.86072 4.32948 9.61302 4.32948 14.2417C4.32948 18.8704 8.08178 22.6227 12.7105 22.6227Z" fill="url(#paint0_radial_113_383)"/>
<path id="Vector_2" d="M10.6096 9.03701C10.6096 9.03701 9.24578 8.83742 8.56607 9.86107C8.56607 9.86107 9.51192 9.15905 10.7906 9.27995C10.8334 9.0798 10.6096 9.03701 10.6096 9.03701Z" fill="url(#paint1_radial_113_383)"/>
<path id="Vector_3" d="M10.6566 9.10758C10.6566 9.10758 9.34672 8.99983 8.53846 9.90194C8.53846 9.90194 9.46649 9.25749 10.7451 9.37839C10.9229 9.18595 10.6566 9.10758 10.6566 9.10758Z" fill="#FFF200"/>
<path id="Vector_4" d="M10.6357 9.09432C10.6357 9.09432 9.29026 8.95079 8.52813 9.912C8.52813 9.912 9.4566 9.20208 10.7353 9.32298C10.8973 9.16909 10.6357 9.09432 10.6357 9.09432Z" fill="#601B05"/>
<path id="Vector_5" d="M14.6179 9.14995C14.6179 9.14995 15.9205 8.69996 16.779 9.57901C16.779 9.57901 15.719 9.06532 14.4852 9.42234C14.4061 9.23362 14.6179 9.14995 14.6179 9.14995Z" fill="url(#paint2_radial_113_383)"/>
<path id="Vector_6" d="M14.585 9.2278C14.585 9.2278 15.8518 8.87811 16.814 9.61407C16.814 9.61407 15.7822 9.1536 14.5483 9.51055C14.3378 9.35457 14.585 9.2278 14.585 9.2278Z" fill="#FFF200"/>
<path id="Vector_7" d="M14.603 9.21102C14.603 9.21102 15.8981 8.81937 16.8259 9.62201C16.8259 9.62201 15.7814 9.09738 14.5475 9.45421C14.3598 9.33318 14.603 9.21102 14.603 9.21102Z" fill="#601B05"/>
<g id="Mask group">
<mask id="mask0_113_383" style="mask-type:luminance" maskUnits="userSpaceOnUse" x="7" y="14" width="9" height="10">
<g id="Group" opacity="0.87">
<g id="Group_2">
<path id="Vector_8" d="M14.7576 20.6302C13.7961 22.6943 11.4682 23.6473 9.55851 22.7577C7.64867 21.8681 6.88048 19.4728 7.84231 17.4087C8.80377 15.3444 11.1316 14.3914 13.0411 15.281C14.951 16.1707 15.7194 18.5659 14.7576 20.6302Z" fill="url(#paint3_radial_113_383)"/>
</g>
</g>
</mask>
<g mask="url(#mask0_113_383)">
<path id="Vector_9" opacity="0.87" d="M14.7576 20.6302C13.7961 22.6943 11.4682 23.6473 9.55851 22.7577C7.64867 21.8681 6.88048 19.4728 7.84231 17.4087C8.80377 15.3444 11.1316 14.3914 13.0411 15.281C14.951 16.1707 15.7194 18.5659 14.7576 20.6302Z" fill="#ED1C24"/>
</g>
</g>
<g id="Mask group_2">
<mask id="mask1_113_383" style="mask-type:luminance" maskUnits="userSpaceOnUse" x="12" y="14" width="9" height="10">
<g id="Group_3" opacity="0.87">
<g id="Group_4">
<path id="Vector_10" d="M19.0483 20.8362C17.4748 23.1078 14.9129 24.0604 13.3271 22.962C11.7408 21.8635 11.731 19.1301 13.3049 16.8584C14.8781 14.5862 17.44 13.6338 19.0258 14.7322C20.6122 15.8306 20.6218 18.5639 19.0483 20.8362Z" fill="url(#paint4_radial_113_383)"/>
</g>
</g>
</mask>
<g mask="url(#mask1_113_383)">
<path id="Vector_11" opacity="0.87" d="M19.0483 20.8362C17.4748 23.1078 14.9129 24.0604 13.3271 22.962C11.7408 21.8635 11.731 19.1301 13.3049 16.8584C14.8781 14.5862 17.44 13.6338 19.0258 14.7322C20.6122 15.8306 20.6218 18.5639 19.0483 20.8362Z" fill="#ED1C24"/>
</g>
</g>
<g id="Mask group_3">
<mask id="mask2_113_383" style="mask-type:luminance" maskUnits="userSpaceOnUse" x="6" y="14" width="8" height="9">
<g id="Group_5" opacity="0.87">
<g id="Group_6">
<path id="Vector_12" d="M12.4969 16.3544C13.6433 17.9383 13.2682 20.1677 11.6582 21.3331C10.0479 22.4985 7.81294 22.1586 6.66681 20.5745C5.51992 18.9907 5.89507 16.7614 7.5049 15.5962C9.11529 14.4304 11.3503 14.7704 12.4969 16.3544Z" fill="url(#paint5_radial_113_383)"/>
</g>
</g>
</mask>
<g mask="url(#mask2_113_383)">
<path id="Vector_13" opacity="0.87" d="M12.4969 16.3544C13.6433 17.9383 13.2682 20.1677 11.6582 21.3331C10.0479 22.4985 7.81294 22.1586 6.66681 20.5745C5.51992 18.9907 5.89507 16.7614 7.5049 15.5962C9.11529 14.4304 11.3503 14.7704 12.4969 16.3544Z" fill="#ED1C24"/>
</g>
</g>
<path id="Vector_14" d="M4.39089 13.2405C5.14044 10.637 6.58241 9.28521 11.7587 8.67451C14.2229 8.38385 16.3197 8.08049 17.8921 7.65699C16.4658 6.53304 14.6672 5.86053 12.7105 5.86053C8.42076 5.8606 4.88606 9.08423 4.39089 13.2405Z" fill="url(#paint6_radial_113_383)"/>
<path id="Vector_15" d="M5.69253 4.69452C5.69253 4.69452 5.94331 2.6703 8.43781 2.00461C10.9323 1.33874 13.9252 1.43404 14.6303 1.9885C15.3352 2.54314 17.6328 2.13872 18.2471 3.55781C18.8617 4.97722 20.0766 5.66843 20.0766 5.66843C20.0766 5.66843 22.3995 6.78682 21.5895 8.73982" fill="url(#paint7_radial_113_383)"/>
<path id="Vector_16" d="M15.9549 4.91445L17.2164 4.32852C16.9743 3.6241 16.3772 2.89837 15.8297 2.33994C15.3275 2.26075 14.8795 2.1844 14.6304 1.98848C14.2174 1.6637 13.0199 1.49692 11.5977 1.54785C13.2965 2.25677 15.9549 4.91445 15.9549 4.91445Z" fill="url(#paint8_radial_113_383)"/>
<path id="Vector_17" d="M16.7749 6.91223L14.5631 7.70855C14.5631 7.70855 17.9763 8.46524 19.4916 10.5177C20.4642 11.8349 20.8675 12.7621 21.0321 13.2583C20.7123 10.5235 19.0771 8.19165 16.7749 6.91223Z" fill="url(#paint9_radial_113_383)"/>
<path id="Vector_18" d="M14.518 7.21294C14.518 7.21294 17.9311 7.96969 19.4466 10.0221C20.9621 12.0748 21.032 13.2583 21.032 13.2583C21.032 13.2583 22.4647 11.6403 21.6966 9.00351C20.9285 6.36675 18.5159 5.77356 18.5159 5.77356" fill="url(#paint10_radial_113_383)"/>
<path id="Vector_19" d="M15.3671 7.45478C15.9388 7.6414 16.7266 7.94375 17.4987 8.38432C17.3706 7.55691 17.3968 6.40155 17.3968 6.40155L15.3671 7.45478Z" fill="url(#paint11_radial_113_383)"/>
<path id="Vector_20" d="M16.285 4.25245C15.7885 3.29833 14.4064 2.20345 13.6553 1.65323C13.5636 1.63762 13.467 1.62359 13.3668 1.61121C13.6086 1.78343 13.9766 2.05481 14.3741 2.38136C15.0641 2.94662 15.8374 3.67847 16.1649 4.31458L16.285 4.25245Z" fill="#F6D5D1"/>
<path id="Vector_21" d="M19.2986 8.08345L18.8063 7.3387L19.4244 6.69552L19.0686 5.97813C18.9997 5.94698 18.9357 5.9198 18.8773 5.89661L19.2613 6.67061L18.6339 7.32277L19.1329 8.07807L18.5856 8.79811L19.1635 9.49356L19.0959 9.60498C19.1281 9.63898 19.1595 9.67387 19.1907 9.70876L19.329 9.48117L18.7581 8.79419L19.2986 8.08345ZM19.7505 8.12592L19.2582 7.38111L19.8764 6.73792L19.656 6.29388C19.583 6.24819 19.5112 6.20521 19.4419 6.16634L19.7129 6.71283L19.0858 7.3655L19.5847 8.12092L19.0375 8.84064L19.6153 9.53635L19.3755 9.93103C19.3992 9.96137 19.4239 9.99126 19.4468 10.0221C19.4527 10.03 19.4581 10.0377 19.4639 10.0459L19.7811 9.5239L19.2102 8.83692L19.7505 8.12592Z" fill="#DA6788"/>
<path id="Vector_22" opacity="0.45" d="M14.102 5.29699L13.2271 5.06144L13.1531 4.15952L12.2566 4.03362L12.0794 3.1468L11.1753 3.11956L10.9069 2.25651L10.0054 2.32407L9.73988 1.73005C9.69368 1.73745 9.64761 1.74484 9.6016 1.75274L9.92063 2.46582L10.8097 2.39902L11.0749 3.25209L11.9678 3.2787L12.143 4.15446L13.0272 4.27827L13.1 5.16749L13.9616 5.39874L13.9165 6.2891L14.7349 6.6403L14.6654 6.97766L14.7966 7.01122L14.8897 6.55972L14.0559 6.20169L14.102 5.29699ZM14.387 5.89151L14.4328 4.98617L13.558 4.75094L13.4842 3.84902L12.5877 3.72312L12.4103 2.8363L11.5063 2.80932L11.2377 1.94607L10.3363 2.01331L10.181 1.66559C10.1344 1.67172 10.0876 1.67798 10.041 1.68467L10.2516 2.15564L11.141 2.08852L11.4061 2.94159L12.299 2.96826L12.4741 3.84377L13.3583 3.96764L13.4313 4.85686L14.2924 5.08855L14.2472 5.9786L15.0659 6.3298L14.9193 7.04238L15.0502 7.07556L15.2204 6.24928L14.387 5.89151Z" fill="#DA6788"/>
<path id="Vector_23" d="M20.3031 5.79523C20.1662 5.71174 20.0767 5.66845 20.0767 5.66845C20.0767 5.66845 18.8617 4.97723 18.2472 3.55783C18.1577 3.3511 18.0317 3.184 17.8807 3.04591C17.535 3.10525 17.1336 3.23102 16.6619 3.4239C15.178 4.0317 13.5162 3.81998 10.938 3.12111C8.88539 2.56508 7.51402 3.01658 6.32314 3.32708C5.77665 4.02354 5.69253 4.69447 5.69253 4.69447L15.2451 7.12527C17.8522 6.69841 19.6425 6.07526 20.3031 5.79523Z" fill="url(#paint12_radial_113_383)"/>
<path id="Vector_24" d="M16.5404 7.88838C18.4247 7.42298 20.6835 6.7389 21.1703 6.50968C20.6847 5.96211 20.0767 5.66849 20.0767 5.66849C20.0767 5.66849 19.0633 5.08951 18.4196 3.90698C18.1023 3.98466 17.7436 4.11238 17.331 4.29459C15.8373 4.95382 14.1389 4.80012 11.4933 4.19126C8.89242 3.59275 7.39364 4.49468 5.97442 4.76637L16.5404 7.88838Z" fill="url(#paint13_radial_113_383)"/>
<path id="Vector_25" d="M4.2392 13.0254C4.2392 13.0254 1.84595 11.8214 3.01294 8.44781C2.94727 7.38435 3.96574 4.54611 5.37945 4.2971C6.7933 4.04822 8.268 3.10926 10.867 3.72634C13.4659 4.34361 15.1337 4.5025 16.5977 3.84863C18.0616 3.19458 18.8565 3.22415 19.4042 3.91986C19.9519 4.61556 20.9399 5.74242 20.5566 5.97979C20.1733 6.21711 16.6165 7.74869 11.2179 8.1339C5.81951 8.5191 5.05018 10.6144 4.77981 11.5833C4.53548 12.4594 4.48688 13.2279 4.2392 13.0254Z" fill="url(#paint14_radial_113_383)"/>
<path id="Vector_26" d="M16.2841 3.97394C15.3083 4.32672 14.2224 4.34391 12.828 4.12499C10.6924 5.12272 8.18987 8.15448 7.67176 8.80108C8.54936 8.48558 9.70079 8.24207 11.218 8.13381C11.6383 8.10367 12.0459 8.06625 12.4432 8.02347C12.769 7.57254 13.2807 6.99268 14.0622 6.40132C15.4037 5.3862 16.0732 4.34334 16.2841 3.97394Z" fill="url(#paint15_radial_113_383)"/>
<path id="Vector_27" d="M9.46748 3.52671L9.31567 3.96974L8.40875 4.00083L8.25707 4.89454L7.3664 5.06252L7.34314 5.96837L6.4835 6.2522L6.57191 7.15305L5.75139 7.53345L5.9372 8.4185L5.16123 8.88213L5.43855 9.74279L4.72401 10.2943L4.95918 11.0571C4.98421 10.9974 5.01309 10.9357 5.04393 10.8731L4.88094 10.344L5.59649 9.79171L5.32302 8.94312L6.08963 8.48473L5.90598 7.61081L6.71576 7.23508L6.62873 6.34637L7.47567 6.06683L7.49874 5.17527L8.37462 5.01026L8.52371 4.1321L9.4135 4.10145L9.60753 3.53461C9.56051 3.53138 9.51374 3.52879 9.46748 3.52671ZM5.21697 9.54282L4.94363 8.69405L5.70993 8.23598L5.52646 7.36205L6.3363 6.98639L6.2489 6.09767L7.09609 5.81783L7.11903 4.92646L7.99505 4.76125L8.1442 3.88315L9.0338 3.85275L9.14775 3.52039C9.09927 3.52064 9.05162 3.52171 9.00416 3.52272L8.93634 3.72105L8.02924 3.75195L7.87762 4.6461L6.98695 4.81371L6.96356 5.71911L6.10417 6.00319L6.19233 6.90404L5.372 7.28469L5.55806 8.16968L4.78197 8.63332L5.05929 9.49372L4.34488 10.0453L4.73798 11.3212L4.86716 11.2814L4.50149 10.0951L5.21697 9.54282Z" fill="#DA6788"/>
<path id="Vector_28" d="M10.4221 8.20781C10.7024 7.87847 11.1098 7.41142 11.5939 6.89217C12.4078 6.01875 13.4348 5.00282 14.4148 4.26831C14.3431 4.26805 14.2712 4.26723 14.1977 4.26483C12.5895 5.50601 10.9092 7.4209 10.2262 8.22961C10.2901 8.22203 10.3567 8.2152 10.4221 8.20781Z" fill="#F6D5D1"/>
<path id="Vector_29" d="M5.06105 10.8381C3.3096 10.4464 3.14863 8.65412 3.24798 8.12482C3.72109 5.48882 5.95154 4.17085 5.95154 4.17085L5.94648 4.16693C5.7548 4.21888 5.56653 4.26401 5.37945 4.29706C3.9658 4.54607 2.94733 7.38431 3.01294 8.44777C1.84595 11.8214 4.2392 13.0253 4.2392 13.0253C4.48695 13.2278 4.53548 12.4593 4.77988 11.5832C4.83745 11.377 4.91828 11.1194 5.06105 10.8381Z" fill="url(#paint16_radial_113_383)"/>
<path id="Vector_30" d="M2.78087 9.3066C2.80837 10.1293 3.15925 11.314 4.69949 11.8937C4.71018 11.8497 4.72124 11.8053 4.73274 11.7605C3.18257 11.1677 2.91795 9.97361 2.91378 9.17995C2.91378 8.93441 2.94045 8.73293 2.96409 8.6004C2.88503 8.84726 2.82379 9.08325 2.78087 9.3066Z" fill="#F6D5D1"/>
<path id="Vector_31" d="M21.5415 8.55212C21.5411 8.55098 21.5407 8.54966 21.5403 8.54865C21.5202 9.69345 21.2537 11.1135 20.6632 12.0569C21.0069 12.8352 21.0321 13.2582 21.0321 13.2582C21.0321 13.2582 22.0495 12.1089 21.9096 10.1694C21.8829 9.80455 21.8164 9.41486 21.6966 9.00349C21.6734 8.92374 21.6486 8.84619 21.6224 8.7701C21.5968 8.69565 21.5698 8.62309 21.5415 8.55212Z" fill="url(#paint17_radial_113_383)"/>
<path id="Vector_32" d="M11.6746 10.8341C12.2573 11.7118 12.1465 12.8472 11.3258 13.2367C10.5079 13.6295 9.40431 13.2787 8.9621 12.586C8.51698 11.89 8.78754 10.9657 9.46517 10.3877C10.1457 9.81268 11.0894 9.9528 11.6746 10.8341Z" fill="url(#paint18_radial_113_383)"/>
<path id="Vector_33" d="M11.7793 10.965C12.3617 11.8427 12.2511 12.9781 11.4303 13.3675C10.6127 13.7602 9.50907 13.4095 9.06673 12.7171C8.62162 12.0212 8.89205 11.0965 9.56968 10.5185C10.2502 9.94366 11.194 10.0839 11.7793 10.965Z" fill="#FFF200"/>
<path id="Vector_34" d="M11.6575 10.938C12.2142 11.7769 12.1085 12.862 11.3241 13.2344C10.5424 13.6097 9.48763 13.2743 9.0647 12.6124C8.63936 11.9473 8.89791 11.0635 9.54571 10.511C10.1961 9.96165 11.0981 10.0957 11.6575 10.938Z" fill="url(#paint19_radial_113_383)"/>
<path id="Vector_35" d="M11.1615 10.4182C11.3046 10.5302 11.4393 10.6734 11.5554 10.8484C12.1064 11.675 12.0114 12.7685 11.229 13.1481C10.6516 13.4418 9.91035 13.3238 9.42169 12.9987C9.91256 13.3681 10.7007 13.5173 11.3094 13.2124C12.0948 12.8359 12.1886 11.7416 11.6334 10.9095C11.496 10.7029 11.3339 10.5376 11.1615 10.4182Z" fill="url(#paint20_radial_113_383)"/>
<path id="Vector_36" d="M11.6483 11.2095C12.0917 11.7454 11.9993 12.5538 11.4426 13.0145C10.8856 13.4755 10.0747 13.4145 9.63144 12.8786C9.18765 12.3425 9.27967 11.5346 9.83671 11.0737C10.3939 10.6127 11.2046 10.6735 11.6483 11.2095Z" fill="url(#paint21_radial_113_383)"/>
<path id="Vector_37" d="M11.2914 11.5046C11.5777 11.8511 11.5182 12.3733 11.1584 12.6713C10.7987 12.9689 10.2743 12.9294 9.98788 12.5828C9.70171 12.2367 9.7608 11.7143 10.1206 11.4167C10.4805 11.1191 11.0046 11.1586 11.2914 11.5046Z" fill="#3C2415"/>
<path id="Vector_38" d="M10.1679 11.2295C10.3405 11.4377 10.3045 11.7519 10.0879 11.9312C9.87141 12.1107 9.55636 12.0865 9.38357 11.8786C9.21147 11.6699 9.24706 11.3556 9.4637 11.1766C9.68029 10.9975 9.99559 11.0207 10.1679 11.2295Z" fill="#F2F2F2"/>
<path id="Vector_39" d="M11.4207 11.7364C11.4916 11.8214 11.4768 11.9494 11.3885 12.0224C11.3002 12.0958 11.1716 12.0859 11.1011 12.0012C11.0312 11.9161 11.0457 11.788 11.1339 11.7149C11.2223 11.642 11.3506 11.6516 11.4207 11.7364Z" fill="#F2F2F2"/>
<path id="Vector_40" d="M14.4751 10.8341C13.8925 11.7118 14.0033 12.8472 14.824 13.2367C15.6419 13.6295 16.7455 13.2787 17.1877 12.586C17.6328 11.89 17.3623 10.9657 16.6846 10.3877C16.0042 9.81268 15.0603 9.9528 14.4751 10.8341Z" fill="url(#paint22_radial_113_383)"/>
<path id="Vector_41" d="M14.3706 10.965C13.7882 11.8427 13.8988 12.9781 14.7196 13.3675C15.5372 13.7602 16.6408 13.4095 17.0832 12.7171C17.5283 12.0212 17.2579 11.0965 16.5802 10.5185C15.8997 9.94366 14.9558 10.0839 14.3706 10.965Z" fill="#FFF200"/>
<path id="Vector_42" d="M14.4925 10.938C13.9358 11.7769 14.0415 12.862 14.8259 13.2344C15.6075 13.6097 16.6624 13.2743 17.0852 12.6124C17.5106 11.9473 17.2521 11.0635 16.6042 10.511C15.9538 9.96165 15.0519 10.0957 14.4925 10.938Z" fill="url(#paint23_radial_113_383)"/>
<path id="Vector_43" d="M14.9885 10.4182C14.8454 10.5302 14.7107 10.6734 14.5946 10.8484C14.0436 11.675 14.1387 12.7685 14.9211 13.1481C15.4985 13.4418 16.2397 13.3238 16.7284 12.9987C16.2375 13.3681 15.4494 13.5173 14.8405 13.2124C14.0552 12.8359 13.9614 11.7416 14.5166 10.9095C14.654 10.7029 14.8161 10.5376 14.9885 10.4182Z" fill="url(#paint24_radial_113_383)"/>
<path id="Vector_44" d="M14.5016 11.2095C14.0581 11.7454 14.1507 12.5538 14.7073 13.0145C15.2644 13.4755 16.0752 13.4145 16.5185 12.8786C16.9623 12.3425 16.8702 11.5346 16.3132 11.0737C15.756 10.6127 14.9453 10.6735 14.5016 11.2095Z" fill="url(#paint25_radial_113_383)"/>
<path id="Vector_45" d="M14.8584 11.5046C14.5721 11.8511 14.6316 12.3733 14.9915 12.6713C15.3511 12.9689 15.8755 12.9294 16.162 12.5828C16.4481 12.2367 16.3891 11.7143 16.0293 11.4167C15.6693 11.1191 15.1453 11.1586 14.8584 11.5046Z" fill="#3C2415"/>
<path id="Vector_46" d="M15.982 11.2295C15.8094 11.4377 15.8454 11.7519 16.062 11.9312C16.2784 12.1107 16.5935 12.0865 16.7663 11.8786C16.9384 11.6699 16.9028 11.3556 16.6862 11.1766C16.4695 10.9975 16.1544 11.0207 15.982 11.2295Z" fill="#F2F2F2"/>
<path id="Vector_47" d="M14.7292 11.7364C14.6582 11.8214 14.673 11.9494 14.7614 12.0224C14.8496 12.0958 14.9783 12.0859 15.0488 12.0012C15.1187 11.9161 15.1042 11.788 15.016 11.7149C14.9275 11.642 14.7992 11.6516 14.7292 11.7364Z" fill="#F2F2F2"/>
<g id="Mask group_4">
<mask id="mask3_113_383" style="mask-type:luminance" maskUnits="userSpaceOnUse" x="8" y="13" width="6" height="4">
<g id="Group_7" opacity="0.87">
<g id="Group_8">
<path id="Vector_48" d="M13.1599 14.9031C13.1599 15.9231 12.0058 16.7503 10.5824 16.7503C9.15895 16.7503 8.00492 15.923 8.00492 14.9031C8.00492 13.8831 9.15895 13.0557 10.5824 13.0557C12.0058 13.0557 13.1599 13.8832 13.1599 14.9031Z" fill="url(#paint26_radial_113_383)"/>
</g>
</g>
</mask>
<g mask="url(#mask3_113_383)">
<path id="Vector_49" opacity="0.87" d="M13.1599 14.9031C13.1599 15.9231 12.0058 16.7503 10.5824 16.7503C9.15895 16.7503 8.00492 15.923 8.00492 14.9031C8.00492 13.8831 9.15895 13.0557 10.5824 13.0557C12.0058 13.0557 13.1599 13.8832 13.1599 14.9031Z" fill="#ED1C24"/>
</g>
</g>
<g id="Mask group_5">
<mask id="mask4_113_383" style="mask-type:luminance" maskUnits="userSpaceOnUse" x="12" y="12" width="6" height="5">
<g id="Group_9" opacity="0.87">
<g id="Group_10">
<path id="Vector_50" d="M17.7897 14.8354C17.7897 15.8555 16.6356 16.6828 15.2122 16.6828C13.7888 16.6828 12.6348 15.8555 12.6348 14.8354C12.6348 13.8155 13.7888 12.9882 15.2122 12.9882C16.6356 12.9882 17.7897 13.8155 17.7897 14.8354Z" fill="url(#paint27_radial_113_383)"/>
</g>
</g>
</mask>
<g mask="url(#mask4_113_383)">
<path id="Vector_51" opacity="0.87" d="M17.7897 14.8354C17.7897 15.8555 16.6356 16.6828 15.2122 16.6828C13.7888 16.6828 12.6348 15.8555 12.6348 14.8354C12.6348 13.8155 13.7888 12.9882 15.2122 12.9882C16.6356 12.9882 17.7897 13.8155 17.7897 14.8354Z" fill="#ED1C24"/>
</g>
</g>
<path id="Vector_52" d="M15.3588 14.373C15.4289 15.241 14.4751 16.3939 13.1553 16.5004C11.8357 16.607 10.6502 15.6268 10.5801 14.7587C10.5102 13.8906 11.6419 14.5726 12.9616 14.4661C14.2811 14.3598 15.2888 13.5051 15.3588 14.373Z" fill="#FFF200"/>
<path id="Vector_53" d="M15.349 14.1407C15.4173 14.9858 14.4659 16.1097 13.1522 16.2157C11.8388 16.3218 10.6606 15.3697 10.5926 14.5246C10.5244 13.6798 11.6495 14.3419 12.963 14.2359C14.2764 14.1299 15.2808 13.296 15.349 14.1407Z" fill="url(#paint28_radial_113_383)"/>
<path id="Vector_54" d="M15.2793 14.3333C15.3449 15.1453 14.423 16.2258 13.1513 16.3285C11.8797 16.431 10.7396 15.517 10.6741 14.7051C10.6086 13.8931 11.6975 14.5287 12.9691 14.4261C14.2409 14.3235 15.2138 13.5217 15.2793 14.3333Z" fill="#460500"/>
<path id="Vector_55" d="M13.9619 15.2185C13.4211 15.2185 13.0833 15.6464 13.0833 15.6464C13.0833 15.6464 12.9255 15.5112 12.2947 15.4436C11.8376 15.3947 11.6767 15.759 11.6225 15.9638C12.052 16.2197 12.5886 16.3739 13.1513 16.3285C13.7153 16.2829 14.2096 16.0448 14.5803 15.7235C14.4863 15.5059 14.2983 15.2185 13.9619 15.2185Z" fill="url(#paint29_radial_113_383)"/>
<path id="Vector_56" d="M8.39251 17.6407C8.39251 17.6407 8.15589 16.9648 7.5814 16.9648C7.00685 16.9648 7.29416 18.8742 7.46316 19.7698" fill="url(#paint30_radial_113_383)"/>
<path id="Vector_57" d="M10.7862 23.9996C10.7862 23.9996 9.16421 24.1348 7.76731 20.9806C7.22657 19.6288 7.63206 18.5474 8.17286 17.466C8.71353 16.3846 9.56951 14.8076 10.1553 16.2044C10.7862 15.3933 11.6198 16.1369 11.265 16.7789C11.9409 16.4183 12.3803 17.3196 12.0254 17.8604C12.6844 17.8096 12.8589 18.5024 12.5886 19.0882C12.3182 19.6739 11.8226 20.4399 12.138 21.3862C12.4534 22.3324 13.2194 24.315 10.7862 23.9996Z" fill="url(#paint31_radial_113_383)"/>
<path id="Vector_58" d="M12.0255 17.8604C12.0503 17.8225 12.0704 17.7825 12.0877 17.7415C11.6827 18.3273 10.9825 19.3804 10.8779 19.822C10.776 20.2472 10.7419 20.537 10.7415 20.539C10.737 20.5761 10.7636 20.6097 10.8011 20.6142C10.8037 20.6145 10.8064 20.6146 10.8091 20.6146C10.8427 20.6146 10.8719 20.5894 10.8759 20.5549C10.8759 20.554 10.9092 20.2719 11.0095 19.8531C11.0697 19.5809 11.441 18.9575 11.7946 18.4191C11.9271 18.2165 12.0571 18.0242 12.168 17.8629C12.1231 17.8584 12.0762 17.8564 12.0255 17.8604ZM11.4079 16.7215C11.3615 16.735 11.3143 16.7528 11.2651 16.7789C11.2987 16.7181 11.3216 16.6564 11.335 16.5951C10.9324 17.1199 9.91716 18.4719 9.79657 18.9771C9.6945 19.4023 9.66019 19.6922 9.66019 19.6941C9.65589 19.7314 9.68199 19.7649 9.71947 19.7693C9.722 19.7696 9.72459 19.7697 9.72711 19.7697C9.76099 19.7697 9.7905 19.7444 9.79468 19.7103C9.79468 19.7091 9.82754 19.4271 9.92803 19.0082C9.98661 18.7401 10.4089 18.0889 10.8131 17.5258C11.0381 17.2108 11.2572 16.919 11.4079 16.7215ZM10.0884 16.0611C9.82981 16.3945 9.09113 17.3796 8.6191 18.3374C8.47759 18.6913 8.39379 19.1985 8.39328 19.2007C8.38715 19.2378 8.41199 19.2727 8.44877 19.2791C8.45256 19.2797 8.45623 19.2799 8.4599 19.2799C8.49238 19.2799 8.52133 19.2566 8.52682 19.2234C8.52682 19.2222 8.61151 18.719 8.74259 18.3924C9.18259 17.4987 9.86717 16.5719 10.1531 16.1991C10.1318 16.1489 10.1102 16.1035 10.0884 16.0611Z" fill="#EC8F23"/>
<path id="Vector_59" d="M13.9855 22.7605C13.9855 22.7605 13.3603 22.0847 13.58 20.378C13.7489 18.7389 13.5293 17.5223 13.7658 17.3535C14.0024 17.1845 14.9994 17.1168 14.7965 18.9418C14.7628 19.3304 14.9318 19.4656 14.9318 19.4656C14.9318 19.4656 15.3035 18.9756 15.5401 18.6207C15.5908 17.8434 15.4556 15.8834 15.709 15.5623C15.9626 15.2413 16.6046 15.2751 16.6722 15.8158C16.6722 15.8158 16.8074 15.3258 17.2297 15.4103C17.6522 15.4947 17.7705 15.8327 17.7874 16.12C17.7874 16.12 18.0071 15.8327 18.3957 16.1707C18.7843 16.5086 18.7168 17.2015 18.7168 17.2015C18.7168 17.2015 19.004 17.0324 19.2574 17.5224C19.5109 18.0125 19.2237 20.1415 19.021 20.6653C18.8181 21.1891 17.4157 23.8589 15.709 23.7576C14.408 23.6731 13.9855 22.7605 13.9855 22.7605Z" fill="url(#paint32_radial_113_383)"/>
<path id="Vector_60" d="M14.9318 19.4656C14.9318 19.4656 14.9233 19.4581 14.912 19.4451C14.9424 19.5124 14.9814 19.6067 15.0208 19.7242C15.1042 19.9716 15.1875 20.3161 15.1875 20.7029C15.1875 21.0328 15.1271 21.3924 14.9554 21.7512C14.939 21.7849 14.9531 21.8255 14.9869 21.8414C14.9963 21.8458 15.0062 21.848 15.0161 21.848C15.0413 21.848 15.0656 21.8338 15.0774 21.8097C15.259 21.43 15.323 21.0488 15.323 20.7029C15.3221 20.0673 15.1108 19.5495 15.0177 19.3514C14.9651 19.4216 14.9318 19.4656 14.9318 19.4656ZM17.7875 16.1199C17.7852 16.0788 17.7798 16.0365 17.7726 15.9942C17.6366 16.1618 17.5028 16.4596 17.4666 16.9935C17.424 17.5608 17.3987 18.1481 17.3588 18.6041C17.3388 18.8318 17.3154 19.027 17.2847 19.1679C17.265 19.2742 17.2313 19.346 17.2124 19.3743C16.9524 19.1561 16.6857 18.9922 16.4375 18.8699C16.5229 18.6676 16.6889 18.0892 16.6895 16.6213C16.6895 16.5677 16.6891 16.5131 16.6888 16.457C16.6885 16.4324 16.6885 16.4086 16.6885 16.3845C16.6885 16.0586 16.7076 15.8312 16.733 15.6732C16.6903 15.7512 16.6721 15.8158 16.6721 15.8158C16.6621 15.7361 16.6386 15.6687 16.6067 15.6105C16.5758 15.7805 16.5533 16.0245 16.5532 16.3845C16.5535 16.4082 16.5532 16.4331 16.5539 16.4591C16.5542 16.5138 16.5542 16.5681 16.5546 16.6213C16.5546 17.5774 16.4825 18.1491 16.4118 18.4787C16.3764 18.6436 16.3419 18.7476 16.3164 18.8094C16.316 18.8105 16.3156 18.811 16.3151 18.8122C15.9936 18.6668 15.7153 18.5909 15.5437 18.5532C15.5426 18.5764 15.5414 18.5993 15.54 18.6207C15.5268 18.6405 15.5131 18.6608 15.4991 18.6814C15.6171 18.7064 15.7948 18.7514 16.0105 18.8316C16.0921 18.862 16.1793 18.8986 16.269 18.9395C16.2725 18.9547 16.2802 18.969 16.2936 18.979C16.3058 18.9879 16.3201 18.9923 16.3343 18.9923C16.345 18.9923 16.3553 18.9896 16.3649 18.9848C16.6809 19.1391 17.0298 19.3611 17.3509 19.6822C17.3639 19.6954 17.3813 19.702 17.3986 19.702C17.4159 19.702 17.4333 19.6955 17.4465 19.6826C17.4727 19.656 17.4727 19.6131 17.4467 19.5867C17.403 19.5431 17.3583 19.5028 17.3137 19.4623C17.3656 19.4018 17.3887 19.3127 17.417 19.1962C17.5134 18.7452 17.5375 17.8516 17.6012 17.0034C17.6428 16.4464 17.7833 16.1753 17.903 16.045C17.9092 16.0383 17.915 16.0332 17.9209 16.0273C17.834 16.0603 17.7875 16.1199 17.7875 16.1199ZM18.7169 17.2014C18.7169 17.2014 18.7207 17.1607 18.7211 17.0955C18.7096 17.1008 18.6983 17.1053 18.6868 17.1116C18.5015 17.2113 18.3299 17.4352 18.2777 17.886C18.2099 18.6491 18.1928 18.9891 18.1761 19.3611C18.1603 19.7169 18.0115 20.0454 18.0129 20.0461C17.9974 20.0798 18.0129 20.1201 18.0467 20.1356C18.0557 20.1396 18.0651 20.1414 18.0744 20.1414C18.1002 20.1414 18.1247 20.1266 18.1362 20.1018C18.1378 20.0973 18.2929 19.7551 18.311 19.3673C18.3281 18.9958 18.3449 18.6598 18.4124 17.9001C18.4722 17.4177 18.6519 17.2654 18.8106 17.2033C18.84 17.192 18.8689 17.185 18.8972 17.1795C18.791 17.1582 18.7169 17.2014 18.7169 17.2014Z" fill="#EC8F23"/>
</g>
</g>
<defs>
<radialGradient id="paint0_radial_113_383" cx="0" cy="0" r="1" gradientUnits="userSpaceOnUse" gradientTransform="translate(12.778 9.98356) scale(12.3688 12.3688)">
<stop offset="0.0714" stop-color="#F9EC00"/>
<stop offset="0.3407" stop-color="#F2BE1D"/>
<stop offset="0.6868" stop-color="#ED9D23"/>
<stop offset="1" stop-color="#E87326"/>
</radialGradient>
<radialGradient id="paint1_radial_113_383" cx="0" cy="0" r="1" gradientUnits="userSpaceOnUse" gradientTransform="translate(10.2833 8.11583) rotate(3.2275) scale(1.25615)">
<stop offset="0.0714" stop-color="#F2BE1D"/>
<stop offset="0.6868" stop-color="#ED9D23"/>
<stop offset="1" stop-color="#E87326"/>
</radialGradient>
<radialGradient id="paint2_radial_113_383" cx="0" cy="0" r="1" gradientUnits="userSpaceOnUse" gradientTransform="translate(14.767 8.18422) rotate(166.043) scale(1.25599)">
<stop offset="0.0714" stop-color="#F2BE1D"/>
<stop offset="0.6868" stop-color="#ED9D23"/>
<stop offset="1" stop-color="#E87326"/>
</radialGradient>
<radialGradient id="paint3_radial_113_383" cx="0" cy="0" r="1" gradientUnits="userSpaceOnUse" gradientTransform="translate(11.3 19.0195) rotate(24.9776) scale(3.09461 3.34574)">
<stop stop-color="white"/>
<stop offset="1"/>
</radialGradient>
<radialGradient id="paint4_radial_113_383" cx="0" cy="0" r="1" gradientUnits="userSpaceOnUse" gradientTransform="translate(16.1766 18.8472) rotate(34.7053) scale(2.834 4.06061)">
<stop stop-color="white"/>
<stop offset="1"/>
</radialGradient>
<radialGradient id="paint5_radial_113_383" cx="0" cy="0" r="1" gradientUnits="userSpaceOnUse" gradientTransform="translate(9.58174 18.4644) rotate(-35.8971) scale(2.91967 2.87295)">
<stop stop-color="white"/>
<stop offset="1"/>
</radialGradient>
<radialGradient id="paint6_radial_113_383" cx="0" cy="0" r="1" gradientUnits="userSpaceOnUse" gradientTransform="translate(11.1415 9.55051) scale(5.43996)">
<stop offset="0.0714" stop-color="#F9EC00"/>
<stop offset="0.3407" stop-color="#F2BE1D"/>
<stop offset="0.6868" stop-color="#ED9D23"/>
<stop offset="1" stop-color="#E87326"/>
</radialGradient>
<radialGradient id="paint7_radial_113_383" cx="0" cy="0" r="1" gradientUnits="userSpaceOnUse" gradientTransform="translate(13.7267 5.13912) scale(6.22549)">
<stop stop-color="white"/>
<stop offset="1" stop-color="#CEDAD9"/>
</radialGradient>
<radialGradient id="paint8_radial_113_383" cx="0" cy="0" r="1" gradientUnits="userSpaceOnUse" gradientTransform="translate(14.4071 3.22666) scale(2.31746)">
<stop stop-color="#F1A7B8"/>
<stop offset="1" stop-color="#EE87A6"/>
</radialGradient>
<radialGradient id="paint9_radial_113_383" cx="0" cy="0" r="1" gradientUnits="userSpaceOnUse" gradientTransform="translate(17.7976 10.0852) scale(3.20393)">
<stop offset="0.0714" stop-color="#F9EC00"/>
<stop offset="0.3407" stop-color="#F2BE1D"/>
<stop offset="0.6868" stop-color="#ED9D23"/>
<stop offset="1" stop-color="#E87326"/>
</radialGradient>
<radialGradient id="paint10_radial_113_383" cx="0" cy="0" r="1" gradientUnits="userSpaceOnUse" gradientTransform="translate(18.2205 9.51588) scale(3.72249)">
<stop stop-color="white"/>
<stop offset="1" stop-color="#CEDAD9"/>
</radialGradient>
<radialGradient id="paint11_radial_113_383" cx="0" cy="0" r="1" gradientUnits="userSpaceOnUse" gradientTransform="translate(16.4329 7.39295) scale(1.02924)">
<stop stop-color="#F1A7B8"/>
<stop offset="1" stop-color="#EE87A6"/>
</radialGradient>
<radialGradient id="paint12_radial_113_383" cx="0" cy="0" r="1" gradientUnits="userSpaceOnUse" gradientTransform="translate(12.9978 4.99177) scale(5.38139)">
<stop stop-color="white"/>
<stop offset="1" stop-color="#CEDAD9"/>
</radialGradient>
<radialGradient id="paint13_radial_113_383" cx="0" cy="0" r="1" gradientUnits="userSpaceOnUse" gradientTransform="translate(13.5724 5.89766) scale(5.55389)">
<stop stop-color="white"/>
<stop offset="1" stop-color="#CEDAD9"/>
</radialGradient>
<radialGradient id="paint14_radial_113_383" cx="0" cy="0" r="1" gradientUnits="userSpaceOnUse" gradientTransform="translate(11.6675 8.21774) scale(7.21059)">
<stop stop-color="white"/>
<stop offset="1" stop-color="#CEDAD9"/>
</radialGradient>
<radialGradient id="paint15_radial_113_383" cx="0" cy="0" r="1" gradientUnits="userSpaceOnUse" gradientTransform="translate(11.9779 6.38751) scale(3.49056)">
<stop stop-color="#F1A7B8"/>
<stop offset="1" stop-color="#EE87A6"/>
</radialGradient>
<radialGradient id="paint16_radial_113_383" cx="0" cy="0" r="1" gradientUnits="userSpaceOnUse" gradientTransform="translate(4.32191 8.61254) scale(3.34802)">
<stop stop-color="#F1A7B8"/>
<stop offset="1" stop-color="#EE87A6"/>
</radialGradient>
<radialGradient id="paint17_radial_113_383" cx="0" cy="0" r="1" gradientUnits="userSpaceOnUse" gradientTransform="translate(21.293 10.9034) scale(1.72362 1.72362)">
<stop stop-color="#F1A7B8"/>
<stop offset="1" stop-color="#EE87A6"/>
</radialGradient>
<radialGradient id="paint18_radial_113_383" cx="0" cy="0" r="1" gradientUnits="userSpaceOnUse" gradientTransform="translate(9.18451 10.5366) rotate(-33.1787) scale(1.74606 1.8332)">
<stop offset="0.0714" stop-color="#F2BE1D"/>
<stop offset="0.6868" stop-color="#ED9D23"/>
<stop offset="1" stop-color="#E87326"/>
</radialGradient>
<radialGradient id="paint19_radial_113_383" cx="0" cy="0" r="1" gradientUnits="userSpaceOnUse" gradientTransform="translate(10.4277 11.877) rotate(-33.1787) scale(1.55148 1.62891)">
<stop offset="0.2802" stop-color="white"/>
<stop offset="0.648" stop-color="#FBFEFF"/>
<stop offset="0.7804" stop-color="#F3FAFE"/>
<stop offset="0.8749" stop-color="#E7F6FD"/>
<stop offset="0.9507" stop-color="#D6EFFB"/>
<stop offset="1" stop-color="#C5E9FA"/>
</radialGradient>
<radialGradient id="paint20_radial_113_383" cx="0" cy="0" r="1" gradientUnits="userSpaceOnUse" gradientTransform="translate(10.6788 12.1853) rotate(-33.18) scale(1.33513 1.41008)">
<stop offset="0.2802" stop-color="white"/>
<stop offset="0.6375" stop-color="#F8FAFC"/>
<stop offset="0.7662" stop-color="#EBF1F4"/>
<stop offset="0.8579" stop-color="#D7E4EB"/>
<stop offset="0.9315" stop-color="#BFD3DC"/>
<stop offset="0.9944" stop-color="#A0BDCB"/>
<stop offset="1" stop-color="#9DBBC9"/>
</radialGradient>
<radialGradient id="paint21_radial_113_383" cx="0" cy="0" r="1" gradientUnits="userSpaceOnUse" gradientTransform="translate(10.6398 12.044) rotate(-33.18) scale(1.28464)">
<stop offset="0.2802" stop-color="#9BB9C7"/>
<stop offset="0.6174" stop-color="#9AB7C5"/>
<stop offset="0.7389" stop-color="#96B3C0"/>
<stop offset="0.8255" stop-color="#8EAAB7"/>
<stop offset="0.8954" stop-color="#839DAA"/>
<stop offset="0.9547" stop-color="#768D99"/>
<stop offset="1" stop-color="#687E88"/>
</radialGradient>
<radialGradient id="paint22_radial_113_383" cx="0" cy="0" r="1" gradientUnits="userSpaceOnUse" gradientTransform="translate(16.9653 10.5366) rotate(-146.821) scale(1.74606 1.8332)">
<stop offset="0.0714" stop-color="#F2BE1D"/>
<stop offset="0.6868" stop-color="#ED9D23"/>
<stop offset="1" stop-color="#E87326"/>
</radialGradient>
<radialGradient id="paint23_radial_113_383" cx="0" cy="0" r="1" gradientUnits="userSpaceOnUse" gradientTransform="translate(15.7223 11.877) rotate(-146.821) scale(1.55149 1.62892)">
<stop offset="0.2802" stop-color="white"/>
<stop offset="0.648" stop-color="#FBFEFF"/>
<stop offset="0.7804" stop-color="#F3FAFE"/>
<stop offset="0.8749" stop-color="#E7F6FD"/>
<stop offset="0.9507" stop-color="#D6EFFB"/>
<stop offset="1" stop-color="#C5E9FA"/>
</radialGradient>
<radialGradient id="paint24_radial_113_383" cx="0" cy="0" r="1" gradientUnits="userSpaceOnUse" gradientTransform="translate(15.4711 12.1854) rotate(-146.82) scale(1.33513 1.41008)">
<stop offset="0.2802" stop-color="white"/>
<stop offset="0.6375" stop-color="#F8FAFC"/>
<stop offset="0.7662" stop-color="#EBF1F4"/>
<stop offset="0.8579" stop-color="#D7E4EB"/>
<stop offset="0.9315" stop-color="#BFD3DC"/>
<stop offset="0.9944" stop-color="#A0BDCB"/>
<stop offset="1" stop-color="#9DBBC9"/>
</radialGradient>
<radialGradient id="paint25_radial_113_383" cx="0" cy="0" r="1" gradientUnits="userSpaceOnUse" gradientTransform="translate(15.5102 12.044) rotate(-146.82) scale(1.28463)">
<stop offset="0.2802" stop-color="#9BB9C7"/>
<stop offset="0.6174" stop-color="#9AB7C5"/>
<stop offset="0.7389" stop-color="#96B3C0"/>
<stop offset="0.8255" stop-color="#8EAAB7"/>
<stop offset="0.8954" stop-color="#839DAA"/>
<stop offset="0.9547" stop-color="#768D99"/>
<stop offset="1" stop-color="#687E88"/>
</radialGradient>
<radialGradient id="paint26_radial_113_383" cx="0" cy="0" r="1" gradientUnits="userSpaceOnUse" gradientTransform="translate(10.5824 14.903) scale(2.09114 1.4987)">
<stop stop-color="white"/>
<stop offset="1"/>
</radialGradient>
<radialGradient id="paint27_radial_113_383" cx="0" cy="0" r="1" gradientUnits="userSpaceOnUse" gradientTransform="translate(15.2122 14.8355) scale(2.0911 1.49868)">
<stop stop-color="white"/>
<stop offset="1"/>
</radialGradient>
<radialGradient id="paint28_radial_113_383" cx="0" cy="0" r="1" gradientUnits="userSpaceOnUse" gradientTransform="translate(13.1021 10.8402) rotate(0.0332825) scale(4.61031 4.64512)">
<stop offset="0.0714" stop-color="#F2BE1D"/>
<stop offset="0.6868" stop-color="#ED9D23"/>
<stop offset="1" stop-color="#E87326"/>
</radialGradient>
<radialGradient id="paint29_radial_113_383" cx="0" cy="0" r="1" gradientUnits="userSpaceOnUse" gradientTransform="translate(13.0157 15.2409) scale(1.55449)">
<stop offset="0.0055" stop-color="#EF3C2E"/>
<stop offset="0.2321" stop-color="#EB3A2D"/>
<stop offset="0.4075" stop-color="#E2362B"/>
<stop offset="0.5656" stop-color="#D63026"/>
<stop offset="0.7136" stop-color="#C32620"/>
<stop offset="0.8546" stop-color="#AC1A17"/>
<stop offset="0.9885" stop-color="#910708"/>
<stop offset="1" stop-color="#8F0507"/>
</radialGradient>
<radialGradient id="paint30_radial_113_383" cx="0" cy="0" r="1" gradientUnits="userSpaceOnUse" gradientTransform="translate(6.92239 15.8834) scale(3.77784)">
<stop offset="0.0714" stop-color="#F9EC00"/>
<stop offset="0.3407" stop-color="#F2BE1D"/>
<stop offset="0.6868" stop-color="#ED9D23"/>
<stop offset="1" stop-color="#E87326"/>
</radialGradient>
<radialGradient id="paint31_radial_113_383" cx="0" cy="0" r="1" gradientUnits="userSpaceOnUse" gradientTransform="translate(10.1323 17.7154) scale(5.57912)">
<stop offset="0.0714" stop-color="#F9EC00"/>
<stop offset="0.3407" stop-color="#F2BE1D"/>
<stop offset="0.6868" stop-color="#ED9D23"/>
<stop offset="1" stop-color="#E87326"/>
</radialGradient>
<radialGradient id="paint32_radial_113_383" cx="0" cy="0" r="1" gradientUnits="userSpaceOnUse" gradientTransform="translate(13.625 12.6448) scale(12.1985)">
<stop offset="0.0714" stop-color="#F9EC00"/>
<stop offset="0.3407" stop-color="#F2BE1D"/>
<stop offset="0.6868" stop-color="#ED9D23"/>
<stop offset="1" stop-color="#E87326"/>
</radialGradient>
</defs>
</svg>
