<svg width="25" height="25" viewBox="0 0 25 25" fill="none" xmlns="http://www.w3.org/2000/svg">
<g id="Group 1000002656">
<rect id="Rectangle_60" width="25" height="25" rx="12.5" fill="#F2F2F2"/>
<g id="Group 1000002630">
<path id="Vector" d="M12.5839 20.6967C16.6209 20.6967 19.8936 17.424 19.8936 13.387C19.8936 9.34994 16.6209 6.07727 12.5839 6.07727C8.54684 6.07727 5.27417 9.34994 5.27417 13.387C5.27417 17.424 8.54684 20.6967 12.5839 20.6967Z" fill="url(#paint0_radial_113_199)"/>
<g id="Mask group">
<mask id="mask0_113_199" style="mask-type:luminance" maskUnits="userSpaceOnUse" x="7" y="12" width="5" height="3">
<g id="Group" opacity="0.72">
<g id="Group_2">
<path id="Vector_2" d="M11.368 13.6825C11.2675 14.2797 10.408 14.6326 9.44841 14.4714C8.48887 14.3096 7.79258 13.6948 7.89307 13.0979C7.99344 12.5009 8.85294 12.1474 9.81243 12.3089C10.772 12.4705 11.4683 13.0858 11.368 13.6825Z" fill="url(#paint1_radial_113_199)"/>
</g>
</g>
</mask>
<g mask="url(#mask0_113_199)">
<path id="Vector_3" opacity="0.72" d="M11.368 13.6825C11.2675 14.2797 10.408 14.6326 9.44841 14.4714C8.48887 14.3096 7.79258 13.6948 7.89307 13.0979C7.99344 12.5009 8.85294 12.1474 9.81243 12.3089C10.772 12.4705 11.4683 13.0858 11.368 13.6825Z" fill="#ED1C24"/>
</g>
</g>
<g id="Mask group_2">
<mask id="mask1_113_199" style="mask-type:luminance" maskUnits="userSpaceOnUse" x="14" y="12" width="4" height="3">
<g id="Group_3" opacity="0.72">
<g id="Group_4">
<path id="Vector_4" d="M17.753 12.804C17.9155 13.3874 17.2874 14.072 16.3499 14.3332C15.4125 14.5941 14.5211 14.333 14.3587 13.7499C14.1962 13.1668 14.8243 12.4819 15.7616 12.2208C16.699 11.9598 17.5905 12.2214 17.753 12.804Z" fill="url(#paint2_radial_113_199)"/>
</g>
</g>
</mask>
<g mask="url(#mask1_113_199)">
<path id="Vector_5" opacity="0.72" d="M17.7525 12.8039C17.915 13.3873 17.2869 14.0718 16.3494 14.3331C15.412 14.5939 14.5206 14.3328 14.3583 13.7498C14.1957 13.1666 14.8239 12.4818 15.7611 12.2207C16.6985 11.9597 17.5901 12.2213 17.7525 12.8039Z" fill="#ED1C24"/>
</g>
</g>
<g id="Group_5">
<g id="Group_6">
<path id="Vector_6" d="M16.2462 13.1722C16.2721 13.2331 14.7867 14.3773 12.8357 14.4048C10.885 14.4582 9.35372 13.3762 9.3771 13.3143C9.3901 13.2241 10.9133 13.8803 12.8236 13.8262C14.7346 13.8013 16.2295 13.0826 16.2462 13.1722Z" fill="#FFF200"/>
</g>
</g>
<g id="Group_7">
<g id="Group_8">
<path id="Vector_7" d="M16.2875 13.1146C16.3134 13.1777 14.7828 14.2007 12.8318 14.2278C10.8811 14.2815 9.3685 13.3214 9.39187 13.2574C9.40488 13.1641 10.8875 13.5954 12.7979 13.5406C14.7088 13.5163 16.2707 13.022 16.2875 13.1146Z" fill="url(#paint3_radial_113_199)"/>
</g>
</g>
<path id="Vector_8" d="M16.2458 13.1709C16.2715 13.2225 14.7827 14.1986 12.8316 14.228C10.881 14.2793 9.35318 13.3657 9.37661 13.313C9.39 13.2364 10.9109 13.7888 12.8215 13.7367C14.7323 13.7097 16.2293 13.0949 16.2458 13.1709Z" fill="#601B05"/>
<path id="Vector_9" d="M10.7516 8.84762C10.7516 8.84762 9.56212 8.6736 8.96924 9.56628C8.96924 9.56628 9.79423 8.95405 10.9094 9.0595C10.9466 8.88493 10.7516 8.84762 10.7516 8.84762Z" fill="url(#paint4_radial_113_199)"/>
<path id="Vector_10" d="M10.7921 8.90925C10.7921 8.90925 9.64982 8.81532 8.94482 9.60212C8.94482 9.60212 9.75422 9.04011 10.8694 9.1455C11.0245 8.9776 10.7921 8.90925 10.7921 8.90925Z" fill="#FFF200"/>
<path id="Vector_11" d="M10.7745 8.89762C10.7745 8.89762 9.60098 8.77238 8.93628 9.61077C8.93628 9.61077 9.74617 8.9916 10.8614 9.09705C11.0027 8.96277 10.7745 8.89762 10.7745 8.89762Z" fill="#601B05"/>
<path id="Vector_12" d="M14.2475 8.94628C14.2475 8.94628 15.3837 8.55377 16.1323 9.3205C16.1323 9.3205 15.2079 8.87248 14.1318 9.18385C14.0627 9.01926 14.2475 8.94628 14.2475 8.94628Z" fill="url(#paint5_radial_113_199)"/>
<path id="Vector_13" d="M14.2186 9.01406C14.2186 9.01406 15.3237 8.70908 16.1627 9.35091C16.1627 9.35091 15.2629 8.9493 14.1868 9.26062C14.0031 9.12458 14.2186 9.01406 14.2186 9.01406Z" fill="#FFF200"/>
<path id="Vector_14" d="M14.234 8.99937C14.234 8.99937 15.3636 8.65773 16.1728 9.35777C16.1728 9.35777 15.2619 8.90021 14.1857 9.21142C14.022 9.10581 14.234 8.99937 14.234 8.99937Z" fill="#601B05"/>
<g id="Mask group_3">
<mask id="mask2_113_199" style="mask-type:luminance" maskUnits="userSpaceOnUse" x="5" y="16" width="8" height="6">
<g id="Group_9" opacity="0.87">
<g id="Group_10">
<path id="Vector_15" d="M12.081 20.5521C11.639 21.5011 9.93028 21.6418 8.26474 20.8659C6.59909 20.09 5.60747 18.6915 6.04954 17.7423C6.49155 16.7934 8.2003 16.6527 9.86562 17.4287C11.5315 18.2045 12.5231 19.6031 12.081 20.5521Z" fill="url(#paint6_radial_113_199)"/>
</g>
</g>
</mask>
<g mask="url(#mask2_113_199)">
<path id="Vector_16" opacity="0.87" d="M12.081 20.5521C11.639 21.5011 9.93028 21.6418 8.26474 20.8659C6.59909 20.09 5.60747 18.6915 6.04954 17.7423C6.49155 16.7934 8.2003 16.6527 9.86562 17.4287C11.5315 18.2045 12.5231 19.6031 12.081 20.5521Z" fill="#ED1C24"/>
</g>
</g>
<g id="Mask group_4">
<mask id="mask3_113_199" style="mask-type:luminance" maskUnits="userSpaceOnUse" x="11" y="15" width="8" height="6">
<g id="Group_11" opacity="0.87">
<g id="Group_12">
<path id="Vector_17" d="M18.0385 16.9549C18.4775 18.3085 17.302 19.9029 15.4129 20.5155C13.5238 21.128 11.6364 20.5266 11.1975 19.1729C10.7585 17.8192 11.934 16.2248 13.8231 15.6123C15.7122 14.9999 17.5997 15.6012 18.0385 16.9549Z" fill="url(#paint7_radial_113_199)"/>
</g>
</g>
</mask>
<g mask="url(#mask3_113_199)">
<path id="Vector_18" opacity="0.87" d="M18.0381 16.9548C18.477 18.3085 17.3015 19.9028 15.4124 20.5154C13.5233 21.1279 11.6359 20.5265 11.197 19.1728C10.758 17.8192 11.9335 16.2248 13.8226 15.6123C15.7117 14.9998 17.5992 15.6011 18.0381 16.9548Z" fill="#ED1C24"/>
</g>
</g>
<path id="Vector_19" d="M5.32727 12.5139C5.98101 10.2432 7.23865 9.06417 11.7533 8.53159C13.9024 8.27803 15.7312 8.01351 17.1026 7.64408C15.8587 6.66381 14.29 6.07727 12.5833 6.07727C8.84201 6.07733 5.75914 8.88894 5.32727 12.5139Z" fill="url(#paint8_radial_113_199)"/>
<path id="Vector_20" d="M6.46252 5.0603C6.46252 5.0603 6.68135 3.29482 8.85693 2.71429C11.0325 2.13354 13.6428 2.21671 14.2577 2.70023C14.8727 3.18403 16.8765 2.83126 17.4123 4.06894C17.9483 5.30691 19.008 5.90977 19.008 5.90977C19.008 5.90977 21.0339 6.88519 20.3274 8.58848" fill="url(#paint9_radial_113_199)"/>
<path id="Vector_21" d="M15.4134 5.25212L16.5137 4.74115C16.3026 4.12677 15.7817 3.49376 15.3042 3.00672C14.8664 2.9377 14.4755 2.87112 14.2582 2.70024C13.8981 2.41703 12.8536 2.27146 11.6133 2.31594C13.0949 2.93423 15.4134 5.25212 15.4134 5.25212Z" fill="url(#paint10_radial_113_199)"/>
<path id="Vector_22" d="M16.129 6.99451L14.2 7.68903C14.2 7.68903 17.1767 8.34899 18.4985 10.139C19.3467 11.2879 19.6985 12.0966 19.842 12.5293C19.5629 10.1442 18.1369 8.11043 16.129 6.99451Z" fill="url(#paint11_radial_113_199)"/>
<path id="Vector_23" d="M14.1603 7.25648C14.1603 7.25648 17.1371 7.9165 18.4588 9.70661C19.7806 11.4969 19.8416 12.529 19.8416 12.529C19.8416 12.529 21.0911 11.1179 20.4211 8.81822C19.7514 6.51852 17.6471 6.0011 17.6471 6.0011" fill="url(#paint12_radial_113_199)"/>
<path id="Vector_24" d="M14.9006 7.46761C15.3993 7.63044 16.0865 7.89408 16.7598 8.27838C16.6481 7.55674 16.6708 6.54907 16.6708 6.54907L14.9006 7.46761Z" fill="url(#paint13_radial_113_199)"/>
<path id="Vector_25" d="M15.7014 4.67471C15.2683 3.84249 14.063 2.88758 13.4078 2.40769C13.3279 2.39408 13.2436 2.3819 13.1562 2.37109C13.367 2.52124 13.688 2.75793 14.0347 3.0428C14.6366 3.53575 15.311 4.1741 15.5967 4.72884L15.7014 4.67471Z" fill="#F6D5D1"/>
<path id="Vector_26" d="M18.3294 8.01587L17.9 7.36627L18.4392 6.8053L18.1289 6.17968C18.0688 6.15245 18.013 6.12875 17.962 6.10852L18.2969 6.78364L17.7496 7.35244L18.185 8.01119L17.7076 8.63913L18.2116 9.24568L18.1526 9.34291C18.1807 9.37262 18.2082 9.40299 18.2353 9.43342L18.356 9.23487L17.858 8.63576L18.3294 8.01587ZM18.7236 8.05286L18.2943 7.40326L18.8335 6.84229L18.6412 6.45507C18.5776 6.41521 18.5149 6.37768 18.4544 6.34383L18.6908 6.82041L18.1439 7.3897L18.579 8.04845L18.1017 8.67617L18.6057 9.28294L18.3966 9.62722C18.4172 9.65363 18.4387 9.6797 18.4586 9.70665C18.4638 9.71354 18.4685 9.72021 18.4735 9.72732L18.7503 9.27213L18.2523 8.67297L18.7236 8.05286Z" fill="#DA6788"/>
<path id="Vector_27" opacity="0.45" d="M13.7977 5.58584L13.0347 5.38041L12.97 4.59378L12.1881 4.48397L12.0336 3.71052L11.245 3.68676L11.011 2.93403L10.2247 2.99295L9.99322 2.47481C9.95293 2.48126 9.91274 2.48777 9.87256 2.49466L10.1508 3.11653L10.9263 3.05833L11.1575 3.80229L11.9363 3.82555L12.0891 4.58937L12.8602 4.69735L12.9238 5.4729L13.6751 5.67459L13.6359 6.45113L14.3496 6.75744L14.289 7.05179L14.4034 7.08095L14.4846 6.68716L13.7575 6.37496L13.7977 5.58584ZM14.0462 6.10442L14.0862 5.31476L13.3232 5.10965L13.2588 4.32302L12.4769 4.21317L12.3221 3.43971L11.5338 3.41623L11.2995 2.66327L10.5133 2.72198L10.3779 2.4187C10.3372 2.42405 10.2964 2.42945 10.2558 2.43529L10.4394 2.84611L11.215 2.78757L11.4464 3.53154L12.2251 3.55486L12.3779 4.31845L13.149 4.42643L13.2126 5.20198L13.9636 5.40416L13.9243 6.18038L14.6383 6.48663L14.5105 7.10812L14.6247 7.13711L14.773 6.41641L14.0462 6.10442Z" fill="#DA6788"/>
<path id="Vector_28" d="M19.2061 6.02031C19.0867 5.94755 19.0086 5.9098 19.0086 5.9098C19.0086 5.9098 17.9489 5.30694 17.413 4.06897C17.3349 3.88867 17.225 3.74288 17.0933 3.62244C16.7918 3.67425 16.4417 3.78389 16.0303 3.95217C14.7361 4.48227 13.2866 4.29762 11.038 3.68803C9.24779 3.20308 8.05183 3.59686 7.01319 3.86767C6.5365 4.47511 6.46313 5.06027 6.46313 5.06027L14.7945 7.18039C17.0685 6.80805 18.6299 6.26455 19.2061 6.02031Z" fill="url(#paint14_radial_113_199)"/>
<path id="Vector_29" d="M15.9246 7.84575C17.5679 7.43984 19.5379 6.84321 19.9626 6.64328C19.5391 6.16577 19.0088 5.90968 19.0088 5.90968C19.0088 5.90968 18.1249 5.40466 17.5635 4.37329C17.2867 4.44103 16.9739 4.55243 16.6141 4.71135C15.3113 5.28637 13.83 5.15226 11.5226 4.62134C9.25421 4.09928 7.9469 4.88586 6.70911 5.12283L15.9246 7.84575Z" fill="url(#paint15_radial_113_199)"/>
<path id="Vector_30" d="M5.19507 12.3263C5.19507 12.3263 3.10786 11.2762 4.12567 8.33386C4.0684 7.40634 4.95667 4.93091 6.18967 4.71373C7.42273 4.49666 8.70887 3.67779 10.9757 4.21599C13.2423 4.7543 14.697 4.89298 15.9738 4.32259C17.2507 3.7522 17.9438 3.778 18.4216 4.38471C18.8993 4.99149 19.7611 5.97435 19.4266 6.18138C19.0923 6.38836 15.9902 7.72416 11.2818 8.06013C6.57348 8.39614 5.90244 10.2235 5.66668 11.0686C5.45359 11.8326 5.41125 12.5029 5.19507 12.3263Z" fill="url(#paint16_radial_113_199)"/>
<path id="Vector_31" d="M15.7 4.43188C14.849 4.73952 13.9018 4.75451 12.6858 4.56362C10.8231 5.43376 8.64048 8.07797 8.1886 8.64192C8.95406 8.36675 9.95831 8.15437 11.2816 8.06C11.6481 8.03371 12.0037 8.00108 12.3502 7.96376C12.6343 7.57042 13.0805 7.06479 13.7622 6.54897C14.9322 5.66356 15.5162 4.75401 15.7 4.43188Z" fill="url(#paint17_radial_113_199)"/>
<path id="Vector_32" d="M9.75487 4.04176L9.62242 4.42821L8.83149 4.45527L8.6992 5.23479L7.92232 5.38125L7.90209 6.1713L7.15228 6.41885L7.2294 7.20449L6.51376 7.53637L6.67582 8.30823L5.9991 8.7126L6.24086 9.46329L5.61777 9.94433L5.82282 10.6095C5.84465 10.5576 5.86984 10.5036 5.89674 10.4491L5.75458 9.9876L6.37871 9.5059L6.14015 8.76579L6.80871 8.366L6.64864 7.60378L7.35485 7.27615L7.279 6.50103L8.01768 6.25718L8.0378 5.47959L8.80167 5.33567L8.93181 4.56976L9.7078 4.54308L9.87708 4.0487C9.83601 4.04583 9.79511 4.04363 9.75487 4.04176ZM6.04777 9.28889L5.80931 8.54856L6.47766 8.14904L6.31764 7.38688L7.02396 7.05924L6.94773 6.28413L7.68668 6.04L7.70669 5.26258L8.47067 5.11843L8.60064 4.35253L9.37658 4.32612L9.47591 4.03613C9.43363 4.03635 9.39207 4.03729 9.35067 4.03823L9.29147 4.21114L8.50043 4.2381L8.36814 5.018L7.59132 5.16424L7.57093 5.95385L6.82134 6.20156L6.89828 6.98726L6.1827 7.3193L6.34503 8.09111L5.6682 8.49548L5.90996 9.24595L5.28699 9.72699L5.62973 10.8399L5.74245 10.8051L5.42358 9.77043L6.04777 9.28889Z" fill="#DA6788"/>
<path id="Vector_33" d="M10.5879 8.12445C10.8323 7.83732 11.1876 7.42998 11.6098 6.97705C12.3198 6.21533 13.2154 5.32921 14.0701 4.68859C14.0076 4.68837 13.9449 4.68765 13.8809 4.68567C12.4781 5.76814 11.0126 7.4383 10.417 8.14352C10.4727 8.1369 10.5309 8.13095 10.5879 8.12445Z" fill="#F6D5D1"/>
<path id="Vector_34" d="M5.91192 10.4186C4.38429 10.0769 4.24396 8.51374 4.33061 8.0521C4.74319 5.75312 6.68852 4.60357 6.68852 4.60357L6.68416 4.6001C6.51698 4.64546 6.35278 4.68482 6.18967 4.71359C4.95667 4.93077 4.0684 7.4062 4.12567 8.33372C3.10786 11.2761 5.19507 12.3262 5.19507 12.3262C5.41125 12.5028 5.45353 11.8325 5.66674 11.0684C5.7169 10.8886 5.78734 10.6638 5.91192 10.4186Z" fill="url(#paint18_radial_113_199)"/>
<path id="Vector_35" d="M3.92346 9.08277C3.94744 9.80034 4.25342 10.8335 5.59682 11.3392C5.6062 11.3008 5.61584 11.2621 5.62582 11.2229C4.27381 10.706 4.04302 9.66447 4.03938 8.97226C4.03938 8.75811 4.06264 8.58244 4.08326 8.4668C4.0143 8.6821 3.96089 8.88798 3.92346 9.08277Z" fill="#F6D5D1"/>
<path id="Vector_36" d="M20.2858 8.42466C20.2855 8.42367 20.2851 8.42257 20.2847 8.42163C20.2673 9.42009 20.0348 10.6587 19.5198 11.4815C19.8195 12.1603 19.8415 12.5292 19.8415 12.5292C19.8415 12.5292 20.7289 11.5268 20.6069 9.83532C20.5836 9.51711 20.5256 9.17717 20.4211 8.81845C20.4009 8.74888 20.3792 8.68125 20.3564 8.61489C20.3341 8.5499 20.3104 8.48662 20.2858 8.42466Z" fill="url(#paint19_radial_113_199)"/>
<g id="Mask group_5">
<mask id="mask4_113_199" style="mask-type:luminance" maskUnits="userSpaceOnUse" x="7" y="18" width="5" height="4">
<g id="Group_13" opacity="0.87">
<g id="Group_14">
<path id="Vector_37" d="M11.7196 21.4C11.2277 22.1022 9.94595 22.0532 8.85698 21.2904C7.7679 20.5276 7.28427 19.3397 7.77617 18.6377C8.26785 17.9354 9.54958 17.9843 10.6387 18.747C11.7275 19.5099 12.2114 20.6978 11.7196 21.4Z" fill="url(#paint20_radial_113_199)"/>
</g>
</g>
</mask>
<g mask="url(#mask4_113_199)">
<path id="Vector_38" opacity="0.87" d="M11.7196 21.4C11.2277 22.1022 9.94595 22.0532 8.85698 21.2904C7.7679 20.5276 7.28427 19.3397 7.77617 18.6377C8.26785 17.9354 9.54958 17.9843 10.6387 18.747C11.7275 19.5099 12.2114 20.6978 11.7196 21.4Z" fill="#ED1C24"/>
</g>
</g>
<g id="Mask group_6">
<mask id="mask5_113_199" style="mask-type:luminance" maskUnits="userSpaceOnUse" x="14" y="17" width="3" height="5">
<g id="Group_15" opacity="0.87">
<g id="Group_16">
<path id="Vector_39" d="M16.0433 17.5637C16.532 17.7179 16.6333 18.7794 16.269 19.9347C15.9047 21.0898 15.2129 21.9014 14.7239 21.7471C14.235 21.5929 14.1337 20.5315 14.498 19.3763C14.8624 18.221 15.5542 17.4095 16.0433 17.5637Z" fill="url(#paint21_radial_113_199)"/>
</g>
</g>
</mask>
<g mask="url(#mask5_113_199)">
<path id="Vector_40" opacity="0.87" d="M16.0433 17.5637C16.532 17.7179 16.6333 18.7794 16.269 19.9347C15.9047 21.0898 15.2129 21.9014 14.7239 21.7471C14.235 21.5929 14.1337 20.5315 14.498 19.3763C14.8624 18.221 15.5542 17.4095 16.0433 17.5637Z" fill="#ED1C24"/>
</g>
</g>
<path id="Vector_41" d="M11.6802 10.415C12.1884 11.1806 12.0917 12.1708 11.376 12.5105C10.6627 12.8532 9.70009 12.5471 9.31441 11.943C8.92614 11.336 9.16222 10.5299 9.75317 10.0257C10.3467 9.52423 11.1698 9.64638 11.6802 10.415Z" fill="url(#paint22_radial_113_199)"/>
<path id="Vector_42" d="M11.7718 10.5292C12.2798 11.2947 12.1833 12.2849 11.4675 12.6245C10.7543 12.9671 9.79186 12.6611 9.40596 12.0572C9.01775 11.4502 9.25366 10.6438 9.84467 10.1397C10.4382 9.63836 11.2614 9.76062 11.7718 10.5292Z" fill="#FFF200"/>
<path id="Vector_43" d="M11.6649 10.5055C12.1505 11.2373 12.0582 12.1836 11.3741 12.5084C10.6924 12.8358 9.77245 12.5433 9.40358 11.9659C9.03261 11.3859 9.25817 10.6151 9.8231 10.1332C10.3904 9.65404 11.1769 9.77095 11.6649 10.5055Z" fill="url(#paint23_radial_113_199)"/>
<path id="Vector_44" d="M11.2331 10.0524C11.3579 10.15 11.4753 10.2749 11.5766 10.4275C12.0572 11.1484 11.9743 12.1021 11.2919 12.4332C10.7882 12.6893 10.1418 12.5865 9.7157 12.303C10.1438 12.6251 10.8311 12.7553 11.3621 12.4893C12.047 12.1609 12.1288 11.2065 11.6446 10.4808C11.5248 10.3005 11.3835 10.1564 11.2331 10.0524Z" fill="url(#paint24_radial_113_199)"/>
<path id="Vector_45" d="M11.4502 10.8293C11.7699 11.2157 11.7033 11.7982 11.302 12.1303C10.9004 12.4626 10.3159 12.4186 9.9963 12.0323C9.67643 11.6459 9.74274 11.0635 10.1444 10.7313C10.546 10.3989 11.1304 10.4429 11.4502 10.8293Z" fill="url(#paint25_radial_113_199)"/>
<path id="Vector_46" d="M11.1932 11.0423C11.3994 11.292 11.3567 11.6685 11.0973 11.8832C10.8379 12.0977 10.4599 12.0694 10.2534 11.8194C10.0471 11.5701 10.0898 11.1935 10.349 10.979C10.6086 10.7643 10.9864 10.7927 11.1932 11.0423Z" fill="#3C2415"/>
<path id="Vector_47" d="M10.3828 10.8438C10.5072 10.9938 10.4813 11.2203 10.3252 11.3495C10.1691 11.479 9.9419 11.4615 9.81744 11.3115C9.69336 11.1611 9.71899 10.9346 9.87515 10.8056C10.0314 10.6765 10.2586 10.6934 10.3828 10.8438Z" fill="#F2F2F2"/>
<path id="Vector_48" d="M11.286 11.2092C11.3371 11.2704 11.3264 11.3628 11.2627 11.4153C11.1991 11.4683 11.1063 11.4612 11.0556 11.4C11.0051 11.3388 11.0156 11.2465 11.0792 11.1936C11.1429 11.1412 11.2354 11.1481 11.286 11.2092Z" fill="#F2F2F2"/>
<path id="Vector_49" d="M14.1328 10.3363C13.6246 11.1018 13.7213 12.092 14.437 12.4318C15.1504 12.7744 16.1129 12.4684 16.4986 11.8642C16.8868 11.2573 16.6508 10.4511 16.0598 9.94692C15.4663 9.44548 14.6432 9.56768 14.1328 10.3363Z" fill="url(#paint26_radial_113_199)"/>
<path id="Vector_50" d="M14.0411 10.4506C13.5331 11.2161 13.6296 12.2063 14.3454 12.546C15.0585 12.8885 16.0211 12.5826 16.4069 11.9787C16.7951 11.3716 16.5592 10.5652 15.9682 10.0611C15.3748 9.55973 14.5515 9.68199 14.0411 10.4506Z" fill="#FFF200"/>
<path id="Vector_51" d="M14.1479 10.4267C13.6623 11.1585 13.7546 12.1048 14.4387 12.4297C15.1204 12.757 16.0404 12.4644 16.4093 11.8871C16.7802 11.3071 16.5547 10.5363 15.9897 10.0544C15.4224 9.57538 14.6359 9.69218 14.1479 10.4267Z" fill="url(#paint27_radial_113_199)"/>
<path id="Vector_52" d="M14.58 9.97375C14.4551 10.0714 14.3377 10.1963 14.2365 10.3489C13.7559 11.0698 13.8388 12.0235 14.5212 12.3546C15.0248 12.6107 15.6713 12.5079 16.0974 12.2243C15.6693 12.5465 14.982 12.6767 14.451 12.4107C13.766 12.0822 13.6842 11.1279 14.1684 10.4022C14.2882 10.222 14.4295 10.0778 14.58 9.97375Z" fill="url(#paint28_radial_113_199)"/>
<path id="Vector_53" d="M14.3631 10.7508C14.0434 11.1372 14.11 11.7198 14.5114 12.0519C14.913 12.3842 15.4974 12.3402 15.817 11.9538C16.1369 11.5674 16.0706 10.9851 15.669 10.6528C15.2675 10.3206 14.683 10.3644 14.3631 10.7508Z" fill="url(#paint29_radial_113_199)"/>
<path id="Vector_54" d="M14.6204 10.9636C14.4141 11.2133 14.4569 11.5897 14.7163 11.8045C14.9757 12.019 15.3536 11.9906 15.5601 11.7407C15.7664 11.4913 15.7238 11.1147 15.4645 10.9002C15.205 10.6856 14.8272 10.714 14.6204 10.9636Z" fill="#3C2415"/>
<path id="Vector_55" d="M15.4606 10.8347C15.326 10.9969 15.3542 11.2419 15.523 11.3816C15.6918 11.5217 15.9376 11.5028 16.0721 11.3406C16.2064 11.1778 16.1787 10.9329 16.0097 10.7931C15.8408 10.6537 15.595 10.6719 15.4606 10.8347Z" fill="#F2F2F2"/>
<path id="Vector_56" d="M14.5271 11.1305C14.4759 11.1918 14.4867 11.2841 14.5504 11.3366C14.6141 11.3896 14.7067 11.3825 14.7575 11.3213C14.8079 11.2602 14.7975 11.1678 14.7339 11.1149C14.6702 11.0625 14.5776 11.0694 14.5271 11.1305Z" fill="#F2F2F2"/>
<g id="Mask group_7">
<mask id="mask6_113_199" style="mask-type:luminance" maskUnits="userSpaceOnUse" x="7" y="13" width="6" height="7">
<g id="Group_17" opacity="0.87">
<g id="Group_18">
<path id="Vector_57" d="M10.1408 19.4573C8.69401 19.4108 7.56172 18.1137 7.61105 16.56C7.6611 15.0064 8.87492 13.7847 10.322 13.8314C11.7684 13.8777 12.9012 15.1747 12.8511 16.7284C12.8014 18.282 11.5876 19.5039 10.1408 19.4573Z" fill="url(#paint30_radial_113_199)"/>
</g>
</g>
</mask>
<g mask="url(#mask6_113_199)">
<path id="Vector_58" opacity="0.87" d="M10.1403 19.4574C8.69352 19.411 7.56123 18.1138 7.61056 16.5601C7.66061 15.0065 8.87443 13.7848 10.3215 13.8315C11.768 13.8779 12.9007 15.1748 12.8506 16.7285C12.8009 18.2821 11.5871 19.504 10.1403 19.4574Z" fill="#ED1C24"/>
</g>
</g>
<g id="Mask group_8">
<mask id="mask7_113_199" style="mask-type:luminance" maskUnits="userSpaceOnUse" x="10" y="13" width="6" height="6">
<g id="Group_19" opacity="0.87">
<g id="Group_20">
<path id="Vector_59" d="M12.8128 18.986C11.3661 18.9394 10.2337 17.6423 10.283 16.0886C10.3331 14.535 11.5469 13.3134 12.994 13.3599C14.4404 13.4064 15.5732 14.7033 15.5231 16.257C15.4733 17.8105 14.2596 19.0324 12.8128 18.986Z" fill="url(#paint31_radial_113_199)"/>
</g>
</g>
</mask>
<g mask="url(#mask7_113_199)">
<path id="Vector_60" opacity="0.87" d="M12.8128 18.986C11.3661 18.9394 10.2337 17.6423 10.283 16.0886C10.3331 14.535 11.5469 13.3134 12.994 13.3599C14.4404 13.4064 15.5732 14.7033 15.5231 16.257C15.4733 17.8105 14.2596 19.0324 12.8128 18.986Z" fill="#ED1C24"/>
</g>
</g>
<g id="Mask group_9">
<mask id="mask8_113_199" style="mask-type:luminance" maskUnits="userSpaceOnUse" x="14" y="13" width="6" height="7">
<g id="Group_21" opacity="0.87">
<g id="Group_22">
<path id="Vector_61" d="M16.7862 19.6344C15.2141 19.5838 13.9838 18.1743 14.0375 16.4863C14.0919 14.7982 15.4106 13.4706 16.9832 13.5213C18.5547 13.5717 19.7855 14.981 19.7312 16.6692C19.6771 18.3572 18.3582 19.6849 16.7862 19.6344Z" fill="url(#paint32_radial_113_199)"/>
</g>
</g>
</mask>
<g mask="url(#mask8_113_199)">
<path id="Vector_62" opacity="0.87" d="M16.7862 19.6344C15.2141 19.5838 13.9838 18.1743 14.0375 16.4863C14.0919 14.7982 15.4106 13.4706 16.9832 13.5213C18.5547 13.5717 19.7855 14.981 19.7312 16.6692C19.6771 18.3572 18.3582 19.6849 16.7862 19.6344Z" fill="#ED1C24"/>
</g>
</g>
<path id="Vector_63" d="M16.5186 16.7728C16.5186 16.7728 16.5748 16.6247 16.3 16.2702C16.0252 15.9157 16.1508 15.1996 16.2725 14.9617C16.394 14.7236 16.6188 14.887 16.8323 14.8532C17.0459 14.8195 17.2133 14.873 17.1949 15.1342C17.4675 14.9719 17.6381 15.0443 17.7782 15.3008C17.9181 15.5572 18.1716 15.7758 18.4137 15.7973C18.6557 15.8188 18.8323 15.9303 18.6292 16.2805C18.426 16.6308 18.1468 17.1324 17.5594 17.0659C16.9722 16.9996 16.8822 16.9342 16.762 17.0528" fill="url(#paint33_radial_113_199)"/>
<path id="Vector_64" opacity="0.61" d="M18.1014 16.9397L17.245 15.1087C17.2284 15.1171 17.2124 15.1238 17.1949 15.1343C17.2133 14.873 17.046 14.8196 16.8323 14.8532C16.6731 14.8785 16.5076 14.7941 16.3833 14.8482L17.4126 17.048C17.4582 17.0538 17.5061 17.06 17.5595 17.0658C17.7792 17.0909 17.9558 17.0362 18.1014 16.9397ZM17.0691 16.9998L16.2038 15.1498C16.117 15.4658 16.0789 15.9849 16.3 16.2703C16.5748 16.6248 16.5186 16.7728 16.5186 16.7728L16.762 17.0527C16.8356 16.9803 16.8982 16.9767 17.0691 16.9998ZM18.6293 16.2804C18.704 16.1514 18.727 16.0547 18.7144 15.983L18.6752 15.8991C18.6222 15.8366 18.5252 15.8072 18.4137 15.7973C18.1716 15.7758 17.9182 15.5573 17.7782 15.3007C17.7106 15.1765 17.6352 15.0963 17.5448 15.0644L18.3266 16.7352C18.4505 16.5909 18.5463 16.4234 18.6293 16.2804Z" fill="#F2F2F2"/>
<path id="Vector_65" d="M13.6453 21.2843C13.6453 21.2843 13.5891 21.4325 13.8638 21.7867C14.1387 22.1413 14.0132 22.8574 13.8915 23.0954C13.77 23.3333 13.5451 23.17 13.3315 23.2036C13.1183 23.2375 12.9506 23.1841 12.9691 22.9227C12.6965 23.0851 12.5256 23.0126 12.3859 22.7561C12.2458 22.4998 11.9923 22.2812 11.7503 22.2597C11.5082 22.2383 11.3317 22.1267 11.535 21.7763C11.738 21.4261 12.0171 20.9246 12.6044 20.9909C13.1919 21.0571 13.2816 21.1227 13.4023 21.0041" fill="url(#paint34_radial_113_199)"/>
<path id="Vector_66" opacity="0.61" d="M11.5346 21.7764C11.5003 21.8351 11.4779 21.8867 11.4637 21.9327L11.603 22.2303C11.6465 22.2455 11.6965 22.255 11.7499 22.2597C11.992 22.2812 12.2454 22.4997 12.3855 22.7561C12.474 22.9188 12.5753 23.0067 12.7067 23.0084L11.8905 21.2633C11.7401 21.4191 11.6288 21.6138 11.5346 21.7764ZM13.8413 23.1664L12.837 21.0204C12.7693 21.0109 12.693 21.0011 12.6039 20.991C12.4149 20.9697 12.2579 21.0076 12.1252 21.08L13.1159 23.1976C13.1761 23.2166 13.2503 23.2165 13.3311 23.2035C13.5184 23.1741 13.7138 23.2957 13.8413 23.1664ZM13.1796 21.0671L13.9869 22.7924C14.0517 22.4761 14.0596 22.0398 13.8635 21.7867C13.5888 21.4324 13.645 21.2843 13.645 21.2843L13.402 21.0042C13.3418 21.0631 13.2895 21.0765 13.1796 21.0671Z" fill="#F2F2F2"/>
<path id="Vector_67" d="M16.5169 16.6338C16.5169 16.6338 14.588 16.6399 13.818 17.1794C13.0477 17.7186 12.7229 18.685 12.9467 19.7239C13.1703 20.7629 13.1856 20.8598 13.2315 21.1511C13.2845 21.3616 13.4227 21.4789 13.5688 21.3963C13.7148 21.3134 14.4676 21.2941 15.1918 21.2195C15.9161 21.1449 17.6294 20.6558 17.2249 18.4717C16.905 16.9505 16.905 16.9505 16.905 16.9505C16.905 16.9505 16.8245 16.5654 16.5169 16.6338Z" fill="url(#paint35_radial_113_199)"/>
<g id="Group_23">
<g id="Group_24">
<g id="Group_25">
<path id="Vector_68" d="M15.3589 20.8946C14.2763 21.0656 13.26 20.3262 13.0892 19.2438C12.9182 18.1612 13.6573 17.145 14.74 16.974C15.8224 16.8031 16.8388 17.5424 17.0097 18.6248C17.1807 19.7073 16.4415 20.7236 15.3589 20.8946Z" fill="url(#paint36_radial_113_199)"/>
</g>
</g>
</g>
<g id="Mask group_10">
<mask id="mask9_113_199" style="mask-type:luminance" maskUnits="userSpaceOnUse" x="13" y="17" width="2" height="4">
<g id="Group_26">
<g id="Group_27">
<path id="Vector_69" d="M13.8338 17.826C14.3407 17.7461 14.8386 18.2311 14.9456 18.9092C15.0527 19.5874 14.7285 20.2021 14.2214 20.2822C13.7143 20.3622 13.2165 19.8772 13.1094 19.1992C13.0024 18.5207 13.3267 17.9061 13.8338 17.826Z" fill="url(#paint37_linear_113_199)"/>
</g>
</g>
</mask>
<g mask="url(#mask9_113_199)">
<path id="Vector_70" d="M13.8342 17.826C14.3411 17.7461 14.839 18.2311 14.9461 18.9092C15.0532 19.5874 14.729 20.2021 14.2219 20.2822C13.7148 20.3622 13.217 19.8772 13.1099 19.1992C13.0029 18.5207 13.3272 17.9061 13.8342 17.826Z" fill="#F2F2F2"/>
</g>
</g>
<g id="Mask group_11">
<mask id="mask10_113_199" style="mask-type:luminance" maskUnits="userSpaceOnUse" x="15" y="17" width="2" height="4">
<g id="Group_28">
<g id="Group_29">
<path id="Vector_71" d="M16.1666 19.9953C15.6597 20.0753 15.1618 19.5905 15.0547 18.9121C14.9477 18.2342 15.2719 17.6193 15.7789 17.5393C16.286 17.4592 16.784 17.9442 16.8909 18.6222C16.9981 19.3005 16.6737 19.9152 16.1666 19.9953Z" fill="url(#paint38_linear_113_199)"/>
</g>
</g>
</mask>
<g mask="url(#mask10_113_199)">
<path id="Vector_72" d="M16.1666 19.9953C15.6597 20.0753 15.1618 19.5905 15.0547 18.9121C14.9477 18.2342 15.2719 17.6193 15.7789 17.5393C16.286 17.4592 16.784 17.9442 16.8909 18.6222C16.9981 19.3005 16.6737 19.9152 16.1666 19.9953Z" fill="#F2F2F2"/>
</g>
</g>
<path id="Vector_73" d="M16.8813 18.685C16.831 18.693 16.7753 18.6038 16.7567 18.486C16.7381 18.3681 16.7637 18.2662 16.8137 18.2582C16.864 18.2503 16.9197 18.3394 16.9382 18.4573C16.9567 18.5752 16.9312 18.6771 16.8813 18.685Z" fill="#F2F2F2"/>
<path id="Vector_74" d="M16.414 17.4439C16.3907 17.4728 16.3172 17.4521 16.2495 17.3978C16.1817 17.3438 16.1455 17.2762 16.1686 17.2474C16.1918 17.2186 16.2653 17.2392 16.333 17.2937C16.4007 17.3479 16.4369 17.4153 16.414 17.4439Z" fill="#F2F2F2"/>
<path id="Vector_75" opacity="0.61" d="M12.8785 19.0858L13.9166 21.3277C14.1354 21.3042 14.4297 21.2848 14.7454 21.2597L13.1727 17.8983C12.9799 18.2466 12.8789 18.652 12.8785 19.0858ZM15.869 21.0668L14.0002 17.0718C13.9347 17.1051 13.873 17.1408 13.8179 17.1793C13.6544 17.2937 13.5123 17.4284 13.3898 17.5781L15.0977 21.2286C15.1292 21.2256 15.1605 21.2227 15.1917 21.2194C15.372 21.201 15.6139 21.1566 15.869 21.0668ZM17.2779 18.8885L16.2271 16.642C16.0231 16.6512 15.7305 16.6702 15.4116 16.7098L17.0258 20.1596C17.2096 19.8383 17.3143 19.423 17.2779 18.8885ZM16.8031 20.4682L15.0681 16.7599C14.8061 16.8039 14.542 16.8639 14.3073 16.9443L16.1752 20.9372C16.3993 20.8254 16.619 20.6732 16.8031 20.4682Z" fill="#F2F2F2"/>
<path id="Vector_76" d="M15.4833 15.3153C15.4833 15.3153 15.537 15.1662 15.2564 14.8165C14.9755 14.4666 15.0893 13.7485 15.2071 13.5085C15.3247 13.2685 15.5521 13.4281 15.7649 13.3909C15.9778 13.3535 16.1462 13.4041 16.1323 13.6658C16.4021 13.4987 16.5741 13.5684 16.7182 13.8223C16.8624 14.0766 17.1193 14.2909 17.3619 14.3084C17.6042 14.3256 17.7827 14.4343 17.5854 14.7878C17.3881 15.1416 17.1173 15.6477 16.5289 15.591C15.9406 15.5344 15.8498 15.4706 15.7312 15.5911" fill="#2A3990"/>
<path id="Vector_77" opacity="0.5" d="M17.069 15.4556L16.1823 13.6393C16.1657 13.648 16.1499 13.6551 16.1327 13.6657C16.1466 13.404 15.9782 13.3535 15.7653 13.3908C15.6066 13.4185 15.4396 13.3368 15.3163 13.3933L16.382 15.5756C16.4277 15.5807 16.4758 15.5859 16.5293 15.591C16.7493 15.6122 16.9251 15.5545 17.069 15.4556Z" fill="#99DBF9"/>
<path id="Vector_78" opacity="0.5" d="M16.0375 15.5333L15.1414 13.698C15.0599 14.0155 15.0305 14.5351 15.2563 14.8166C15.5369 15.1664 15.4832 15.3155 15.4832 15.3155L15.7311 15.5913C15.8035 15.5177 15.8662 15.5131 16.0375 15.5333Z" fill="#99DBF9"/>
<path id="Vector_79" opacity="0.5" d="M17.5855 14.788C17.6581 14.6576 17.6796 14.5607 17.6657 14.4892L17.6251 14.4059C17.571 14.3441 17.4735 14.3165 17.3619 14.3084C17.1195 14.291 16.8624 14.0767 16.7183 13.8224C16.6485 13.6994 16.5718 13.6207 16.4808 13.5901L17.2904 15.2477C17.412 15.1013 17.5049 14.9321 17.5855 14.788Z" fill="#99DBF9"/>
<path id="Vector_80" d="M12.6854 19.874C12.6854 19.874 12.6317 20.0231 12.9123 20.373C13.1929 20.7227 13.0793 21.441 12.9617 21.681C12.8441 21.9209 12.6164 21.7613 12.4037 21.7986C12.1908 21.836 12.0225 21.7854 12.0365 21.5237C11.7666 21.6907 11.5947 21.6211 11.4505 21.3671C11.3063 21.1129 11.0495 20.8986 10.8068 20.8811C10.5646 20.8639 10.3859 20.7552 10.5834 20.4017C10.7807 20.0479 11.0513 19.5419 11.6396 19.5985C12.228 19.6549 12.3189 19.7189 12.4376 19.5984" fill="#2A3990"/>
<path id="Vector_81" opacity="0.5" d="M10.5836 20.4013C10.5503 20.4604 10.5288 20.5125 10.5153 20.5586L10.6596 20.8538C10.7036 20.8685 10.7535 20.877 10.807 20.8808C11.0495 20.8982 11.3064 21.1125 11.4507 21.3667C11.5421 21.5277 11.6447 21.6139 11.7763 21.6135L10.9308 19.8822C10.7832 20.0405 10.6749 20.237 10.5836 20.4013Z" fill="#99DBF9"/>
<path id="Vector_82" opacity="0.5" d="M12.9133 21.7528L11.8734 19.6236C11.8055 19.6156 11.729 19.6067 11.6399 19.5983C11.4505 19.5801 11.2943 19.6207 11.1628 19.6952L12.1885 21.7961C12.2491 21.814 12.3232 21.8127 12.4039 21.7985C12.5906 21.7658 12.7879 21.8842 12.9133 21.7528Z" fill="#99DBF9"/>
<path id="Vector_83" opacity="0.5" d="M12.2169 19.6644L13.0527 21.3762C13.112 21.0587 13.1129 20.6225 12.9126 20.3728C12.632 20.023 12.6857 19.8739 12.6857 19.8739L12.438 19.5981C12.3789 19.6579 12.3267 19.6722 12.2169 19.6644Z" fill="#99DBF9"/>
<path id="Vector_84" d="M15.4792 15.1765C15.4792 15.1765 13.5508 15.2147 12.7897 15.7669C12.0285 16.3189 11.7199 17.2906 11.9609 18.3257C12.2019 19.3606 12.2187 19.4573 12.2696 19.7477C12.3261 19.9575 12.4662 20.0724 12.6108 19.9874C12.7553 19.9021 13.5077 19.8702 14.2308 19.7836C14.9537 19.697 16.6586 19.1793 16.2177 17.0022C15.8725 15.4867 15.8725 15.4867 15.8725 15.4867C15.8725 15.4867 15.7857 15.1028 15.4792 15.1765Z" fill="#2A3990"/>
<g id="Group_30">
<g id="Group_31">
<g id="Group_32">
<path id="Vector_85" d="M14.3931 19.456C13.3136 19.6451 12.2851 18.9229 12.0962 17.8433C11.9072 16.7637 12.6293 15.7352 13.7089 15.5462C14.7885 15.3574 15.817 16.0795 16.0058 17.159C16.1949 18.2386 15.4727 19.2671 14.3931 19.456Z" fill="url(#paint39_radial_113_199)"/>
</g>
</g>
</g>
<g id="Mask group_12">
<mask id="mask11_113_199" style="mask-type:luminance" maskUnits="userSpaceOnUse" x="12" y="16" width="2" height="3">
<g id="Group_33">
<g id="Group_34">
<path id="Vector_86" d="M12.8169 16.4135C13.3227 16.325 13.8283 16.8015 13.9467 17.4778C14.0651 18.1542 13.7511 18.7742 13.2456 18.8628C12.7399 18.9513 12.2339 18.4746 12.1155 17.7983C11.9972 17.1219 12.3114 16.502 12.8169 16.4135Z" fill="url(#paint40_linear_113_199)"/>
</g>
</g>
</mask>
<g mask="url(#mask11_113_199)">
<path id="Vector_87" d="M12.8169 16.4135C13.3227 16.325 13.8283 16.8015 13.9467 17.4778C14.0651 18.1542 13.7511 18.7742 13.2456 18.8628C12.7399 18.9513 12.2339 18.4746 12.1155 17.7983C11.9972 17.1219 12.3114 16.502 12.8169 16.4135Z" fill="#F2F2F2"/>
</g>
</g>
<g id="Mask group_13">
<mask id="mask12_113_199" style="mask-type:luminance" maskUnits="userSpaceOnUse" x="14" y="16" width="2" height="3">
<g id="Group_35">
<g id="Group_36">
<path id="Vector_88" d="M15.1849 18.5432C14.6793 18.6317 14.1734 18.1552 14.0553 17.4788C13.9368 16.8025 14.2507 16.1825 14.7564 16.0939C15.262 16.0055 15.7679 16.4822 15.8864 17.1584C16.0047 17.8347 15.6906 18.4547 15.1849 18.5432Z" fill="url(#paint41_linear_113_199)"/>
</g>
</g>
</mask>
<g mask="url(#mask12_113_199)">
<path id="Vector_89" d="M15.1849 18.5432C14.6793 18.6317 14.1734 18.1552 14.0553 17.4788C13.9368 16.8025 14.2507 16.1825 14.7564 16.0939C15.262 16.0055 15.7679 16.4822 15.8864 17.1584C16.0047 17.8347 15.6906 18.4547 15.1849 18.5432Z" fill="#F2F2F2"/>
</g>
</g>
<path id="Vector_90" d="M15.7493 17.0248C15.7698 17.1423 15.827 17.2305 15.877 17.2218C15.9269 17.2131 15.9508 17.1107 15.9302 16.9932C15.9097 16.8757 15.8526 16.7875 15.8026 16.7962C15.7526 16.8049 15.7288 16.9073 15.7493 17.0248Z" fill="#F2F2F2"/>
<path id="Vector_91" d="M15.3899 15.9885C15.3669 16.0176 15.2932 15.9981 15.2246 15.945C15.1559 15.8922 15.1184 15.8252 15.1409 15.7961C15.1637 15.7668 15.2377 15.7863 15.3063 15.8395C15.3749 15.8925 15.4123 15.9593 15.3899 15.9885Z" fill="#F2F2F2"/>
<path id="Vector_92" d="M8.85096 17.06C8.85096 17.06 8.71338 16.9815 8.32042 17.1976C7.92746 17.4137 7.23966 17.1781 7.02353 17.0207C6.80746 16.8634 7.00386 16.6669 7.00386 16.4508C7.00386 16.2347 7.08268 16.0776 7.33805 16.1365C7.22015 15.8418 7.31827 15.6845 7.59343 15.5863C7.86859 15.4881 8.12397 15.2719 8.18284 15.0361C8.24182 14.8003 8.37957 14.6432 8.69387 14.8986C9.00822 15.154 9.4601 15.5078 9.30295 16.0776C9.14575 16.6475 9.06731 16.726 9.16548 16.8635" fill="url(#paint42_linear_113_199)"/>
<path id="Vector_93" d="M12.8592 20.602C12.8592 20.602 12.9969 20.6806 13.3898 20.4645C13.7828 20.2483 14.4705 20.484 14.6867 20.6413C14.9027 20.7986 14.7063 20.9952 14.7063 21.2112C14.7063 21.4273 14.6276 21.5845 14.3721 21.5256C14.4901 21.8203 14.3919 21.9776 14.1168 22.0758C13.8416 22.174 13.5862 22.3902 13.5274 22.626C13.4684 22.8618 13.3307 23.0188 13.0163 22.7634C12.7019 22.5081 12.2501 22.1542 12.4072 21.5844C12.5645 21.0146 12.6429 20.9361 12.5447 20.7985" fill="url(#paint43_linear_113_199)"/>
<path id="Vector_94" d="M8.71357 17.0404C8.71357 17.0404 8.41878 18.9466 8.83152 19.7914C9.24411 20.6363 10.1481 21.1079 11.2091 21.0489C12.2702 20.99 12.3684 20.99 12.6632 20.99C12.8794 20.9704 13.0169 20.8524 12.9579 20.6952C12.899 20.5381 12.9973 19.7914 13.0366 19.0643C13.0758 18.3372 12.8599 16.5688 10.6394 16.6277C9.08707 16.7063 9.08707 16.7063 9.08707 16.7063C9.08707 16.7063 8.69389 16.726 8.71357 17.0404Z" fill="url(#paint44_linear_113_199)"/>
<path id="Vector_95" d="M10.7573 20.8329C11.8533 20.8329 12.7419 19.9443 12.7419 18.8483C12.7419 17.7522 11.8533 16.8637 10.7573 16.8637C9.66123 16.8637 8.77271 17.7522 8.77271 18.8483C8.77271 19.9443 9.66123 20.8329 10.7573 20.8329Z" fill="url(#paint45_linear_113_199)"/>
<path id="Vector_96" opacity="0.52" d="M8.77271 18.8484C8.77271 19.0542 8.80418 19.2527 8.86233 19.4396H12.6523C12.7105 19.2527 12.7419 19.0543 12.7419 18.8484C12.7419 18.6107 12.6979 18.384 12.6214 18.1729H8.89314C8.81664 18.384 8.77271 18.6107 8.77271 18.8484Z" fill="#F2F2F2"/>
<g id="Mask group_14">
<mask id="mask13_113_199" style="mask-type:luminance" maskUnits="userSpaceOnUse" x="9" y="18" width="3" height="3">
<g id="Group_37">
<g id="Group_38">
<path id="Vector_97" d="M10.7166 20.8049C11.4032 20.8049 11.9598 20.3888 11.9598 19.8756C11.9598 19.3623 11.4032 18.9462 10.7166 18.9462C10.03 18.9462 9.47339 19.3623 9.47339 19.8756C9.47339 20.3888 10.03 20.8049 10.7166 20.8049Z" fill="url(#paint46_linear_113_199)"/>
</g>
</g>
</mask>
<g mask="url(#mask13_113_199)">
<path id="Vector_98" d="M10.7166 20.8049C11.4032 20.8049 11.9598 20.3888 11.9598 19.8756C11.9598 19.3623 11.4032 18.9462 10.7166 18.9462C10.03 18.9462 9.47339 19.3623 9.47339 19.8756C9.47339 20.3888 10.03 20.8049 10.7166 20.8049Z" fill="#F2F2F2"/>
</g>
</g>
<g id="Mask group_15">
<mask id="mask14_113_199" style="mask-type:luminance" maskUnits="userSpaceOnUse" x="9" y="16" width="3" height="3">
<g id="Group_39">
<g id="Group_40">
<path id="Vector_99" d="M10.7362 18.84C11.4228 18.84 11.9794 18.4239 11.9794 17.9107C11.9794 17.3974 11.4228 16.9813 10.7362 16.9813C10.0495 16.9813 9.49292 17.3974 9.49292 17.9107C9.49292 18.4239 10.0495 18.84 10.7362 18.84Z" fill="url(#paint47_linear_113_199)"/>
</g>
</g>
</mask>
<g mask="url(#mask14_113_199)">
<path id="Vector_100" d="M10.7362 18.84C11.4228 18.84 11.9794 18.4239 11.9794 17.9107C11.9794 17.3974 11.4228 16.9813 10.7362 16.9813C10.0495 16.9813 9.49292 17.3974 9.49292 17.9107C9.49292 18.4239 10.0495 18.84 10.7362 18.84Z" fill="#F2F2F2"/>
</g>
</g>
<path id="Vector_101" d="M10.5806 17.0928C10.6999 17.0928 10.7967 17.0517 10.7967 17.001C10.7967 16.9503 10.6999 16.9092 10.5806 16.9092C10.4612 16.9092 10.3645 16.9503 10.3645 17.001C10.3645 17.0517 10.4612 17.0928 10.5806 17.0928Z" fill="#F2F2F2"/>
<path id="Vector_102" d="M9.49817 17.2686C9.52303 17.296 9.49117 17.3655 9.4269 17.4239C9.36285 17.4824 9.29058 17.5076 9.26573 17.4804C9.24098 17.453 9.27273 17.3835 9.33711 17.3252C9.4011 17.2667 9.47342 17.2414 9.49817 17.2686Z" fill="#F2F2F2"/>
<path id="Vector_103" d="M11.8101 15.4616C11.8101 15.4616 11.7592 15.3115 11.3218 15.2126C10.8843 15.1137 10.526 14.4811 10.4687 14.2201C10.4112 13.959 10.6885 13.9422 10.8319 13.7804C10.9753 13.6187 11.1384 13.5534 11.2905 13.7668C11.3976 13.4681 11.5754 13.4154 11.8464 13.5245C12.1176 13.6336 12.452 13.6411 12.6526 13.5038C12.8531 13.3665 13.0603 13.3403 13.1262 13.7398C13.192 14.1394 13.2954 14.7039 12.7999 15.0261C12.3044 15.3482 12.1935 15.3549 12.1758 15.523" fill="url(#paint48_radial_113_199)"/>
<path id="Vector_104" opacity="0.61" d="M13.1381 14.5842L11.3131 13.7154C11.3056 13.7324 11.2977 13.7479 11.2908 13.767C11.1387 13.5535 10.9756 13.6188 10.8323 13.7806C10.7253 13.9012 10.5439 13.9413 10.4823 14.0621L12.6754 15.1059C12.7142 15.0814 12.7552 15.0556 12.8002 15.0262C12.9855 14.9057 13.0871 14.7512 13.1381 14.5842ZM12.3797 15.287L10.5354 14.4091C10.6695 14.7083 10.9701 15.133 11.3221 15.2127C11.7595 15.3116 11.8103 15.4616 11.8103 15.4616L12.176 15.5231C12.1868 15.4205 12.233 15.3778 12.3797 15.287ZM13.1265 13.7399C13.1022 13.5925 13.0585 13.5034 13.0033 13.4561L12.9195 13.4163C12.8388 13.4017 12.7452 13.4407 12.6529 13.5039C12.4523 13.6413 12.1179 13.6337 11.8467 13.5246C11.7155 13.4718 11.6064 13.4579 11.5163 13.4907L13.182 14.2834C13.1859 14.0932 13.1533 13.9028 13.1265 13.7399Z" fill="#F2F2F2"/>
<path id="Vector_105" d="M12.4603 20.7709C12.4603 20.7709 12.5112 20.921 12.9486 21.0199C13.386 21.1188 13.7444 21.7514 13.8018 22.0125C13.8592 22.2735 13.5818 22.2903 13.4385 22.4521C13.2952 22.6137 13.132 22.6791 12.98 22.4656C12.8728 22.7644 12.6949 22.817 12.424 22.7079C12.1528 22.599 11.8183 22.5914 11.6178 22.7287C11.4173 22.8661 11.2101 22.8923 11.1442 22.4926C11.0783 22.0931 10.9749 21.5286 11.4705 21.2064C11.966 20.8841 12.0769 20.8776 12.0946 20.7094" fill="url(#paint49_radial_113_199)"/>
<path id="Vector_106" opacity="0.61" d="M11.1441 22.4925C11.155 22.5595 11.1705 22.6136 11.1888 22.6582L11.4856 22.7994C11.5289 22.7834 11.5734 22.759 11.6177 22.7287C11.8182 22.5914 12.1527 22.599 12.4239 22.7079C12.5956 22.7771 12.7297 22.7805 12.8322 22.6983L11.0926 21.8701C11.0755 22.086 11.1134 22.307 11.1441 22.4925ZM13.8084 22.099L11.6689 21.0807C11.6106 21.1166 11.5455 21.1575 11.4703 21.2063C11.3107 21.3101 11.2138 21.4392 11.1573 21.5793L13.2683 22.5841C13.3268 22.5605 13.384 22.5134 13.4384 22.452C13.5639 22.3102 13.7922 22.2799 13.8084 22.099ZM11.963 20.8991L13.6827 21.7177C13.5317 21.4324 13.2605 21.0906 12.9484 21.0199C12.511 20.921 12.4601 20.7709 12.4601 20.7709L12.0945 20.7094C12.0856 20.7929 12.0536 20.8366 11.963 20.8991Z" fill="#F2F2F2"/>
<path id="Vector_107" d="M11.72 15.3556C11.72 15.3556 10.235 16.5865 9.98343 17.4926C9.7317 18.3985 10.0954 19.351 10.9285 20.0107C11.7617 20.6705 11.8352 20.7355 12.0557 20.9311C12.2305 21.0599 12.4117 21.0627 12.4718 20.906C12.532 20.7493 13.1008 20.2558 13.6124 19.7377C14.1241 19.2197 15.1356 17.753 13.4348 16.3242C12.221 15.3534 12.221 15.3534 12.221 15.3534C12.221 15.3534 11.9139 15.1072 11.72 15.3556Z" fill="url(#paint50_radial_113_199)"/>
<g id="Group_41">
<g id="Group_42">
<g id="Group_43">
<path id="Vector_108" d="M13.5357 19.3806C12.8087 20.2007 11.5544 20.2762 10.7343 19.5492C9.91401 18.8223 9.8385 17.5679 10.5654 16.7477C11.2924 15.9276 12.5469 15.8521 13.367 16.579C14.1871 17.3059 14.2626 18.5603 13.5357 19.3806Z" fill="url(#paint51_radial_113_199)"/>
</g>
</g>
</g>
<g id="Mask group_16">
<mask id="mask15_113_199" style="mask-type:luminance" maskUnits="userSpaceOnUse" x="10" y="17" width="3" height="3">
<g id="Group_44">
<g id="Group_45">
<path id="Vector_109" d="M10.4081 17.9815C10.7487 17.5974 11.4412 17.6552 11.955 18.1107C12.4688 18.5661 12.6093 19.2467 12.269 19.6308C11.9284 20.015 11.2357 19.9573 10.7219 19.5017C10.2081 19.0462 10.0677 18.3656 10.4081 17.9815Z" fill="url(#paint52_linear_113_199)"/>
</g>
</g>
</mask>
<g mask="url(#mask15_113_199)">
<path id="Vector_110" d="M11.9548 18.1099C11.4409 17.6544 10.7483 17.5966 10.4079 17.9807C10.0674 18.3649 10.208 19.0455 10.7219 19.5009C11.2358 19.9564 11.9283 20.0142 12.2688 19.63C12.6092 19.2459 12.4686 18.5653 11.9548 18.1099Z" fill="#F2F2F2"/>
</g>
</g>
<g id="Mask group_17">
<mask id="mask16_113_199" style="mask-type:luminance" maskUnits="userSpaceOnUse" x="11" y="16" width="3" height="3">
<g id="Group_46">
<g id="Group_47">
<path id="Vector_111" d="M13.5866 18.1733C13.2461 18.5574 12.5536 18.4995 12.0397 18.0439C11.526 17.5887 11.3854 16.9079 11.7258 16.5238C12.0664 16.1397 12.7591 16.1975 13.2728 16.6529C13.7866 17.1083 13.9271 17.7891 13.5866 18.1733Z" fill="url(#paint53_linear_113_199)"/>
</g>
</g>
</mask>
<g mask="url(#mask16_113_199)">
<path id="Vector_112" d="M13.5866 18.1733C13.2461 18.5574 12.5536 18.4995 12.0397 18.0439C11.526 17.5887 11.3854 16.9079 11.7258 16.5238C12.0664 16.1397 12.7591 16.1975 13.2728 16.6529C13.7866 17.1083 13.9271 17.7891 13.5866 18.1733Z" fill="#F2F2F2"/>
</g>
</g>
<path id="Vector_113" d="M13.0825 16.6327C13.1717 16.7119 13.2714 16.7452 13.3051 16.7073C13.3387 16.6693 13.2936 16.5743 13.2044 16.4952C13.1151 16.4161 13.0154 16.3827 12.9818 16.4207C12.9481 16.4587 12.9932 16.5536 13.0825 16.6327Z" fill="#F2F2F2"/>
<path id="Vector_114" d="M12.156 16.0467C12.1564 16.0838 12.0865 16.1145 11.9997 16.1157C11.913 16.117 11.8421 16.0879 11.8416 16.0511C11.8411 16.0141 11.911 15.9833 11.9979 15.9822C12.0846 15.9809 12.1555 16.0099 12.156 16.0467Z" fill="#F2F2F2"/>
<path id="Vector_115" opacity="0.61" d="M10.4711 19.5615L12.6976 20.6321C12.8515 20.4749 13.0665 20.2728 13.2941 20.0527L9.94325 18.4576C10.0159 18.8493 10.1958 19.2264 10.4711 19.5615ZM14.0388 19.1895L10.0566 17.2937C10.027 17.3611 10.0022 17.4278 9.9842 17.4926C9.93074 17.6848 9.90665 17.8791 9.90736 18.0725L13.5465 19.8046C13.5688 19.7823 13.5912 19.76 13.6132 19.7377C13.7406 19.6088 13.8991 19.4209 14.0388 19.1895ZM13.7415 16.6123L11.5023 15.5463C11.3507 15.6831 11.1369 15.8837 10.9159 16.117L14.355 17.7537C14.2926 17.3888 14.1095 17.0017 13.7415 16.6123ZM14.3794 18.1336L10.6825 16.374C10.5083 16.5747 10.3427 16.7887 10.2126 17.0001L14.1929 18.8945C14.2947 18.6659 14.3676 18.4089 14.3794 18.1336Z" fill="#F2F2F2"/>
<path id="Vector_116" d="M8.41298 19.0927C8.50581 19.112 8.60122 19.1135 8.69206 19.1021C8.62195 18.8463 8.60381 18.6036 8.60227 18.4367C8.23604 18.4181 7.74183 18.3957 7.27253 18.0854C6.04978 17.393 5.56582 15.3425 5.56582 15.3425C3.78591 16.7993 4.17671 19.9755 6.52823 21.013C8.88008 22.0506 9.74878 20.8602 9.88598 20.2202C10.023 19.5803 9.04048 19.3508 8.41298 19.0927Z" fill="url(#paint54_radial_113_199)"/>
<path id="Vector_117" d="M19.8383 14.3994C19.8383 14.3994 19.5218 16.4822 18.3589 17.2711C17.926 17.6107 17.4482 17.6775 17.0873 17.7254C17.1053 17.8414 17.1199 17.9585 17.1263 18.0782C17.1323 18.1858 17.1323 18.2923 17.1288 18.3981C17.1875 18.3938 17.2463 18.3843 17.3038 18.3674C16.6991 18.6753 15.7384 18.9835 15.9269 19.6104C16.1153 20.2372 17.0775 21.3533 19.3376 20.129C21.5975 18.9046 21.7302 15.7073 19.8383 14.3994Z" fill="url(#paint55_radial_113_199)"/>
</g>
</g>
<defs>
<radialGradient id="paint0_radial_113_199" cx="0" cy="0" r="1" gradientUnits="userSpaceOnUse" gradientTransform="translate(12.6428 9.67314) scale(10.7877)">
<stop offset="0.0714" stop-color="#F9EC00"/>
<stop offset="0.3407" stop-color="#F2BE1D"/>
<stop offset="0.6868" stop-color="#ED9D23"/>
<stop offset="1" stop-color="#E87326"/>
</radialGradient>
<radialGradient id="paint1_radial_113_199" cx="0" cy="0" r="1" gradientUnits="userSpaceOnUse" gradientTransform="translate(9.63054 13.3901) rotate(9.553) scale(1.42963 0.889397)">
<stop stop-color="white"/>
<stop offset="1"/>
</radialGradient>
<radialGradient id="paint2_radial_113_199" cx="0" cy="0" r="1" gradientUnits="userSpaceOnUse" gradientTransform="translate(16.0559 13.2769) rotate(-15.5651) scale(1.4296 0.889353)">
<stop stop-color="white"/>
<stop offset="1"/>
</radialGradient>
<radialGradient id="paint3_radial_113_199" cx="0" cy="0" r="1" gradientUnits="userSpaceOnUse" gradientTransform="translate(12.6446 12.3476) rotate(-1.18609) scale(1.68002)">
<stop offset="0.0714" stop-color="#F2BE1D"/>
<stop offset="0.6868" stop-color="#ED9D23"/>
<stop offset="1" stop-color="#E87326"/>
</radialGradient>
<radialGradient id="paint4_radial_113_199" cx="0" cy="0" r="1" gradientUnits="userSpaceOnUse" gradientTransform="translate(10.4669 8.04424) rotate(3.2275) scale(1.09551)">
<stop offset="0.0714" stop-color="#F2BE1D"/>
<stop offset="0.6868" stop-color="#ED9D23"/>
<stop offset="1" stop-color="#E87326"/>
</radialGradient>
<radialGradient id="paint5_radial_113_199" cx="0" cy="0" r="1" gradientUnits="userSpaceOnUse" gradientTransform="translate(14.3776 8.10406) rotate(166.043) scale(1.09538)">
<stop offset="0.0714" stop-color="#F2BE1D"/>
<stop offset="0.6868" stop-color="#ED9D23"/>
<stop offset="1" stop-color="#E87326"/>
</radialGradient>
<radialGradient id="paint6_radial_113_199" cx="0" cy="0" r="1" gradientUnits="userSpaceOnUse" gradientTransform="translate(9.06528 19.1473) rotate(24.9776) scale(2.69907 1.53815)">
<stop stop-color="white"/>
<stop offset="1"/>
</radialGradient>
<radialGradient id="paint7_radial_113_199" cx="0" cy="0" r="1" gradientUnits="userSpaceOnUse" gradientTransform="translate(14.6181 18.0639) rotate(-17.9623) scale(2.91726 2.09085)">
<stop stop-color="white"/>
<stop offset="1"/>
</radialGradient>
<radialGradient id="paint8_radial_113_199" cx="0" cy="0" r="1" gradientUnits="userSpaceOnUse" gradientTransform="translate(11.215 9.29559) scale(4.74457)">
<stop offset="0.0714" stop-color="#F9EC00"/>
<stop offset="0.3407" stop-color="#F2BE1D"/>
<stop offset="0.6868" stop-color="#ED9D23"/>
<stop offset="1" stop-color="#E87326"/>
</radialGradient>
<radialGradient id="paint9_radial_113_199" cx="0" cy="0" r="1" gradientUnits="userSpaceOnUse" gradientTransform="translate(13.4697 5.44808) scale(5.42971)">
<stop stop-color="white"/>
<stop offset="1" stop-color="#CEDAD9"/>
</radialGradient>
<radialGradient id="paint10_radial_113_199" cx="0" cy="0" r="1" gradientUnits="userSpaceOnUse" gradientTransform="translate(14.0635 3.78011) scale(2.02117)">
<stop stop-color="#F1A7B8"/>
<stop offset="1" stop-color="#EE87A6"/>
</radialGradient>
<radialGradient id="paint11_radial_113_199" cx="0" cy="0" r="1" gradientUnits="userSpaceOnUse" gradientTransform="translate(17.021 9.76191) scale(2.79433)">
<stop offset="0.0714" stop-color="#F9EC00"/>
<stop offset="0.3407" stop-color="#F2BE1D"/>
<stop offset="0.6868" stop-color="#ED9D23"/>
<stop offset="1" stop-color="#E87326"/>
</radialGradient>
<radialGradient id="paint12_radial_113_199" cx="0" cy="0" r="1" gradientUnits="userSpaceOnUse" gradientTransform="translate(17.3895 9.26504) scale(3.2466)">
<stop stop-color="white"/>
<stop offset="1" stop-color="#CEDAD9"/>
</radialGradient>
<radialGradient id="paint13_radial_113_199" cx="0" cy="0" r="1" gradientUnits="userSpaceOnUse" gradientTransform="translate(15.8302 7.41374) scale(0.897673)">
<stop stop-color="#F1A7B8"/>
<stop offset="1" stop-color="#EE87A6"/>
</radialGradient>
<radialGradient id="paint14_radial_113_199" cx="0" cy="0" r="1" gradientUnits="userSpaceOnUse" gradientTransform="translate(12.8346 5.31962) scale(4.69353)">
<stop stop-color="white"/>
<stop offset="1" stop-color="#CEDAD9"/>
</radialGradient>
<radialGradient id="paint15_radial_113_199" cx="0" cy="0" r="1" gradientUnits="userSpaceOnUse" gradientTransform="translate(13.3358 6.1095) scale(4.84397)">
<stop stop-color="white"/>
<stop offset="1" stop-color="#CEDAD9"/>
</radialGradient>
<radialGradient id="paint16_radial_113_199" cx="0" cy="0" r="1" gradientUnits="userSpaceOnUse" gradientTransform="translate(11.6739 8.13322) scale(6.28883)">
<stop stop-color="white"/>
<stop offset="1" stop-color="#CEDAD9"/>
</radialGradient>
<radialGradient id="paint17_radial_113_199" cx="0" cy="0" r="1" gradientUnits="userSpaceOnUse" gradientTransform="translate(11.9443 6.53691) scale(3.04438)">
<stop stop-color="#F1A7B8"/>
<stop offset="1" stop-color="#EE87A6"/>
</radialGradient>
<radialGradient id="paint18_radial_113_199" cx="0" cy="0" r="1" gradientUnits="userSpaceOnUse" gradientTransform="translate(5.26721 8.47743) scale(2.92005)">
<stop stop-color="#F1A7B8"/>
<stop offset="1" stop-color="#EE87A6"/>
</radialGradient>
<radialGradient id="paint19_radial_113_199" cx="0" cy="0" r="1" gradientUnits="userSpaceOnUse" gradientTransform="translate(20.0691 10.4754) scale(1.50328)">
<stop stop-color="#F1A7B8"/>
<stop offset="1" stop-color="#EE87A6"/>
</radialGradient>
<radialGradient id="paint20_radial_113_199" cx="0" cy="0" r="1" gradientUnits="userSpaceOnUse" gradientTransform="translate(9.74789 20.0187) rotate(35.0102) scale(1.95311 1.25962)">
<stop stop-color="white"/>
<stop offset="1"/>
</radialGradient>
<radialGradient id="paint21_radial_113_199" cx="0" cy="0" r="1" gradientUnits="userSpaceOnUse" gradientTransform="translate(15.3835 19.6553) rotate(-72.497) scale(1.77942 0.753243)">
<stop stop-color="white"/>
<stop offset="1"/>
</radialGradient>
<radialGradient id="paint22_radial_113_199" cx="0" cy="0" r="1" gradientUnits="userSpaceOnUse" gradientTransform="translate(9.50847 10.1556) rotate(-33.1787) scale(1.52284 1.59885)">
<stop offset="0.0714" stop-color="#F2BE1D"/>
<stop offset="0.6868" stop-color="#ED9D23"/>
<stop offset="1" stop-color="#E87326"/>
</radialGradient>
<radialGradient id="paint23_radial_113_199" cx="0" cy="0" r="1" gradientUnits="userSpaceOnUse" gradientTransform="translate(10.5923 11.3246) rotate(-33.1787) scale(1.35316 1.4207)">
<stop offset="0.2802" stop-color="white"/>
<stop offset="0.648" stop-color="#FBFEFF"/>
<stop offset="0.7804" stop-color="#F3FAFE"/>
<stop offset="0.8749" stop-color="#E7F6FD"/>
<stop offset="0.9507" stop-color="#D6EFFB"/>
<stop offset="1" stop-color="#C5E9FA"/>
</radialGradient>
<radialGradient id="paint24_radial_113_199" cx="0" cy="0" r="1" gradientUnits="userSpaceOnUse" gradientTransform="translate(10.8121 11.5935) rotate(-33.18) scale(1.16443 1.2298)">
<stop offset="0.2802" stop-color="white"/>
<stop offset="0.6375" stop-color="#F8FAFC"/>
<stop offset="0.7662" stop-color="#EBF1F4"/>
<stop offset="0.8579" stop-color="#D7E4EB"/>
<stop offset="0.9315" stop-color="#BFD3DC"/>
<stop offset="0.9944" stop-color="#A0BDCB"/>
<stop offset="1" stop-color="#9DBBC9"/>
</radialGradient>
<radialGradient id="paint25_radial_113_199" cx="0" cy="0" r="1" gradientUnits="userSpaceOnUse" gradientTransform="translate(10.7232 11.4308) rotate(-33.18) scale(0.925994)">
<stop offset="0.2802" stop-color="#9BB9C7"/>
<stop offset="0.6174" stop-color="#9AB7C5"/>
<stop offset="0.7389" stop-color="#96B3C0"/>
<stop offset="0.8255" stop-color="#8EAAB7"/>
<stop offset="0.8954" stop-color="#839DAA"/>
<stop offset="0.9547" stop-color="#768D99"/>
<stop offset="1" stop-color="#687E88"/>
</radialGradient>
<radialGradient id="paint26_radial_113_199" cx="0" cy="0" r="1" gradientUnits="userSpaceOnUse" gradientTransform="translate(16.3045 10.0768) rotate(-146.821) scale(1.52286 1.59887)">
<stop offset="0.0714" stop-color="#F2BE1D"/>
<stop offset="0.6868" stop-color="#ED9D23"/>
<stop offset="1" stop-color="#E87326"/>
</radialGradient>
<radialGradient id="paint27_radial_113_199" cx="0" cy="0" r="1" gradientUnits="userSpaceOnUse" gradientTransform="translate(15.2205 11.2458) rotate(-146.821) scale(1.35316 1.4207)">
<stop offset="0.2802" stop-color="white"/>
<stop offset="0.648" stop-color="#FBFEFF"/>
<stop offset="0.7804" stop-color="#F3FAFE"/>
<stop offset="0.8749" stop-color="#E7F6FD"/>
<stop offset="0.9507" stop-color="#D6EFFB"/>
<stop offset="1" stop-color="#C5E9FA"/>
</radialGradient>
<radialGradient id="paint28_radial_113_199" cx="0" cy="0" r="1" gradientUnits="userSpaceOnUse" gradientTransform="translate(15.001 11.5149) rotate(-146.82) scale(1.16446 1.22983)">
<stop offset="0.2802" stop-color="white"/>
<stop offset="0.6375" stop-color="#F8FAFC"/>
<stop offset="0.7662" stop-color="#EBF1F4"/>
<stop offset="0.8579" stop-color="#D7E4EB"/>
<stop offset="0.9315" stop-color="#BFD3DC"/>
<stop offset="0.9944" stop-color="#A0BDCB"/>
<stop offset="1" stop-color="#9DBBC9"/>
</radialGradient>
<radialGradient id="paint29_radial_113_199" cx="0" cy="0" r="1" gradientUnits="userSpaceOnUse" gradientTransform="translate(15.0902 11.3523) rotate(-146.82) scale(0.926016)">
<stop offset="0.2802" stop-color="#9BB9C7"/>
<stop offset="0.6174" stop-color="#9AB7C5"/>
<stop offset="0.7389" stop-color="#96B3C0"/>
<stop offset="0.8255" stop-color="#8EAAB7"/>
<stop offset="0.8954" stop-color="#839DAA"/>
<stop offset="0.9547" stop-color="#768D99"/>
<stop offset="1" stop-color="#687E88"/>
</radialGradient>
<radialGradient id="paint30_radial_113_199" cx="0" cy="0" r="1" gradientUnits="userSpaceOnUse" gradientTransform="translate(10.2311 16.6444) rotate(91.8391) scale(2.28326 2.12671)">
<stop stop-color="white"/>
<stop offset="1"/>
</radialGradient>
<radialGradient id="paint31_radial_113_199" cx="0" cy="0" r="1" gradientUnits="userSpaceOnUse" gradientTransform="translate(12.9031 16.173) rotate(91.8391) scale(2.28328 2.12674)">
<stop stop-color="white"/>
<stop offset="1"/>
</radialGradient>
<radialGradient id="paint32_radial_113_199" cx="0" cy="0" r="1" gradientUnits="userSpaceOnUse" gradientTransform="translate(16.8844 16.5779) rotate(91.8391) scale(2.48097 2.31087)">
<stop stop-color="white"/>
<stop offset="1"/>
</radialGradient>
<radialGradient id="paint33_radial_113_199" cx="0" cy="0" r="1" gradientUnits="userSpaceOnUse" gradientTransform="translate(17.4273 15.898) rotate(81.0312) scale(1.23275)">
<stop offset="0.0055" stop-color="#F38EB2"/>
<stop offset="0.8901" stop-color="#EE5488"/>
</radialGradient>
<radialGradient id="paint34_radial_113_199" cx="0" cy="0" r="1" gradientUnits="userSpaceOnUse" gradientTransform="translate(12.7367 22.1589) rotate(-98.9688) scale(1.23274)">
<stop offset="0.0055" stop-color="#F38EB2"/>
<stop offset="0.8901" stop-color="#EE5488"/>
</radialGradient>
<radialGradient id="paint35_radial_113_199" cx="0" cy="0" r="1" gradientUnits="userSpaceOnUse" gradientTransform="translate(15.0688 19.0011) rotate(81.0312) scale(2.2141)">
<stop offset="0.0055" stop-color="#F38EB2"/>
<stop offset="0.8901" stop-color="#EE5488"/>
</radialGradient>
<radialGradient id="paint36_radial_113_199" cx="0" cy="0" r="1" gradientUnits="userSpaceOnUse" gradientTransform="translate(15.0495 18.9343) rotate(81.0312) scale(1.98457)">
<stop offset="0.0055" stop-color="#FFFEF2"/>
<stop offset="0.8901" stop-color="#F2839B"/>
</radialGradient>
<linearGradient id="paint37_linear_113_199" x1="12.597" y1="19.2799" x2="14.0275" y2="19.0541" gradientUnits="userSpaceOnUse">
<stop stop-color="white"/>
<stop offset="1"/>
</linearGradient>
<linearGradient id="paint38_linear_113_199" x1="17.4033" y1="18.5415" x2="15.9728" y2="18.7673" gradientUnits="userSpaceOnUse">
<stop stop-color="white"/>
<stop offset="1"/>
</linearGradient>
<radialGradient id="paint39_radial_113_199" cx="0" cy="0" r="1" gradientUnits="userSpaceOnUse" gradientTransform="translate(14.051 17.5011) rotate(80.0723) scale(1.98457)">
<stop offset="0.0055" stop-color="#FFFEF2"/>
<stop offset="0.8901" stop-color="#1B75BC"/>
</radialGradient>
<linearGradient id="paint40_linear_113_199" x1="11.6046" y1="17.8878" x2="13.0312" y2="17.6381" gradientUnits="userSpaceOnUse">
<stop stop-color="white"/>
<stop offset="1"/>
</linearGradient>
<linearGradient id="paint41_linear_113_199" x1="16.3974" y1="17.0689" x2="14.9708" y2="17.3186" gradientUnits="userSpaceOnUse">
<stop stop-color="white"/>
<stop offset="1"/>
</linearGradient>
<linearGradient id="paint42_linear_113_199" x1="6.92212" y1="16.026" x2="9.33512" y2="16.026" gradientUnits="userSpaceOnUse">
<stop stop-color="#009445"/>
<stop offset="1" stop-color="#006838"/>
</linearGradient>
<linearGradient id="paint43_linear_113_199" x1="14.7881" y1="21.636" x2="12.3751" y2="21.636" gradientUnits="userSpaceOnUse">
<stop stop-color="#009445"/>
<stop offset="1" stop-color="#006838"/>
</linearGradient>
<linearGradient id="paint44_linear_113_199" x1="8.6116" y1="18.8401" x2="13.0405" y2="18.8401" gradientUnits="userSpaceOnUse">
<stop stop-color="#009445"/>
<stop offset="1" stop-color="#006838"/>
</linearGradient>
<linearGradient id="paint45_linear_113_199" x1="11.1331" y1="18.8239" x2="7.03615" y2="19.0891" gradientUnits="userSpaceOnUse">
<stop stop-color="#7FB539"/>
<stop offset="1" stop-color="#006838"/>
</linearGradient>
<linearGradient id="paint46_linear_113_199" x1="10.7166" y1="21.324" x2="10.7166" y2="19.8757" gradientUnits="userSpaceOnUse">
<stop stop-color="white"/>
<stop offset="1"/>
</linearGradient>
<linearGradient id="paint47_linear_113_199" x1="10.7361" y1="16.4623" x2="10.7361" y2="17.9105" gradientUnits="userSpaceOnUse">
<stop stop-color="white"/>
<stop offset="1"/>
</linearGradient>
<radialGradient id="paint48_radial_113_199" cx="0" cy="0" r="1" gradientUnits="userSpaceOnUse" gradientTransform="translate(11.9553 14.2088) rotate(41.5541) scale(1.23274)">
<stop offset="0.0055" stop-color="#F38EB2"/>
<stop offset="0.8901" stop-color="#EE5488"/>
</radialGradient>
<radialGradient id="paint49_radial_113_199" cx="0" cy="0" r="1" gradientUnits="userSpaceOnUse" gradientTransform="translate(12.315 22.0238) rotate(-138.446) scale(1.23278)">
<stop offset="0.0055" stop-color="#F38EB2"/>
<stop offset="0.8901" stop-color="#EE5488"/>
</radialGradient>
<radialGradient id="paint50_radial_113_199" cx="0" cy="0" r="1" gradientUnits="userSpaceOnUse" gradientTransform="translate(12.1071 18.1036) rotate(41.5541) scale(2.21411)">
<stop offset="0.0055" stop-color="#F38EB2"/>
<stop offset="0.8901" stop-color="#EE5488"/>
</radialGradient>
<radialGradient id="paint51_radial_113_199" cx="0" cy="0" r="1" gradientUnits="userSpaceOnUse" gradientTransform="translate(12.0506 18.0641) rotate(41.5541) scale(1.98458)">
<stop offset="0.0055" stop-color="#FFFEF2"/>
<stop offset="0.8901" stop-color="#F2839B"/>
</radialGradient>
<linearGradient id="paint52_linear_113_199" x1="10.3779" y1="19.8901" x2="11.3385" y2="18.8063" gradientUnits="userSpaceOnUse">
<stop stop-color="white"/>
<stop offset="1"/>
</linearGradient>
<linearGradient id="paint53_linear_113_199" x1="13.6169" y1="16.2647" x2="12.6563" y2="17.3484" gradientUnits="userSpaceOnUse">
<stop stop-color="white"/>
<stop offset="1"/>
</linearGradient>
<radialGradient id="paint54_radial_113_199" cx="0" cy="0" r="1" gradientUnits="userSpaceOnUse" gradientTransform="translate(10.6072 18.5872) rotate(7.25578) scale(7.57733 7.57733)">
<stop offset="0.0714" stop-color="#F9EC00"/>
<stop offset="0.3407" stop-color="#F2BE1D"/>
<stop offset="0.6868" stop-color="#ED9D23"/>
<stop offset="1" stop-color="#E87326"/>
</radialGradient>
<radialGradient id="paint55_radial_113_199" cx="0" cy="0" r="1" gradientUnits="userSpaceOnUse" gradientTransform="translate(13.7535 16.9216) rotate(-7.9729) scale(8.37112)">
<stop offset="0.0714" stop-color="#F9EC00"/>
<stop offset="0.3407" stop-color="#F2BE1D"/>
<stop offset="0.6868" stop-color="#ED9D23"/>
<stop offset="1" stop-color="#E87326"/>
</radialGradient>
</defs>
</svg>
