<svg width="25" height="25" viewBox="0 0 25 25" fill="none" xmlns="http://www.w3.org/2000/svg">
<g id="Group 1000002653">
<g id="Group 1000002652">
<g id="Group 1000002651">
<path id="Rectangle_60" d="M0 12.5C0 5.59644 5.59644 0 12.5 0C19.4036 0 25 5.59644 25 12.5C25 19.4036 19.4036 25 12.5 25C5.59644 25 0 19.4036 0 12.5Z" fill="#F2F2F2"/>
</g>
<g id="Group 1000002356">
<path id="Vector" d="M12.4781 22.0526C16.6439 22.0526 20.021 18.6756 20.021 14.5098C20.021 10.3439 16.6439 6.96686 12.4781 6.96686C8.31225 6.96686 4.93518 10.3439 4.93518 14.5098C4.93518 18.6756 8.31225 22.0526 12.4781 22.0526Z" fill="url(#paint0_radial_113_133)"/>
<path id="Vector_2" opacity="0.64" d="M10.8781 13.0084C10.8781 13.0084 10.6754 11.5516 9.78318 11.2888C9.15801 11.1047 7.61372 12.1011 7.83664 13.3429C7.83664 13.3429 9.33718 14.2983 10.8781 13.0084Z" fill="url(#paint1_radial_113_133)"/>
<path id="Vector_3" opacity="0.64" d="M14.0337 12.8029C14.0337 12.8029 14.2124 11.3411 15.1508 11.055C15.8085 10.8546 17.4691 11.8101 17.2636 13.0574C17.2636 13.0574 15.6979 14.0518 14.0337 12.8029Z" fill="url(#paint2_radial_113_133)"/>
<path id="Vector_4" d="M11.245 12.7866C11.245 12.7866 10.1493 13.894 7.61301 13.2344C7.33788 13.1884 7.56768 13.8417 8.75857 13.9916C10.1973 14.1722 11.6549 12.9156 11.245 12.7866Z" fill="#FFF200"/>
<path id="Vector_5" d="M11.208 12.7325C11.208 12.7325 9.76806 13.5091 7.67687 13.2318C7.40703 13.1835 7.60918 13.5686 8.77613 13.7273C10.186 13.9193 11.6102 12.8642 11.208 12.7325Z" fill="url(#paint3_radial_113_133)"/>
<path id="Vector_6" d="M11.2337 12.7258C11.2337 12.7258 10.1322 13.8829 7.64429 13.2049C7.37456 13.157 7.63957 13.6764 8.80651 13.8353C10.2162 14.0271 11.6358 12.8575 11.2337 12.7258Z" fill="#601B05"/>
<path id="Vector_7" d="M9.61369 10.738C9.61369 10.738 8.38628 10.5584 7.77454 11.4796C7.77454 11.4796 8.6258 10.8478 9.77659 10.9566C9.8151 10.7765 9.61369 10.738 9.61369 10.738Z" fill="url(#paint4_radial_113_133)"/>
<path id="Vector_8" d="M9.65584 10.8016C9.65584 10.8016 8.47701 10.7047 7.74951 11.5166C7.74951 11.5166 8.58479 10.9366 9.73559 11.0454C9.89559 10.8722 9.65584 10.8016 9.65584 10.8016Z" fill="#FFF200"/>
<path id="Vector_9" d="M9.63713 10.7896C9.63713 10.7896 8.42621 10.6604 7.74036 11.5255C7.74036 11.5255 8.57604 10.8865 9.72683 10.9954C9.87261 10.8568 9.63713 10.7896 9.63713 10.7896Z" fill="#601B05"/>
<path id="Vector_10" d="M13.8178 12.7318C13.8178 12.7318 15.0466 13.6891 17.4771 12.7092C17.744 12.6282 17.6002 13.3056 16.4383 13.6071C15.0348 13.9712 13.4278 12.9124 13.8178 12.7318Z" fill="#FFF200"/>
<path id="Vector_11" d="M13.8466 12.6732C13.8466 12.6732 15.3745 13.2585 17.4125 12.7148C17.6739 12.6323 17.523 13.0401 16.3861 13.3476C15.0128 13.719 13.4647 12.8555 13.8466 12.6732Z" fill="url(#paint5_radial_113_133)"/>
<path id="Vector_12" d="M13.8207 12.67C13.8207 12.67 15.0616 13.6761 17.442 12.6842C17.7033 12.6017 17.5072 13.1509 16.3703 13.4586C14.9969 13.8298 13.4387 12.8522 13.8207 12.67Z" fill="#601B05"/>
<path id="Vector_13" d="M14.9247 10.5057C14.9247 10.5057 16.1007 10.1105 16.8666 10.9083C16.8666 10.9083 15.9165 10.438 14.8035 10.75C14.7334 10.5796 14.9247 10.5057 14.9247 10.5057Z" fill="url(#paint6_radial_113_133)"/>
<path id="Vector_14" d="M14.8943 10.5757C14.8943 10.5757 16.037 10.2706 16.8974 10.94C16.8974 10.94 15.9725 10.5179 14.8593 10.8299C14.671 10.6878 14.8943 10.5757 14.8943 10.5757Z" fill="#FFF200"/>
<path id="Vector_15" d="M14.911 10.5609C14.911 10.5609 16.0796 10.218 16.9085 10.9473C16.9085 10.9473 15.9724 10.4672 14.8593 10.779C14.6913 10.6688 14.911 10.5609 14.911 10.5609Z" fill="#601B05"/>
<path id="Vector_16" d="M4.99011 13.6088C5.66471 11.2656 6.96242 10.049 11.6212 9.49938C13.8389 9.23779 15.7261 8.96476 17.1411 8.58361C15.8576 7.57206 14.2388 6.96686 12.4777 6.96686C8.617 6.96691 5.43577 9.86819 4.99011 13.6088Z" fill="url(#paint7_radial_113_133)"/>
<path id="Vector_17" d="M6.16138 5.91726C6.16138 5.91726 6.38713 4.09545 8.63212 3.49645C10.8771 2.89716 13.5708 2.98294 14.2053 3.48194C14.8399 3.98118 16.9076 3.61709 17.4605 4.89433C18.0135 6.17174 19.1071 6.79389 19.1071 6.79389C19.1071 6.79389 21.1976 7.80038 20.4686 9.55808" fill="url(#paint8_radial_113_133)"/>
<path id="Vector_18" d="M15.3977 6.11509L16.5332 5.58782C16.3153 4.95384 15.7778 4.30063 15.2852 3.79809C14.8331 3.72682 14.43 3.65817 14.2058 3.48184C13.8341 3.18954 12.7563 3.03937 11.4763 3.08522C13.0052 3.72324 15.3977 6.11509 15.3977 6.11509Z" fill="url(#paint9_radial_113_133)"/>
<path id="Vector_19" d="M16.1355 7.91321L14.1448 8.62989C14.1448 8.62989 17.2166 9.31086 18.5806 11.1581C19.4558 12.3436 19.8189 13.1781 19.9669 13.6246C19.6791 11.1633 18.2075 9.06468 16.1355 7.91321Z" fill="url(#paint10_radial_113_133)"/>
<path id="Vector_20" d="M14.1045 8.18399C14.1045 8.18399 17.1763 8.86501 18.5402 10.7122C19.9042 12.5597 19.967 13.6247 19.967 13.6247C19.967 13.6247 21.2565 12.1687 20.5652 9.79557C19.8739 7.42242 17.7026 6.88855 17.7026 6.88855" fill="url(#paint11_radial_113_133)"/>
<path id="Vector_21" d="M14.8687 8.40152C15.3832 8.56954 16.0924 8.8416 16.7871 9.23816C16.6719 8.49343 16.6954 7.45361 16.6954 7.45361L14.8687 8.40152Z" fill="url(#paint12_radial_113_133)"/>
<path id="Vector_22" d="M15.695 5.51952C15.2483 4.66075 14.0044 3.67542 13.3283 3.18016C13.2459 3.16617 13.1589 3.1536 13.0687 3.1424C13.2862 3.29734 13.6175 3.54163 13.9753 3.83559C14.5963 4.34427 15.2922 5.00299 15.5871 5.57543L15.695 5.51952Z" fill="#F6D5D1"/>
<path id="Vector_23" d="M18.407 8.96724L17.9639 8.29691L18.5203 7.71804L18.2001 7.07246C18.138 7.04441 18.0804 7.01996 18.0278 6.99902L18.3734 7.69574L17.8087 8.28263L18.2578 8.96252L17.7654 9.61049L18.2854 10.2364L18.2246 10.3367C18.2536 10.3673 18.2819 10.3987 18.3098 10.4301L18.4343 10.2252L17.9205 9.60697L18.407 8.96724ZM18.8138 9.00552L18.3708 8.33519L18.9271 7.75638L18.7286 7.35674C18.663 7.31562 18.5983 7.27688 18.5359 7.24196L18.7798 7.7338L18.2155 8.3212L18.6645 9.00102L18.172 9.64877L18.692 10.2749L18.4762 10.6301C18.4975 10.6574 18.5197 10.6843 18.5403 10.7121C18.5456 10.7192 18.5505 10.7261 18.5557 10.7335L18.8412 10.2637L18.3274 9.64542L18.8138 9.00552Z" fill="#DA6788"/>
<path id="Vector_24" opacity="0.45" d="M13.7304 6.45954L12.9431 6.24761L12.8764 5.43587L12.0695 5.32251L11.9101 4.52437L11.0964 4.49992L10.8548 3.72316L10.0435 3.78397L9.80456 3.24935C9.76298 3.25601 9.72152 3.26266 9.68005 3.26983L9.96724 3.91161L10.7674 3.85148L11.0061 4.61925L11.8097 4.64325L11.9674 5.43138L12.7632 5.54286L12.8288 6.34311L13.6041 6.55129L13.5635 7.3525L14.3 7.66858L14.2374 7.9722L14.3555 8.00241L14.4393 7.59606L13.6889 7.27383L13.7304 6.45954ZM13.9869 6.99467L14.0282 6.17986L13.2408 5.9681L13.1744 5.15642L12.3675 5.04306L12.2079 4.24487L11.3944 4.22064L11.1526 3.4436L10.3413 3.50418L10.2015 3.19122C10.1596 3.19668 10.1175 3.20237 10.0755 3.20834L10.2651 3.63227L11.0655 3.57192L11.3042 4.33968L12.1078 4.36369L12.2654 5.15164L13.0611 5.26307L13.1269 6.06337L13.9018 6.27201L13.8612 7.07305L14.598 7.38907L14.466 8.03039L14.5839 8.06031L14.737 7.31655L13.9869 6.99467Z" fill="#DA6788"/>
<path id="Vector_25" d="M19.3109 6.9079C19.1877 6.83282 19.1071 6.79386 19.1071 6.79386C19.1071 6.79386 18.0135 6.17176 17.4606 4.8943C17.3801 4.70824 17.2665 4.5578 17.1308 4.43357C16.8195 4.48704 16.4583 4.60011 16.0338 4.77383C14.6983 5.32078 13.2026 5.13024 10.8823 4.50126C9.03489 4.00083 7.80071 4.40718 6.72892 4.68663C6.23708 5.31345 6.16138 5.91723 6.16138 5.91723L14.7586 8.105C17.1051 7.72077 18.7164 7.15999 19.3109 6.9079Z" fill="url(#paint13_radial_113_133)"/>
<path id="Vector_26" d="M15.9248 8.79175C17.6206 8.37283 19.6535 7.75717 20.0916 7.55092C19.6546 7.05805 19.1074 6.79385 19.1074 6.79385C19.1074 6.79385 18.1953 6.27271 17.616 5.20844C17.3304 5.27834 17.0076 5.39329 16.6363 5.55728C15.2919 6.15059 13.7633 6.01232 11.3823 5.46434C9.04154 4.92563 7.69258 5.73736 6.41528 5.98189L15.9248 8.79175Z" fill="url(#paint14_radial_113_133)"/>
<path id="Vector_27" d="M4.8534 13.4151C4.8534 13.4151 2.69953 12.3316 3.74982 9.29531C3.69078 8.33819 4.60734 5.78383 5.87969 5.55972C7.15215 5.33567 8.47932 4.49067 10.8185 5.04599C13.1575 5.60153 14.6585 5.74458 15.9761 5.15599C17.2936 4.5674 18.009 4.59408 18.502 5.22015C18.9949 5.84629 19.8841 6.86045 19.5391 7.07409C19.1941 7.28768 15.993 8.6661 11.1343 9.01279C6.27574 9.35947 5.58334 11.2452 5.34001 12.1173C5.12011 12.9056 5.07637 13.5974 4.8534 13.4151Z" fill="url(#paint15_radial_113_133)"/>
<path id="Vector_28" d="M15.6941 5.26886C14.816 5.58631 13.8385 5.60172 12.5837 5.40475C10.6616 6.30271 8.40929 9.03129 7.94299 9.61317C8.73283 9.32923 9.76918 9.11013 11.1346 9.01269C11.5129 8.98562 11.8798 8.95189 12.2373 8.91338C12.5305 8.50754 12.9911 7.98573 13.6944 7.45344C14.9017 6.5399 15.5044 5.60127 15.6941 5.26886Z" fill="url(#paint16_radial_113_133)"/>
<path id="Vector_29" d="M9.55906 4.86622L9.42244 5.26495L8.60621 5.29299L8.4697 6.09733L7.66809 6.24846L7.64716 7.06372L6.87348 7.31917L6.95305 8.12993L6.21453 8.47235L6.38181 9.26884L5.68344 9.68605L5.93291 10.4607L5.28994 10.9571L5.50154 11.6435C5.52412 11.5899 5.55006 11.5343 5.57781 11.4779L5.43106 11.0017L6.07511 10.5046L5.82894 9.74088L6.51889 9.32839L6.35371 8.54191L7.08251 8.20382L7.00425 7.40397L7.76649 7.1524L7.78731 6.34993L8.57561 6.20142L8.70985 5.41113L9.5106 5.38355L9.68528 4.87339C9.64279 4.87049 9.60064 4.86816 9.55906 4.86622ZM5.73361 10.2808L5.48755 9.51689L6.17721 9.10463L6.01209 8.31809L6.74095 7.97994L6.66234 7.18015L7.42487 6.92829L7.44552 6.12606L8.23393 5.97731L8.36805 5.18703L9.16869 5.15967L9.27125 4.86053C9.22762 4.86076 9.18474 4.86173 9.14202 4.86264L9.08093 5.04113L8.26459 5.06889L8.12808 5.87368L7.32647 6.02458L7.30543 6.83939L6.53197 7.09506L6.61138 7.90577L5.87296 8.24841L6.04047 9.0449L5.34199 9.46212L5.59146 10.2365L4.94861 10.7329L5.30229 11.8813L5.41861 11.8454L5.0895 10.7778L5.73361 10.2808Z" fill="#DA6788"/>
<path id="Vector_30" d="M10.4185 9.07926C10.6707 8.78298 11.0374 8.36258 11.4731 7.89525C12.2056 7.10923 13.1299 6.19483 14.0119 5.53377C13.9473 5.53354 13.8827 5.53281 13.8165 5.5307C12.3691 6.64776 10.8568 8.37117 10.2422 9.099C10.2997 9.09206 10.3596 9.08592 10.4185 9.07926Z" fill="#F6D5D1"/>
<path id="Vector_31" d="M5.59313 11.4467C4.01676 11.094 3.87194 9.48109 3.9613 9.00466C4.3871 6.63232 6.39451 5.44609 6.39451 5.44609L6.38996 5.4425C6.21744 5.48932 6.04805 5.52993 5.87969 5.55968C4.6074 5.78378 3.69084 8.33814 3.74982 9.29526C2.69953 12.3316 4.8534 13.4151 4.8534 13.4151C5.07643 13.5973 5.12011 12.9056 5.34007 12.1172C5.39189 11.9316 5.46464 11.6997 5.59313 11.4467Z" fill="url(#paint17_radial_113_133)"/>
<path id="Vector_32" d="M3.54114 10.0681C3.56588 10.8085 3.88162 11.8747 5.2679 12.3966C5.27751 12.3569 5.28752 12.317 5.29782 12.2765C3.90261 11.7431 3.66457 10.6684 3.66076 9.95408C3.66076 9.73311 3.6847 9.55177 3.70598 9.4325C3.63488 9.65467 3.57976 9.86706 3.54114 10.0681Z" fill="#F6D5D1"/>
<path id="Vector_33" d="M20.426 9.38906C20.4256 9.38809 20.4253 9.3869 20.4249 9.38599C20.4068 10.4163 20.1669 11.6944 19.6355 12.5434C19.9448 13.2439 19.9674 13.6246 19.9674 13.6246C19.9674 13.6246 20.8832 12.5902 20.7573 10.8447C20.7332 10.5163 20.6734 10.1656 20.5656 9.79535C20.5447 9.72357 20.5223 9.65372 20.4988 9.58529C20.4758 9.51835 20.4514 9.45299 20.426 9.38906Z" fill="url(#paint18_radial_113_133)"/>
<g id="Mask group">
<mask id="mask0_113_133" style="mask-type:luminance" maskUnits="userSpaceOnUse" x="7" y="14" width="5" height="4">
<g id="Group" opacity="0.72">
<g id="Group_2">
<path id="Vector_34" d="M11.0096 16.1976C10.9059 16.8139 10.0191 17.1781 9.02878 17.0117C8.03861 16.8448 7.32011 16.2104 7.42391 15.5945C7.52749 14.9784 8.4143 14.6137 9.40441 14.7803C10.3947 14.947 11.1131 15.582 11.0096 16.1976Z" fill="url(#paint19_radial_113_133)"/>
</g>
</g>
</mask>
<g mask="url(#mask0_113_133)">
<path id="Vector_35" opacity="0.72" d="M11.0091 16.1976C10.9054 16.8139 10.0186 17.1781 9.02829 17.0117C8.03812 16.8448 7.31962 16.2104 7.42342 15.5945C7.527 14.9784 8.41382 14.6137 9.40392 14.7803C10.3942 14.947 11.1127 15.582 11.0091 16.1976Z" fill="#ED1C24"/>
</g>
</g>
<g id="Mask group_2">
<mask id="mask1_113_133" style="mask-type:luminance" maskUnits="userSpaceOnUse" x="14" y="14" width="4" height="3">
<g id="Group_3" opacity="0.72">
<g id="Group_4">
<path id="Vector_36" d="M17.597 15.2909C17.7647 15.893 17.1163 16.5992 16.1492 16.8688C15.1817 17.1381 14.262 16.8686 14.0943 16.2669C13.9265 15.6652 14.5748 14.9585 15.542 14.6891C16.5094 14.4197 17.4294 14.6897 17.597 15.2909Z" fill="url(#paint20_radial_113_133)"/>
</g>
</g>
</mask>
<g mask="url(#mask1_113_133)">
<path id="Vector_37" opacity="0.72" d="M17.597 15.2909C17.7647 15.893 17.1163 16.5992 16.1492 16.8688C15.1817 17.1381 14.262 16.8686 14.0943 16.2669C13.9265 15.6652 14.5748 14.9585 15.542 14.6891C16.5094 14.4197 17.4294 14.6897 17.597 15.2909Z" fill="#ED1C24"/>
</g>
</g>
<g id="Group_5">
<g id="Group_6">
<path id="Vector_38" d="M16.0417 15.671C16.0685 15.7338 14.5357 16.9147 12.5223 16.9431C10.5095 16.9981 8.92929 15.8817 8.95352 15.8177C8.96683 15.7247 10.5386 16.4018 12.5099 16.3459C14.482 16.3203 16.0245 15.5787 16.0417 15.671Z" fill="#FFF200"/>
</g>
</g>
<g id="Group_7">
<g id="Group_8">
<path id="Vector_39" d="M16.0854 15.6118C16.1122 15.6769 14.5328 16.7326 12.5195 16.7605C10.5067 16.8159 8.94576 15.8252 8.96988 15.7591C8.98319 15.6629 10.5132 16.1079 12.4846 16.0513C14.4565 16.0262 16.0681 15.5162 16.0854 15.6118Z" fill="url(#paint21_radial_113_133)"/>
</g>
</g>
<path id="Vector_40" d="M16.0423 15.6697C16.0689 15.7229 14.5326 16.7302 12.5192 16.7604C10.5063 16.8134 8.92972 15.8707 8.95401 15.8163C8.96772 15.7372 10.5373 16.3072 12.5087 16.2536C14.4806 16.2257 16.0254 15.5912 16.0423 15.6697Z" fill="#601B05"/>
<g id="Mask group_3">
<mask id="mask2_113_133" style="mask-type:luminance" maskUnits="userSpaceOnUse" x="6" y="15" width="12" height="8">
<g id="Group_9" opacity="0.87">
<g id="Group_10">
<path id="Vector_41" d="M12.3407 22.798C9.30365 22.7005 6.89331 21.0154 6.95616 19.0345C7.01998 17.0537 9.53441 15.5269 12.5724 15.6245C15.6089 15.722 18.0203 17.4069 17.9565 19.3878C17.8926 21.3687 15.3782 22.8956 12.3407 22.798Z" fill="url(#paint22_radial_113_133)"/>
</g>
</g>
</mask>
<g mask="url(#mask2_113_133)">
<path id="Vector_42" opacity="0.87" d="M12.3402 22.798C9.30316 22.7005 6.89282 21.0154 6.95567 19.0345C7.01949 17.0537 9.53392 15.5269 12.5719 15.6245C15.6084 15.722 18.0198 17.4069 17.956 19.3878C17.8921 21.3687 15.3778 22.8956 12.3402 22.798Z" fill="#ED1C24"/>
</g>
</g>
<path id="Vector_43" d="M8.13488 15.912C8.13488 15.912 7.90833 15.2646 7.35813 15.2646C6.80782 15.2646 7.083 17.0934 7.24477 17.951" fill="url(#paint23_radial_113_133)"/>
<path id="Vector_44" d="M10.4271 22.0023C10.4271 22.0023 8.87357 22.1318 7.5357 19.1108C7.0178 17.8161 7.40624 16.7804 7.92407 15.7447C8.44196 14.7088 9.26177 13.1984 9.82289 14.5362C10.4272 13.7594 11.2255 14.4716 10.8857 15.0866C11.533 14.7412 11.9538 15.6044 11.614 16.1223C12.2452 16.0737 12.4123 16.7373 12.1533 17.2983C11.8944 17.8592 11.4197 18.5929 11.7218 19.4992C12.024 20.4056 12.7576 22.3043 10.4271 22.0023Z" fill="url(#paint24_radial_113_133)"/>
<path id="Vector_45" d="M11.6145 16.1224C11.6383 16.086 11.6574 16.0478 11.674 16.0086C11.2861 16.5696 10.6154 17.5782 10.5153 18.0011C10.4177 18.4085 10.3849 18.6859 10.3847 18.6878C10.3804 18.7233 10.4059 18.7555 10.4417 18.7599C10.4442 18.7602 10.4469 18.7603 10.4494 18.7603C10.4815 18.7603 10.5096 18.7363 10.5135 18.7032C10.5135 18.7022 10.5453 18.432 10.6415 18.0309C10.6991 17.7703 11.0547 17.1733 11.3933 16.6575C11.5203 16.4635 11.6448 16.2793 11.751 16.1249C11.7079 16.1206 11.663 16.1186 11.6145 16.1224ZM11.0228 15.0317C10.9785 15.0445 10.9333 15.0616 10.8862 15.0867C10.9184 15.0283 10.9403 14.9693 10.9532 14.9106C10.5676 15.4132 9.59522 16.7081 9.47981 17.192C9.38203 17.5992 9.3491 17.8769 9.3491 17.8786C9.34495 17.9142 9.37003 17.9464 9.40592 17.9507C9.40831 17.951 9.41093 17.9511 9.41326 17.9511C9.4458 17.9511 9.47395 17.9269 9.47799 17.8941C9.47799 17.8931 9.5095 17.6228 9.60574 17.2218C9.66183 16.9649 10.0662 16.3413 10.4534 15.8019C10.6687 15.5002 10.8786 15.2208 11.0228 15.0317ZM9.7592 14.3991C9.51161 14.7184 8.80408 15.6619 8.35188 16.5793C8.21634 16.9182 8.13614 17.4039 8.13551 17.406C8.12971 17.4415 8.1536 17.4749 8.18875 17.4811C8.19234 17.4817 8.19586 17.4819 8.19944 17.4819C8.23056 17.4819 8.25826 17.4596 8.26343 17.4278C8.26343 17.4267 8.3446 16.9447 8.47008 16.6319C8.8915 15.776 9.54721 14.8883 9.82103 14.5312C9.80078 14.4831 9.78002 14.4397 9.7592 14.3991Z" fill="#EC8F23"/>
<path id="Vector_46" d="M16.5612 15.9551C16.5612 15.9551 16.7877 15.3077 17.3379 15.3077C17.8882 15.3077 17.613 17.1365 17.4512 17.9942" fill="url(#paint25_radial_113_133)"/>
<path id="Vector_47" d="M14.2686 22.0455C14.2686 22.0455 15.8222 22.1748 17.1601 19.1541C17.678 17.8593 17.2896 16.8236 16.7718 15.7879C16.2539 14.752 15.4341 13.2416 14.8729 14.5794C14.2686 13.8026 13.4703 14.5148 13.81 15.1298C13.1628 14.7844 12.7419 15.6476 13.0818 16.1655C12.4505 16.1169 12.2834 16.7805 12.5425 17.3415C12.8013 17.9024 13.2759 18.6362 12.9739 19.5424C12.6719 20.4488 11.9382 22.3475 14.2686 22.0455Z" fill="url(#paint26_radial_113_133)"/>
<path id="Vector_48" d="M12.9454 16.168C13.0516 16.3224 13.1761 16.5065 13.3032 16.7006C13.6418 17.2163 13.9974 17.8135 14.0551 18.074C14.1511 18.4753 14.1829 18.7455 14.1829 18.7464C14.1869 18.7794 14.2149 18.8035 14.247 18.8035C14.2495 18.8035 14.2522 18.8034 14.2547 18.8031C14.2906 18.7988 14.316 18.7666 14.3118 18.731C14.3115 18.7291 14.2788 18.4516 14.181 18.0443C14.081 17.6213 13.4103 16.6127 13.0225 16.0518C13.0391 16.0909 13.0583 16.1292 13.0821 16.1656C13.0334 16.1618 12.9885 16.1637 12.9454 16.168ZM14.2431 15.845C14.6302 16.3844 15.0347 17.0081 15.0908 17.2649C15.187 17.666 15.2185 17.9362 15.2185 17.9372C15.2226 17.9701 15.2507 17.9942 15.2833 17.9942C15.2856 17.9942 15.2882 17.9941 15.2906 17.9939C15.3265 17.9896 15.3516 17.9574 15.3474 17.9218C15.3474 17.92 15.3145 17.6424 15.2168 17.2352C15.1012 16.7513 14.1289 15.4563 13.7433 14.9537C13.7563 15.0124 13.7781 15.0715 13.8103 15.1299C13.7633 15.1048 13.7179 15.0877 13.6737 15.0748C13.8179 15.2639 14.0279 15.5433 14.2431 15.845ZM14.8754 14.5743C15.1492 14.9314 15.805 15.8192 16.2263 16.675C16.3519 16.9879 16.433 17.4699 16.433 17.4709C16.4382 17.5027 16.4658 17.5251 16.497 17.5251C16.5006 17.5251 16.5042 17.5249 16.5077 17.5243C16.543 17.5181 16.5668 17.4847 16.561 17.4492C16.5604 17.4471 16.4802 16.9614 16.3446 16.6223C15.8924 15.705 15.1849 14.7616 14.9374 14.4423C14.9165 14.4829 14.8957 14.5263 14.8754 14.5743Z" fill="#EC8F23"/>
</g>
</g>
</g>
<defs>
<radialGradient id="paint0_radial_113_133" cx="0" cy="0" r="1" gradientUnits="userSpaceOnUse" gradientTransform="translate(12.5389 10.6775) scale(11.1319)">
<stop offset="0.0714" stop-color="#F9EC00"/>
<stop offset="0.3407" stop-color="#F2BE1D"/>
<stop offset="0.6868" stop-color="#ED9D23"/>
<stop offset="1" stop-color="#E87326"/>
</radialGradient>
<radialGradient id="paint1_radial_113_133" cx="0" cy="0" r="1" gradientUnits="userSpaceOnUse" gradientTransform="translate(9.98598 10.4052) scale(2.67649 3.15263)">
<stop offset="0.0714" stop-color="#F2BE1D"/>
<stop offset="0.6868" stop-color="#ED9D23"/>
<stop offset="1" stop-color="#E87326"/>
</radialGradient>
<radialGradient id="paint2_radial_113_133" cx="0" cy="0" r="1" gradientUnits="userSpaceOnUse" gradientTransform="translate(14.9142 10.1769) rotate(178.583) scale(2.83598 3.15273)">
<stop offset="0.0714" stop-color="#F2BE1D"/>
<stop offset="0.6868" stop-color="#ED9D23"/>
<stop offset="1" stop-color="#E87326"/>
</radialGradient>
<radialGradient id="paint3_radial_113_133" cx="0" cy="0" r="1" gradientUnits="userSpaceOnUse" gradientTransform="translate(9.49969 12.7048) scale(2.06917)">
<stop offset="0.0714" stop-color="#F2BE1D"/>
<stop offset="0.6868" stop-color="#ED9D23"/>
<stop offset="1" stop-color="#E87326"/>
</radialGradient>
<radialGradient id="paint4_radial_113_133" cx="0" cy="0" r="1" gradientUnits="userSpaceOnUse" gradientTransform="translate(9.31997 9.90894) rotate(3.2275) scale(1.13047)">
<stop offset="0.0714" stop-color="#F2BE1D"/>
<stop offset="0.6868" stop-color="#ED9D23"/>
<stop offset="1" stop-color="#E87326"/>
</radialGradient>
<radialGradient id="paint5_radial_113_133" cx="0" cy="0" r="1" gradientUnits="userSpaceOnUse" gradientTransform="translate(15.6553 13.0563) scale(1.34804 1.34804)">
<stop offset="0.0714" stop-color="#F2BE1D"/>
<stop offset="0.6868" stop-color="#ED9D23"/>
<stop offset="1" stop-color="#E87326"/>
</radialGradient>
<radialGradient id="paint6_radial_113_133" cx="0" cy="0" r="1" gradientUnits="userSpaceOnUse" gradientTransform="translate(15.0663 9.63756) rotate(166.521) scale(1.13056)">
<stop offset="0.0714" stop-color="#F2BE1D"/>
<stop offset="0.6868" stop-color="#ED9D23"/>
<stop offset="1" stop-color="#E87326"/>
</radialGradient>
<radialGradient id="paint7_radial_113_133" cx="0" cy="0" r="1" gradientUnits="userSpaceOnUse" gradientTransform="translate(11.0656 10.2878) scale(4.89594)">
<stop offset="0.0714" stop-color="#F9EC00"/>
<stop offset="0.3407" stop-color="#F2BE1D"/>
<stop offset="0.6868" stop-color="#ED9D23"/>
<stop offset="1" stop-color="#E87326"/>
</radialGradient>
<radialGradient id="paint8_radial_113_133" cx="0" cy="0" r="1" gradientUnits="userSpaceOnUse" gradientTransform="translate(13.3922 6.31747) scale(5.60294)">
<stop stop-color="white"/>
<stop offset="1" stop-color="#CEDAD9"/>
</radialGradient>
<radialGradient id="paint9_radial_113_133" cx="0" cy="0" r="1" gradientUnits="userSpaceOnUse" gradientTransform="translate(14.0047 4.59608) scale(2.08571)">
<stop stop-color="#F1A7B8"/>
<stop offset="1" stop-color="#EE87A6"/>
</radialGradient>
<radialGradient id="paint10_radial_113_133" cx="0" cy="0" r="1" gradientUnits="userSpaceOnUse" gradientTransform="translate(17.0559 10.7689) scale(2.8835)">
<stop offset="0.0714" stop-color="#F9EC00"/>
<stop offset="0.3407" stop-color="#F2BE1D"/>
<stop offset="0.6868" stop-color="#ED9D23"/>
<stop offset="1" stop-color="#E87326"/>
</radialGradient>
<radialGradient id="paint11_radial_113_133" cx="0" cy="0" r="1" gradientUnits="userSpaceOnUse" gradientTransform="translate(17.4368 10.2566) scale(3.35022)">
<stop stop-color="white"/>
<stop offset="1" stop-color="#CEDAD9"/>
</radialGradient>
<radialGradient id="paint12_radial_113_133" cx="0" cy="0" r="1" gradientUnits="userSpaceOnUse" gradientTransform="translate(15.8278 8.34596) scale(0.926345)">
<stop stop-color="#F1A7B8"/>
<stop offset="1" stop-color="#EE87A6"/>
</radialGradient>
<radialGradient id="paint13_radial_113_133" cx="0" cy="0" r="1" gradientUnits="userSpaceOnUse" gradientTransform="translate(12.7361 6.18485) scale(4.84325)">
<stop stop-color="white"/>
<stop offset="1" stop-color="#CEDAD9"/>
</radialGradient>
<radialGradient id="paint14_radial_113_133" cx="0" cy="0" r="1" gradientUnits="userSpaceOnUse" gradientTransform="translate(13.2535 7.0001) scale(4.99854 4.99855)">
<stop stop-color="white"/>
<stop offset="1" stop-color="#CEDAD9"/>
</radialGradient>
<radialGradient id="paint15_radial_113_133" cx="0" cy="0" r="1" gradientUnits="userSpaceOnUse" gradientTransform="translate(11.5389 9.08827) scale(6.48951)">
<stop stop-color="white"/>
<stop offset="1" stop-color="#CEDAD9"/>
</radialGradient>
<radialGradient id="paint16_radial_113_133" cx="0" cy="0" r="1" gradientUnits="userSpaceOnUse" gradientTransform="translate(11.8185 7.44105) scale(3.14149)">
<stop stop-color="#F1A7B8"/>
<stop offset="1" stop-color="#EE87A6"/>
</radialGradient>
<radialGradient id="paint17_radial_113_133" cx="0" cy="0" r="1" gradientUnits="userSpaceOnUse" gradientTransform="translate(4.92787 9.44356) scale(3.01321)">
<stop stop-color="#F1A7B8"/>
<stop offset="1" stop-color="#EE87A6"/>
</radialGradient>
<radialGradient id="paint18_radial_113_133" cx="0" cy="0" r="1" gradientUnits="userSpaceOnUse" gradientTransform="translate(20.2024 11.5053) scale(1.55125)">
<stop stop-color="#F1A7B8"/>
<stop offset="1" stop-color="#EE87A6"/>
</radialGradient>
<radialGradient id="paint19_radial_113_133" cx="0" cy="0" r="1" gradientUnits="userSpaceOnUse" gradientTransform="translate(9.21669 15.896) rotate(9.55299) scale(1.4752 0.917746)">
<stop stop-color="white"/>
<stop offset="1"/>
</radialGradient>
<radialGradient id="paint20_radial_113_133" cx="0" cy="0" r="1" gradientUnits="userSpaceOnUse" gradientTransform="translate(15.8458 15.779) rotate(-15.5651) scale(1.47519 0.917716)">
<stop stop-color="white"/>
<stop offset="1"/>
</radialGradient>
<radialGradient id="paint21_radial_113_133" cx="0" cy="0" r="1" gradientUnits="userSpaceOnUse" gradientTransform="translate(12.3264 14.8202) rotate(-1.18609) scale(1.73359)">
<stop offset="0.0714" stop-color="#F2BE1D"/>
<stop offset="0.6868" stop-color="#ED9D23"/>
<stop offset="1" stop-color="#E87326"/>
</radialGradient>
<radialGradient id="paint22_radial_113_133" cx="0" cy="0" r="1" gradientUnits="userSpaceOnUse" gradientTransform="translate(12.4564 19.2113) rotate(91.8337) scale(2.91139 4.46456)">
<stop stop-color="white"/>
<stop offset="1"/>
</radialGradient>
<radialGradient id="paint23_radial_113_133" cx="0" cy="0" r="1" gradientUnits="userSpaceOnUse" gradientTransform="translate(6.72692 14.2289) scale(3.61828)">
<stop offset="0.0714" stop-color="#F9EC00"/>
<stop offset="0.3407" stop-color="#F2BE1D"/>
<stop offset="0.6868" stop-color="#ED9D23"/>
<stop offset="1" stop-color="#E87326"/>
</radialGradient>
<radialGradient id="paint24_radial_113_133" cx="0" cy="0" r="1" gradientUnits="userSpaceOnUse" gradientTransform="translate(9.8008 15.9833) scale(5.34357)">
<stop offset="0.0714" stop-color="#F9EC00"/>
<stop offset="0.3407" stop-color="#F2BE1D"/>
<stop offset="0.6868" stop-color="#ED9D23"/>
<stop offset="1" stop-color="#E87326"/>
</radialGradient>
<radialGradient id="paint25_radial_113_133" cx="0" cy="0" r="1" gradientUnits="userSpaceOnUse" gradientTransform="translate(17.969 14.272) rotate(180) scale(3.61825 3.61825)">
<stop offset="0.0714" stop-color="#F9EC00"/>
<stop offset="0.3407" stop-color="#F2BE1D"/>
<stop offset="0.6868" stop-color="#ED9D23"/>
<stop offset="1" stop-color="#E87326"/>
</radialGradient>
<radialGradient id="paint26_radial_113_133" cx="0" cy="0" r="1" gradientUnits="userSpaceOnUse" gradientTransform="translate(14.895 16.0266) rotate(180) scale(5.34357)">
<stop offset="0.0714" stop-color="#F9EC00"/>
<stop offset="0.3407" stop-color="#F2BE1D"/>
<stop offset="0.6868" stop-color="#ED9D23"/>
<stop offset="1" stop-color="#E87326"/>
</radialGradient>
</defs>
</svg>
