<svg width="32" height="32" viewBox="0 0 32 32" fill="none" xmlns="http://www.w3.org/2000/svg">
<rect x="1" y="1" width="30" height="30" rx="15" fill="white"/>
<rect x="1" y="1" width="30" height="30" rx="15" stroke="#ECECEC"/>
<ellipse cx="15.9995" cy="16" rx="4.89789" ry="4.89789" fill="black"/>
<path d="M7.42859 14.2506C8.12424 10.8236 10.8237 8.12417 14.2507 7.42857" stroke="#FFC32B" stroke-linecap="round"/>
<path d="M7.42859 17.7489C8.12424 21.1759 10.8237 23.8753 14.2507 24.5709" stroke="#FFC32B" stroke-linecap="round"/>
<path d="M24.571 14.2506C23.8754 10.8236 21.176 8.12419 17.7489 7.42859" stroke="#FFC32B" stroke-linecap="round"/>
<path d="M24.571 17.7489C23.8754 21.1759 21.176 23.8753 17.7489 24.5709" stroke="#FFC32B" stroke-linecap="round"/>
<path fill-rule="evenodd" clip-rule="evenodd" d="M16.0002 22.7346C19.7196 22.7346 22.7348 19.7194 22.7348 16C22.7348 12.2805 19.7196 9.26537 16.0002 9.26537C12.2808 9.26537 9.26562 12.2805 9.26562 16C9.26562 19.7194 12.2808 22.7346 16.0002 22.7346ZM13.4747 18.6938C13.4747 18.4148 13.7009 18.1887 13.9798 18.1887H16.0002H18.0206C18.2996 18.1887 18.5257 18.4148 18.5257 18.6938C18.5257 18.9728 18.2996 19.1989 18.0206 19.1989H13.9798C13.7009 19.1989 13.4747 18.9728 13.4747 18.6938ZM14.6533 14.9898C14.6533 15.5477 14.3518 16 13.9798 16C13.6079 16 13.3064 15.5477 13.3064 14.9898C13.3064 14.4319 13.6079 13.9796 13.9798 13.9796C14.3518 13.9796 14.6533 14.4319 14.6533 14.9898ZM18.0206 16C18.3925 16 18.6941 15.5477 18.6941 14.9898C18.6941 14.4319 18.3925 13.9796 18.0206 13.9796C17.6487 13.9796 17.3471 14.4319 17.3471 14.9898C17.3471 15.5477 17.6487 16 18.0206 16Z" fill="#FFC32B"/>
</svg>
