<svg width="32" height="32" viewBox="0 0 32 32" fill="none" xmlns="http://www.w3.org/2000/svg">
<rect x="1" y="1" width="30" height="30" rx="15" fill="white"/>
<rect x="1" y="1" width="30" height="30" rx="15" stroke="#ECECEC"/>
<path d="M23.9627 18.2446L24.5507 14.8448C24.6975 13.9956 24.0445 13.219 23.1837 13.219H18.8661C18.4382 13.219 18.1124 12.8349 18.1816 12.4121L18.7339 9.04166C18.8236 8.4941 18.798 7.93381 18.6586 7.39675C18.5432 6.95185 18.2 6.59461 17.7485 6.44958L17.6277 6.41078C17.3549 6.32313 17.0571 6.34353 16.7999 6.46747C16.5168 6.60391 16.3096 6.85276 16.2329 7.14872L15.8364 8.67693C15.7103 9.16317 15.5266 9.63252 15.2897 10.076C14.9436 10.724 14.4084 11.2425 13.8521 11.7219L12.6532 12.755C12.3151 13.0464 12.1376 13.4826 12.1761 13.9275L12.8529 21.7547C12.915 22.4726 13.5152 23.0238 14.235 23.0238H18.1089C21.0099 23.0238 23.4858 21.0025 23.9627 18.2446Z" fill="#0AB928"/>
<path d="M24.5507 14.8448L24.058 14.7596L24.5507 14.8448ZM23.9627 18.2446L23.4701 18.1594L23.9627 18.2446ZM12.8529 21.7547L12.3547 21.7978L12.8529 21.7547ZM12.1761 13.9275L12.6742 13.8844L12.1761 13.9275ZM18.7339 9.04166L19.2273 9.12251V9.12251L18.7339 9.04166ZM18.1816 12.4121L18.6751 12.493L18.1816 12.4121ZM12.6532 12.755L12.3268 12.3763H12.3268L12.6532 12.755ZM13.8521 11.7219L14.1785 12.1007H14.1785L13.8521 11.7219ZM15.8364 8.67693L15.3525 8.55139L15.8364 8.67693ZM16.2329 7.14872L16.7169 7.27427V7.27427L16.2329 7.14872ZM17.6277 6.41078L17.4748 6.88681L17.4748 6.88682L17.6277 6.41078ZM17.7485 6.44958L17.9015 5.97355L17.9015 5.97355L17.7485 6.44958ZM15.2897 10.076L15.7307 10.3116L15.2897 10.076ZM18.6586 7.39675L18.1747 7.5223V7.5223L18.6586 7.39675ZM16.7999 6.46747L16.5828 6.01704V6.01704L16.7999 6.46747ZM24.058 14.7596L23.4701 18.1594L24.4554 18.3298L25.0434 14.93L24.058 14.7596ZM18.1089 22.5238H14.235V23.5238H18.1089V22.5238ZM13.351 21.7116L12.6742 13.8844L11.6779 13.9706L12.3547 21.7978L13.351 21.7116ZM23.4701 18.1594C23.0368 20.6647 20.78 22.5238 18.1089 22.5238V23.5238C21.2399 23.5238 23.9348 21.3402 24.4554 18.3298L23.4701 18.1594ZM18.2404 8.96082L17.6882 12.3313L18.6751 12.493L19.2273 9.12251L18.2404 8.96082ZM12.9796 13.1338L14.1785 12.1007L13.5257 11.3431L12.3268 12.3763L12.9796 13.1338ZM16.3204 8.80248L16.7169 7.27427L15.7489 7.02317L15.3525 8.55139L16.3204 8.80248ZM17.4748 6.88682L17.5956 6.92562L17.9015 5.97355L17.7807 5.93474L17.4748 6.88682ZM15.7307 10.3116C15.9861 9.83354 16.1843 9.32728 16.3204 8.80248L15.3525 8.55139C15.2363 8.99907 15.0671 9.4315 14.8487 9.84041L15.7307 10.3116ZM17.5956 6.92562C17.8902 7.02025 18.1039 7.24948 18.1747 7.5223L19.1426 7.2712C18.9826 6.65422 18.5098 6.16896 17.9015 5.97355L17.5956 6.92562ZM16.7169 7.27427C16.7556 7.12507 16.862 6.99258 17.017 6.91791L16.5828 6.01704C16.1716 6.21523 15.8637 6.58045 15.7489 7.02317L16.7169 7.27427ZM17.017 6.91791C17.1582 6.84983 17.3235 6.83822 17.4748 6.88681L17.7807 5.93474C17.3863 5.80804 16.956 5.83722 16.5828 6.01704L17.017 6.91791ZM18.8661 13.719H23.1837V12.719H18.8661V13.719ZM19.2273 9.12251C19.3282 8.50625 19.2994 7.87566 19.1426 7.2712L18.1747 7.5223C18.2965 7.99197 18.3189 8.48196 18.2404 8.96082L19.2273 9.12251ZM14.235 22.5238C13.7751 22.5238 13.3908 22.1716 13.351 21.7116L12.3547 21.7978C12.4391 22.7737 13.2553 23.5238 14.235 23.5238V22.5238ZM14.1785 12.1007C14.743 11.6142 15.3386 11.0456 15.7307 10.3116L14.8487 9.84041C14.5485 10.4023 14.0738 10.8708 13.5257 11.3431L14.1785 12.1007ZM25.0434 14.93C25.243 13.7759 24.3554 12.719 23.1837 12.719V13.719C23.7336 13.719 24.1521 14.2154 24.058 14.7596L25.0434 14.93ZM17.6882 12.3313C17.5692 13.0577 18.1291 13.719 18.8661 13.719V12.719C18.7473 12.719 18.6555 12.612 18.6751 12.493L17.6882 12.3313ZM12.6742 13.8844C12.6496 13.5995 12.7633 13.3202 12.9796 13.1338L12.3268 12.3763C11.867 12.7725 11.6256 13.3658 11.6779 13.9706L12.6742 13.8844Z" fill="#0AB928"/>
<path d="M10.3811 22.5829L9.88293 22.626L10.3811 22.5829ZM9.57141 13.2191L10.0696 13.1761C10.0465 12.9093 9.81736 12.7081 9.54985 12.7196C9.28234 12.7312 9.07141 12.9514 9.07141 13.2191H9.57141ZM10.8792 22.5398L10.0696 13.1761L9.07327 13.2622L9.88293 22.626L10.8792 22.5398ZM10.0714 22.6179V13.2191H9.07141V22.6179H10.0714ZM9.88293 22.626C9.87824 22.5717 9.92106 22.524 9.977 22.524V23.524C10.5085 23.524 10.9249 23.0685 10.8792 22.5398L9.88293 22.626ZM9.977 22.524C10.0297 22.524 10.0714 22.5666 10.0714 22.6179H9.07141C9.07141 23.1178 9.47632 23.524 9.977 23.524V22.524Z" fill="#0AB928"/>
</svg>
