<svg width="16" height="16" viewBox="0 0 16 16" fill="none" xmlns="http://www.w3.org/2000/svg">
<g id="Group 1000002241">
<path id="Vector" opacity="0.5" d="M15 9.84416C14.9797 12.234 14.8471 13.5514 13.9783 14.4202C12.9529 15.4456 11.3025 15.4456 8.00183 15.4456C4.70113 15.4456 3.05079 15.4456 2.02539 14.4202C1 13.3948 1 11.7445 1 8.44379C1 5.1431 1 3.49275 2.02539 2.46736C2.8942 1.59856 4.21165 1.46588 6.60146 1.44562" stroke="#1C274C" stroke-opacity="0.7" stroke-linecap="round"/>
<path id="Vector_2" d="M15.0002 4.94562H9.40023C8.20658 4.94562 7.45773 5.49518 7.13484 5.79913C7.01131 5.91542 6.94954 5.97357 6.93886 5.98425C6.92818 5.99493 6.87004 6.05669 6.75375 6.18023C6.44979 6.50312 5.90023 7.25197 5.90023 8.44562V10.5456M15.0002 4.94562L11.5002 1.44562M15.0002 4.94562L11.5002 8.44562" stroke="#1C274C" stroke-opacity="0.7" stroke-linecap="round" stroke-linejoin="round"/>
</g>
</svg>
