<svg width="10" height="10" viewBox="0 0 10 10" fill="none" xmlns="http://www.w3.org/2000/svg">
<ellipse cx="4.63239" cy="4.67507" rx="1.27278" ry="1.2" stroke="#1C274C" stroke-width="0.9"/>
<path opacity="0.5" d="M5.3813 0.735884C5.22536 0.674988 5.02768 0.674988 4.63232 0.674988C4.23696 0.674988 4.03928 0.674988 3.88335 0.735884C3.67544 0.817079 3.51026 0.972819 3.42414 1.16884C3.38482 1.25832 3.36944 1.36239 3.36342 1.51418C3.35457 1.73726 3.23323 1.94375 3.02818 2.05536C2.82314 2.16697 2.5728 2.1628 2.36348 2.05849C2.22103 1.98751 2.11775 1.94804 2.0159 1.93539C1.79278 1.9077 1.56714 1.9647 1.3886 2.09387C1.2547 2.19074 1.15586 2.35215 0.958178 2.67496C0.760498 2.99777 0.661659 3.15918 0.639628 3.31695C0.610255 3.52731 0.670716 3.74005 0.807712 3.90838C0.870242 3.98521 0.958123 4.0498 1.09452 4.1306C1.29503 4.24938 1.42404 4.45173 1.42403 4.675C1.42401 4.89824 1.295 5.10056 1.09451 5.21933C0.958099 5.30014 0.870207 5.36473 0.807671 5.44157C0.670675 5.6099 0.610213 5.82264 0.639587 6.033C0.661617 6.19077 0.760457 6.35217 0.958137 6.67499C1.15582 6.9978 1.25466 7.15921 1.38856 7.25608C1.5671 7.38524 1.79274 7.44225 2.01586 7.41455C2.1177 7.40191 2.22098 7.36245 2.36341 7.29147C2.57275 7.18715 2.8231 7.18298 3.02816 7.2946C3.23323 7.40623 3.35457 7.61272 3.36342 7.83581C3.36944 7.9876 3.38483 8.09166 3.42414 8.18113C3.51026 8.37716 3.67544 8.5329 3.88335 8.61409C4.03928 8.67499 4.23696 8.67499 4.63232 8.67499C5.02768 8.67499 5.22536 8.67499 5.3813 8.61409C5.58921 8.5329 5.75439 8.37716 5.84051 8.18113C5.87982 8.09165 5.89521 7.98758 5.90123 7.83578C5.91008 7.61271 6.0314 7.40623 6.23644 7.2946C6.4415 7.18296 6.69186 7.18713 6.90121 7.29145C7.04363 7.36242 7.14691 7.40189 7.24875 7.41453C7.47186 7.44222 7.69751 7.38522 7.87605 7.25605C8.00995 7.15918 8.10879 6.99777 8.30647 6.67496C8.50415 6.35215 8.60299 6.19074 8.62502 6.03297C8.65439 5.82261 8.59393 5.60987 8.45694 5.44154C8.3944 5.36471 8.30651 5.30012 8.17011 5.21931C7.96961 5.10054 7.84061 4.8982 7.84062 4.67495C7.84064 4.45173 7.96963 4.24942 8.17011 4.13066C8.30654 4.04985 8.39444 3.98525 8.45698 3.90841C8.59397 3.74008 8.65443 3.52734 8.62506 3.31698C8.60303 3.15921 8.50419 2.9978 8.30651 2.67499C8.10883 2.35217 8.00999 2.19077 7.87609 2.0939C7.69755 1.96473 7.47191 1.90773 7.24879 1.93542C7.14695 1.94806 7.04367 1.98753 6.90124 2.05851C6.69189 2.16282 6.44154 2.167 6.23648 2.05537C6.03142 1.94375 5.91008 1.73725 5.90123 1.51416C5.89521 1.36238 5.87982 1.25832 5.84051 1.16884C5.75439 0.972819 5.58921 0.817079 5.3813 0.735884Z" stroke="#1C274C" stroke-width="0.9"/>
</svg>
