<svg width="16" height="15" viewBox="0 0 16 15" fill="none" xmlns="http://www.w3.org/2000/svg">
<g id="Group 1000002243">
<path id="Vector" d="M11.8482 12.0396L14.0396 5.46561C14.9135 2.84412 15.3504 1.53337 14.6585 0.841472C13.9666 0.149575 12.6558 0.586492 10.0342 1.46032L3.50234 3.63753C2.04506 4.12327 1.31642 4.36614 1.09526 4.90046C1.04327 5.02604 1.01185 5.15917 1.00218 5.29474C0.96103 5.87156 1.50412 6.41463 2.59031 7.50078L2.78815 7.69861C2.96644 7.87689 3.05559 7.96604 3.12298 8.06526C3.25588 8.26097 3.33132 8.48998 3.34075 8.72636C3.34553 8.84621 3.32682 8.97088 3.2894 9.22021C3.15241 10.1328 3.08392 10.5892 3.16461 10.9403C3.32544 11.6402 3.86719 12.1896 4.5648 12.3603C4.91478 12.4459 5.37203 12.3839 6.28654 12.2598L6.33654 12.253C6.59434 12.218 6.72324 12.2005 6.84701 12.208C7.07168 12.2215 7.28868 12.2947 7.47568 12.42C7.57869 12.489 7.67067 12.5809 7.85463 12.7649L8.03051 12.9408C9.08771 13.9979 9.61631 14.5265 10.1771 14.499C10.3316 14.4914 10.4835 14.4555 10.6252 14.3932C11.139 14.1671 11.3754 13.4579 11.8482 12.0396Z" stroke="#1C274C" stroke-opacity="0.7" stroke-width="0.8"/>
<path id="Vector_2" opacity="0.5" d="M3.7999 11.7L14.2999 1.19995" stroke="#1C274C" stroke-opacity="0.7" stroke-width="0.8" stroke-linecap="round"/>
</g>
</svg>
