<svg width="16" height="16" viewBox="0 0 16 16" fill="none" xmlns="http://www.w3.org/2000/svg">
<g id="Group 1000002647">
<path id="Vector" opacity="0.5" d="M6.6 15C3.96013 15 2.6402 15 1.8201 14.1799C1 13.3598 1 12.7399 1 10.1" stroke="#1C274C" stroke-linecap="round"/>
<path id="Vector_2" opacity="0.5" d="M15.0002 10.1C15.0002 12.7399 15.0002 13.3598 14.1801 14.1799C13.36 15 12.0401 15 9.40022 15" stroke="#1C274C" stroke-linecap="round"/>
<path id="Vector_3" opacity="0.5" d="M9.40022 1C12.0401 1 13.36 1 14.1801 1.8201C15.0002 2.6402 15.0002 3.26013 15.0002 5.9" stroke="#1C274C" stroke-linecap="round"/>
<path id="Vector_4" opacity="0.5" d="M6.6 1C3.96013 1 2.6402 1 1.8201 1.8201C1 2.6402 1 3.26013 1 5.9" stroke="#1C274C" stroke-linecap="round"/>
<path id="Vector_5" d="M3.72447 9.44186C3.30801 8.95877 3.09978 8.71723 3.09978 8C3.09978 7.28277 3.30801 7.04123 3.72447 6.55814C4.55604 5.59356 5.95065 4.5 7.99978 4.5C10.0489 4.5 11.4435 5.59356 12.2751 6.55814C12.6915 7.04123 12.8998 7.28277 12.8998 8C12.8998 8.71723 12.6915 8.95877 12.2751 9.44186C11.4435 10.4064 10.0489 11.5 7.99978 11.5C5.95065 11.5 4.55604 10.4064 3.72447 9.44186Z" stroke="#1C274C" stroke-width="0.7"/>
<circle id="Vector_6" cx="7.99978" cy="8.00004" r="1.4" stroke="#1C274C" stroke-width="0.7"/>
</g>
</svg>
